# Blender v2.83.4 OBJ File: 'machines.blend'
# www.blender.org
mtllib lower_platform.mtl
o lower_platform_Cube.003
v 15.000000 3.000000 -1.000000
v 15.195090 3.000000 -0.980785
v 15.382684 3.000000 -0.923880
v 15.555571 3.000000 -0.831470
v 15.707107 3.000000 -0.707107
v 15.831470 3.000000 -0.555570
v 15.923880 3.000000 -0.382683
v 15.980785 3.000000 -0.195090
v 16.000000 3.000000 -0.000000
v 15.980785 3.000000 0.195090
v 15.923880 3.000000 0.382683
v 15.831470 3.000000 0.555570
v 15.707107 3.000000 0.707107
v 15.555571 3.000000 0.831470
v 15.382683 3.000000 0.923880
v 15.195090 3.000000 0.980785
v 15.000000 3.000000 1.000000
v 14.804909 3.000000 0.980785
v 14.617316 3.000000 0.923879
v 14.444429 3.000000 0.831469
v 14.292892 3.000000 0.707106
v 14.168530 3.000000 0.555570
v 14.076120 3.000000 0.382683
v 14.019215 3.000000 0.195089
v 14.000000 3.000000 -0.000001
v 14.019215 3.000000 -0.195091
v 14.076120 3.000000 -0.382684
v 14.168531 3.000000 -0.555571
v 14.292894 3.000000 -0.707108
v 14.444431 3.000000 -0.831470
v 14.617318 3.000000 -0.923880
v 14.804911 3.000000 -0.980786
vt 0.549237 0.000100
vt 0.645816 0.019312
vt 0.736792 0.056995
vt 0.818668 0.111703
vt 0.888298 0.181333
vt 0.943006 0.263211
vt 0.980690 0.354185
vt 0.999900 0.450765
vt 0.999900 0.549237
vt 0.980689 0.645817
vt 0.943006 0.736792
vt 0.888297 0.818668
vt 0.818669 0.888297
vt 0.736792 0.943006
vt 0.645816 0.980689
vt 0.549235 0.999900
vt 0.450764 0.999900
vt 0.354184 0.980689
vt 0.263208 0.943005
vt 0.181332 0.888298
vt 0.111703 0.818668
vt 0.056995 0.736791
vt 0.019311 0.645816
vt 0.000100 0.549236
vt 0.000100 0.450764
vt 0.019310 0.354185
vt 0.056995 0.263209
vt 0.111703 0.181333
vt 0.181333 0.111702
vt 0.263209 0.056995
vt 0.354185 0.019311
vt 0.450765 0.000100
vn 0.0000 1.0000 0.0000
usemtl Material.005
s off
f 20/1/1 19/2/1 18/3/1 17/4/1 16/5/1 15/6/1 14/7/1 13/8/1 12/9/1 11/10/1 10/11/1 9/12/1 8/13/1 7/14/1 6/15/1 5/16/1 4/17/1 3/18/1 2/19/1 1/20/1 32/21/1 31/22/1 30/23/1 29/24/1 28/25/1 27/26/1 26/27/1 25/28/1 24/29/1 23/30/1 22/31/1 21/32/1
