# Blender v2.83.4 OBJ File: 'buildings.blend'
# www.blender.org
mtllib corner.mtl
o corner_template_Cube.013
v -1.000000 -1.000000 1.000000
v -1.000000 1.000000 1.000000
v -1.000000 -1.000000 -1.000000
v -1.000000 1.000000 -1.000000
v 1.000000 -1.000000 1.000000
v 1.000000 1.000000 1.000000
v 1.000000 -1.000000 -1.000000
v 1.000000 1.000000 -1.000000
v -1.000000 1.000000 -3.000000
v -1.000000 -1.000000 -3.000000
v 1.000000 -1.000000 -3.000000
v 1.000000 1.000000 -3.000000
v -1.000000 1.000000 -5.000000
v -1.000000 -1.000000 -5.000000
v 1.000000 -1.000000 -5.000000
v 1.000000 1.000000 -5.000000
v -1.000000 1.000000 -7.000000
v -1.000000 -1.000000 -7.000000
v 1.000000 -1.000000 -7.000000
v 1.000000 1.000000 -7.000000
v -1.000000 1.000000 -9.000000
v -1.000000 -1.000000 -9.000000
v 1.000000 -1.000000 -9.000000
v 1.000000 1.000000 -9.000000
v -1.000000 1.000000 -11.000000
v -1.000000 -1.000000 -11.000000
v 1.000000 -1.000000 -11.000000
v 1.000000 1.000000 -11.000000
v -1.000000 1.000000 -13.000000
v -1.000000 -1.000000 -13.000000
v 1.000000 -1.000000 -13.000000
v 1.000000 1.000000 -13.000000
v -1.000000 1.000000 -15.000000
v -1.000000 -1.000000 -15.000000
v 1.000000 -1.000000 -15.000000
v 1.000000 1.000000 -15.000000
v -3.000000 -1.000000 -1.000000
v -3.000000 -1.000000 1.000000
v -3.000000 1.000000 1.000000
v -3.000000 1.000000 -1.000000
v -5.000000 -1.000000 -1.000000
v -5.000000 -1.000000 1.000000
v -5.000000 1.000000 1.000000
v -5.000000 1.000000 -1.000000
v -7.000000 -1.000000 -1.000000
v -7.000000 -1.000000 1.000000
v -7.000000 1.000000 1.000000
v -7.000000 1.000000 -1.000000
v -9.000000 -1.000000 -1.000000
v -9.000000 -1.000000 1.000000
v -9.000000 1.000000 1.000000
v -9.000000 1.000000 -1.000000
v -11.000000 -1.000000 -1.000000
v -11.000000 -1.000000 1.000000
v -11.000000 1.000000 1.000000
v -11.000000 1.000000 -1.000000
v -13.000000 -1.000000 -1.000000
v -13.000000 -1.000000 1.000000
v -13.000000 1.000000 1.000000
v -13.000000 1.000000 -1.000000
v -15.000000 -1.000000 -1.000000
v -15.000000 -1.000000 1.000000
v -15.000000 1.000000 1.000000
v -15.000000 1.000000 -1.000000
v -1.000000 3.000000 1.000000
v -1.000000 3.000000 -1.000000
v 1.000000 3.000000 -1.000000
v 1.000000 3.000000 1.000000
v -1.000000 3.000000 -3.000000
v 1.000000 3.000000 -3.000000
v -1.000000 3.000000 -5.000000
v 1.000000 3.000000 -5.000000
v -1.000000 3.000000 -7.000000
v 1.000000 3.000000 -7.000000
v -1.000000 3.000000 -9.000000
v 1.000000 3.000000 -9.000000
v -1.000000 3.000000 -11.000000
v 1.000000 3.000000 -11.000000
v -1.000000 3.000000 -13.000000
v 1.000000 3.000000 -13.000000
v -1.000000 3.000000 -15.000000
v 1.000000 3.000000 -15.000000
v -3.000000 3.000000 1.000000
v -3.000000 3.000000 -1.000000
v -5.000000 3.000000 1.000000
v -5.000000 3.000000 -1.000000
v -7.000000 3.000000 1.000000
v -7.000000 3.000000 -1.000000
v -9.000000 3.000000 1.000000
v -9.000000 3.000000 -1.000000
v -11.000000 3.000000 1.000000
v -11.000000 3.000000 -1.000000
v -13.000000 3.000000 1.000000
v -13.000000 3.000000 -1.000000
v -15.000000 3.000000 1.000000
v -15.000000 3.000000 -1.000000
v -1.000000 5.000000 1.000000
v -1.000000 5.000000 -1.000000
v 1.000000 5.000000 -1.000000
v 1.000000 5.000000 1.000000
v -1.000000 5.000000 -3.000000
v 1.000000 5.000000 -3.000000
v -1.000000 5.000000 -5.000000
v 1.000000 5.000000 -5.000000
v -1.000000 5.000000 -7.000000
v 1.000000 5.000000 -7.000000
v -1.000000 5.000000 -9.000000
v 1.000000 5.000000 -9.000000
v -1.000000 5.000000 -11.000000
v 1.000000 5.000000 -11.000000
v -1.000000 5.000000 -13.000000
v 1.000000 5.000000 -13.000000
v -1.000000 5.000000 -15.000000
v 1.000000 5.000000 -15.000000
v -3.000000 5.000000 1.000000
v -3.000000 5.000000 -1.000000
v -5.000000 5.000000 1.000000
v -5.000000 5.000000 -1.000000
v -7.000000 5.000000 1.000000
v -7.000000 5.000000 -1.000000
v -9.000000 5.000000 1.000000
v -9.000000 5.000000 -1.000000
v -11.000000 5.000000 1.000000
v -11.000000 5.000000 -1.000000
v -13.000000 5.000000 1.000000
v -13.000000 5.000000 -1.000000
v -15.000000 5.000000 1.000000
v -15.000000 5.000000 -1.000000
v -1.000000 7.000000 1.000000
v -1.000000 7.000000 -1.000000
v 1.000000 7.000000 -1.000000
v 1.000000 7.000000 1.000000
v -1.000000 7.000000 -3.000000
v 1.000000 7.000000 -3.000000
v -1.000000 7.000000 -5.000000
v 1.000000 7.000000 -5.000000
v -1.000000 7.000000 -7.000000
v 1.000000 7.000000 -7.000000
v -1.000000 7.000000 -9.000000
v 1.000000 7.000000 -9.000000
v -1.000000 7.000000 -11.000000
v 1.000000 7.000000 -11.000000
v -1.000000 7.000000 -13.000000
v 1.000000 7.000000 -13.000000
v -1.000000 7.000000 -15.000000
v 1.000000 7.000000 -15.000000
v -3.000000 7.000000 1.000000
v -3.000000 7.000000 -1.000000
v -5.000000 7.000000 1.000000
v -5.000000 7.000000 -1.000000
v -7.000000 7.000000 1.000000
v -7.000000 7.000000 -1.000000
v -9.000000 7.000000 1.000000
v -9.000000 7.000000 -1.000000
v -11.000000 7.000000 1.000000
v -11.000000 7.000000 -1.000000
v -13.000000 7.000000 1.000000
v -13.000000 7.000000 -1.000000
v -15.000000 7.000000 1.000000
v -15.000000 7.000000 -1.000000
v -1.000000 9.000000 1.000000
v -1.000000 9.000000 -1.000000
v 1.000000 9.000000 -1.000000
v 1.000000 9.000000 1.000000
v -1.000000 9.000000 -3.000000
v 1.000000 9.000000 -3.000000
v -1.000000 9.000000 -5.000000
v 1.000000 9.000000 -5.000000
v -1.000000 9.000000 -7.000000
v 1.000000 9.000000 -7.000000
v -1.000000 9.000000 -9.000000
v 1.000000 9.000000 -9.000000
v -1.000000 9.000000 -11.000000
v 1.000000 9.000000 -11.000000
v -1.000000 9.000000 -13.000000
v 1.000000 9.000000 -13.000000
v -1.000000 9.000000 -15.000000
v 1.000000 9.000000 -15.000000
v -3.000000 9.000000 1.000000
v -3.000000 9.000000 -1.000000
v -5.000000 9.000000 1.000000
v -5.000000 9.000000 -1.000000
v -7.000000 9.000000 1.000000
v -7.000000 9.000000 -1.000000
v -9.000000 9.000000 1.000000
v -9.000000 9.000000 -1.000000
v -11.000000 9.000000 1.000000
v -11.000000 9.000000 -1.000000
v -13.000000 9.000000 1.000000
v -13.000000 9.000000 -1.000000
v -15.000000 9.000000 1.000000
v -15.000000 9.000000 -1.000000
v -1.000000 11.000000 1.000000
v -1.000000 11.000000 -1.000000
v 1.000000 11.000000 -1.000000
v 1.000000 11.000000 1.000000
v -1.000000 11.000000 -3.000000
v 1.000000 11.000000 -3.000000
v -1.000000 11.000000 -5.000000
v 1.000000 11.000000 -5.000000
v -1.000000 11.000000 -7.000000
v 1.000000 11.000000 -7.000000
v -1.000000 11.000000 -9.000000
v 1.000000 11.000000 -9.000000
v -1.000000 11.000000 -11.000000
v 1.000000 11.000000 -11.000000
v -1.000000 11.000000 -13.000000
v 1.000000 11.000000 -13.000000
v -1.000000 11.000000 -15.000000
v 1.000000 11.000000 -15.000000
v -3.000000 11.000000 1.000000
v -3.000000 11.000000 -1.000000
v -5.000000 11.000000 1.000000
v -5.000000 11.000000 -1.000000
v -7.000000 11.000000 1.000000
v -7.000000 11.000000 -1.000000
v -9.000000 11.000000 1.000000
v -9.000000 11.000000 -1.000000
v -11.000000 11.000000 1.000000
v -11.000000 11.000000 -1.000000
v -13.000000 11.000000 1.000000
v -13.000000 11.000000 -1.000000
v -15.000000 11.000000 1.000000
v -15.000000 11.000000 -1.000000
vt 0.549940 0.199960
vt 0.549940 0.249900
vt 0.500000 0.249901
vt 0.500000 0.199960
vt 0.249901 0.449662
vt 0.299841 0.449662
vt 0.299841 0.499602
vt 0.249901 0.499602
vt 0.249901 0.399722
vt 0.299841 0.399721
vt 0.249901 0.349781
vt 0.299841 0.349781
vt 0.949860 0.749701
vt 0.999801 0.749701
vt 0.999801 0.799642
vt 0.949860 0.799642
vt 0.199960 0.449662
vt 0.199960 0.399722
vt 0.299841 0.549542
vt 0.249901 0.549542
vt 0.949860 0.699761
vt 0.999801 0.699761
vt 0.249901 0.599483
vt 0.199960 0.599483
vt 0.199960 0.549542
vt 0.599880 0.349781
vt 0.549940 0.349781
vt 0.549940 0.299841
vt 0.599880 0.299841
vt 0.999801 0.649821
vt 0.949860 0.649821
vt 0.949860 0.599881
vt 0.999801 0.599881
vt 0.249901 0.050139
vt 0.249901 0.100080
vt 0.199960 0.100080
vt 0.199960 0.050139
vt 0.599881 0.249901
vt 0.249901 0.299841
vt 0.199960 0.349781
vt 0.199960 0.299841
vt 0.549940 0.599482
vt 0.549940 0.649422
vt 0.500000 0.649422
vt 0.500000 0.599482
vt 0.599881 0.199960
vt 0.299841 0.599483
vt 0.249901 0.649423
vt 0.299841 0.649423
vt 0.299841 0.699363
vt 0.249901 0.699363
vt 0.549940 0.150020
vt 0.599881 0.150020
vt 0.949860 0.549940
vt 0.999801 0.549940
vt 0.500000 0.349781
vt 0.500000 0.299841
vt 0.949860 0.500000
vt 0.999801 0.500000
vt 0.549940 0.399721
vt 0.500000 0.399721
vt 0.549940 0.100080
vt 0.599881 0.100080
vt 0.249901 0.150020
vt 0.249901 0.199960
vt 0.199960 0.199960
vt 0.199960 0.150020
vt 0.549940 0.050140
vt 0.599881 0.050140
vt 0.299841 0.749303
vt 0.249901 0.749303
vt 0.949860 0.450060
vt 0.999801 0.450060
vt 0.300239 0.999402
vt 0.300239 0.949462
vt 0.350179 0.949462
vt 0.350179 0.999402
vt 0.549940 0.000200
vt 0.599881 0.000200
vt 0.299841 0.799244
vt 0.249901 0.799244
vt 0.949860 0.400119
vt 0.999800 0.400119
vt 0.199960 0.499602
vt 0.899920 0.799642
vt 0.899920 0.749701
vt 0.599880 0.399721
vt 0.299841 0.299841
vt 0.849980 0.749701
vt 0.849980 0.799642
vt 0.800040 0.799642
vt 0.800040 0.749701
vt 0.599881 0.449661
vt 0.549940 0.449661
vt 0.249901 0.249901
vt 0.299841 0.249901
vt 0.549940 0.499602
vt 0.599881 0.499601
vt 0.599881 0.549542
vt 0.549940 0.549542
vt 0.299841 0.199960
vt 0.500000 0.100080
vt 0.500000 0.050140
vt 0.500000 0.549542
vt 0.500000 0.499602
vt 0.299841 0.150020
vt 0.199960 0.749303
vt 0.199960 0.699363
vt 0.750100 0.799642
vt 0.750100 0.749701
vt 0.599881 0.599482
vt 0.599881 0.649422
vt 0.700159 0.799641
vt 0.700159 0.749701
vt 0.299841 0.100080
vt 0.299841 0.050139
vt 0.249901 0.000199
vt 0.299841 0.000199
vt 0.549941 0.699363
vt 0.500000 0.699363
vt 0.650219 0.799641
vt 0.650219 0.749701
vt 0.400518 0.699761
vt 0.400518 0.749701
vt 0.350578 0.749701
vt 0.350578 0.699761
vt 0.500000 0.150020
vt 0.600279 0.799641
vt 0.600279 0.749701
vt 0.599881 0.699362
vt 0.199960 0.249901
vt 0.150020 0.299841
vt 0.150020 0.249901
vt 0.150020 0.399722
vt 0.150020 0.349781
vt 0.350578 0.799641
vt 0.400518 0.799641
vt 0.400518 0.849582
vt 0.350578 0.849582
vt 0.500000 0.449661
vt 0.450060 0.449661
vt 0.450060 0.399721
vt 0.150020 0.449662
vt 0.150020 0.100080
vt 0.150020 0.050139
vt 0.450060 0.199960
vt 0.450060 0.150020
vt 0.450060 0.649422
vt 0.450060 0.599482
vt 0.199960 0.649423
vt 0.150020 0.649423
vt 0.150020 0.599483
vt 0.450060 0.349781
vt 0.150020 0.150020
vt 0.450060 0.249900
vt 0.450060 0.549542
vt 0.150020 0.549542
vt 0.300239 0.899522
vt 0.350179 0.899522
vt 0.199960 0.799244
vt 0.500000 0.000199
vt 0.199960 0.000199
vt 0.450060 0.499602
vt 0.400120 0.499602
vt 0.400120 0.449661
vt 0.150020 0.499602
vt 0.100080 0.499602
vt 0.100080 0.449662
vt 0.450060 0.699363
vt 0.400120 0.699363
vt 0.400120 0.649422
vt 0.450060 0.100080
vt 0.400120 0.150020
vt 0.400120 0.100080
vt 0.150020 0.000199
vt 0.100080 0.050139
vt 0.100080 0.000199
vt 0.150020 0.699363
vt 0.100080 0.699363
vt 0.100080 0.649423
vt 0.100080 0.299841
vt 0.100080 0.249901
vt 0.100080 0.399721
vt 0.100080 0.349781
vt 0.400518 0.899522
vt 0.350578 0.899522
vt 0.400120 0.399721
vt 0.100080 0.100080
vt 0.400120 0.199960
vt 0.400120 0.599482
vt 0.100080 0.599483
vt 0.450060 0.299841
vt 0.150020 0.199960
vt 0.150020 0.749303
vt 0.450060 0.050140
vt 0.300239 0.849582
vt 0.350179 0.849582
vt 0.150020 0.799243
vt 0.450060 0.000199
vt 0.100080 0.150020
vt 0.100080 0.199960
vt 0.050139 0.199960
vt 0.050139 0.150020
vt 0.400120 0.249900
vt 0.400120 0.299841
vt 0.350179 0.299841
vt 0.350179 0.249901
vt 0.350179 0.799641
vt 0.300239 0.799641
vt 0.300239 0.749701
vt 0.350179 0.749701
vt 0.400120 0.549542
vt 0.350179 0.549542
vt 0.350179 0.499602
vt 0.100080 0.549542
vt 0.050139 0.549542
vt 0.050139 0.499602
vt 0.400120 0.050139
vt 0.350179 0.100080
vt 0.350180 0.050140
vt 0.100080 0.749303
vt 0.050139 0.749303
vt 0.050139 0.699363
vt 0.050139 0.249901
vt 0.400120 0.349781
vt 0.350179 0.349781
vt 0.350179 0.449661
vt 0.050139 0.449662
vt 0.350180 0.699363
vt 0.350180 0.649422
vt 0.350179 0.150020
vt 0.050139 0.050139
vt 0.050139 0.000199
vt 0.050139 0.649423
vt 0.100080 0.799243
vt 0.400120 0.000199
vt 0.050139 0.299841
vt 0.050139 0.349781
vt 0.000199 0.349781
vt 0.000199 0.299841
vt 0.350179 0.399721
vt 0.300239 0.399721
vt 0.300239 0.349781
vt 0.050139 0.100080
vt 0.000199 0.150020
vt 0.000199 0.100080
vt 0.350179 0.199960
vt 0.300239 0.249900
vt 0.300239 0.199960
vt 0.350179 0.599482
vt 0.300239 0.599482
vt 0.300239 0.549542
vt 0.050140 0.599483
vt 0.000199 0.599483
vt 0.000199 0.549542
vt 0.350179 0.000199
vt 0.300239 0.050139
vt 0.300239 0.000199
vt 0.050139 0.799244
vt 0.000199 0.799244
vt 0.000199 0.749303
vt 0.000199 0.199960
vt 0.300239 0.299841
vt 0.300239 0.699761
vt 0.350179 0.699761
vt 0.300239 0.499602
vt 0.000199 0.499602
vt 0.300239 0.100080
vt 0.000199 0.699363
vt 0.050139 0.399721
vt 0.400518 0.949462
vt 0.350578 0.949462
vt 0.949861 0.000199
vt 0.949861 0.050139
vt 0.899920 0.050139
vt 0.899920 0.000199
vt 0.999801 0.050139
vt 0.999801 0.000199
vt 0.999801 0.100080
vt 0.949861 0.100080
vt 0.999801 0.150020
vt 0.949861 0.150020
vt 0.949861 0.199960
vt 0.999801 0.199960
vt 0.999801 0.249900
vt 0.949861 0.249900
vt 0.949861 0.299841
vt 0.999801 0.299841
vt 0.999801 0.349781
vt 0.949861 0.349781
vt 0.999801 0.399721
vt 0.949861 0.399721
vt 0.849980 0.050139
vt 0.849980 0.000199
vt 0.800040 0.050139
vt 0.800040 0.000199
vt 0.750100 0.000199
vt 0.750100 0.050139
vt 0.700159 0.050139
vt 0.700159 0.000199
vt 0.650219 0.050139
vt 0.650219 0.000199
vt 0.600279 0.050139
vt 0.600279 0.000199
vt 0.000199 0.649423
vt 0.300239 0.649423
vt 0.300239 0.150020
vt 0.000199 0.050139
vt 0.000199 0.449662
vt 0.000199 0.399722
vt 0.300239 0.449661
vt 0.400518 0.999402
vt 0.350578 0.999402
vt 0.000199 0.249901
vt 0.000199 0.000199
vt 0.300239 0.699363
vn -1.0000 0.0000 0.0000
vn 1.0000 0.0000 0.0000
vn 0.0000 0.0000 1.0000
vn 0.0000 -1.0000 0.0000
vn 0.0000 0.0000 -1.0000
vn 0.0000 1.0000 0.0000
usemtl Material.013
s off
f 17/1/1 13/2/1 71/3/1 73/4/1
f 8/5/2 7/6/2 11/7/2 12/8/2
f 7/6/2 8/5/2 6/9/2 5/10/2
f 5/10/3 6/9/3 2/11/3 1/12/3
f 3/13/4 7/14/4 5/15/4 1/16/4
f 6/9/2 8/5/2 67/17/2 68/18/2
f 12/8/2 11/7/2 15/19/2 16/20/2
f 7/14/4 3/13/4 10/21/4 11/22/4
f 16/20/2 20/23/2 74/24/2 72/25/2
f 3/26/1 4/27/1 9/28/1 10/29/1
f 15/30/4 14/31/4 18/32/4 19/33/4
f 11/22/4 10/21/4 14/31/4 15/30/4
f 59/34/3 55/35/3 91/36/3 93/37/3
f 10/29/1 9/28/1 13/2/1 14/38/1
f 39/39/3 2/11/3 65/40/3 83/41/3
f 56/42/5 60/43/5 94/44/5 92/45/5
f 14/38/1 13/2/1 17/1/1 18/46/1
f 16/20/2 15/19/2 19/47/2 20/23/2
f 24/48/2 23/49/2 27/50/2 28/51/2
f 18/46/1 17/1/1 21/52/1 22/53/1
f 20/23/2 19/47/2 23/49/2 24/48/2
f 19/33/4 18/32/4 22/54/4 23/55/4
f 9/28/1 4/27/1 66/56/1 69/57/1
f 23/55/4 22/54/4 26/58/4 27/59/4
f 4/27/5 40/60/5 84/61/5 66/56/5
f 22/53/1 21/52/1 25/62/1 26/63/1
f 51/64/3 47/65/3 87/66/3 89/67/3
f 26/63/1 25/62/1 29/68/1 30/69/1
f 28/51/2 27/50/2 31/70/2 32/71/2
f 27/59/4 26/58/4 30/72/4 31/73/4
f 34/74/5 33/75/5 36/76/5 35/77/5
f 30/69/1 29/68/1 33/78/1 34/79/1
f 32/71/2 31/70/2 35/80/2 36/81/2
f 31/73/4 30/72/4 34/82/4 35/83/4
f 8/5/2 12/8/2 70/84/2 67/17/2
f 3/13/4 1/16/4 38/85/4 37/86/4
f 4/27/5 3/26/5 37/87/5 40/60/5
f 1/12/3 2/11/3 39/39/3 38/88/3
f 41/89/4 42/90/4 46/91/4 45/92/4
f 37/86/4 38/85/4 42/90/4 41/89/4
f 40/60/5 37/87/5 41/93/5 44/94/5
f 38/88/3 39/39/3 43/95/3 42/96/3
f 48/97/5 45/98/5 49/99/5 52/100/5
f 44/94/5 41/93/5 45/98/5 48/97/5
f 42/96/3 43/95/3 47/65/3 46/101/3
f 29/68/1 25/62/1 77/102/1 79/103/1
f 48/97/5 52/100/5 90/104/5 88/105/5
f 46/101/3 47/65/3 51/64/3 50/106/3
f 28/51/2 32/71/2 80/107/2 78/108/2
f 45/92/4 46/91/4 50/109/4 49/110/4
f 56/42/5 53/111/5 57/112/5 60/43/5
f 49/110/4 50/109/4 54/113/4 53/114/4
f 52/100/5 49/99/5 53/111/5 56/42/5
f 50/106/3 51/64/3 55/35/3 54/115/3
f 58/116/3 59/34/3 63/117/3 62/118/3
f 54/115/3 55/35/3 59/34/3 58/116/3
f 60/43/5 64/119/5 96/120/5 94/44/5
f 53/114/4 54/113/4 58/121/4 57/122/4
f 62/123/1 63/124/1 64/125/1 61/126/1
f 21/52/1 17/1/1 73/4/1 75/127/1
f 57/122/4 58/121/4 62/128/4 61/129/4
f 60/43/5 57/112/5 61/130/5 64/119/5
f 85/131/3 83/41/3 115/132/3 117/133/3
f 65/40/3 68/18/3 100/134/3 97/135/3
f 96/136/1 95/137/1 127/138/1 128/139/1
f 84/61/5 86/140/5 118/141/5 116/142/5
f 68/18/2 67/17/2 99/143/2 100/134/2
f 93/37/3 91/36/3 123/144/3 125/145/3
f 75/127/1 73/4/1 105/146/1 107/147/1
f 92/45/5 94/44/5 126/148/5 124/149/5
f 74/24/2 76/150/2 108/151/2 106/152/2
f 83/41/3 65/40/3 97/135/3 115/132/3
f 66/56/5 84/61/5 116/142/5 98/153/5
f 91/36/3 89/67/3 121/154/3 123/144/3
f 73/4/1 71/3/1 103/155/1 105/146/1
f 90/104/5 92/45/5 124/149/5 122/156/5
f 72/25/2 74/24/2 106/152/2 104/157/2
f 36/76/5 33/75/5 81/158/5 82/159/5
f 24/48/2 28/51/2 78/108/2 76/150/2
f 44/94/5 48/97/5 88/105/5 86/140/5
f 52/100/5 56/42/5 92/45/5 90/104/5
f 32/71/2 36/81/2 82/160/2 80/107/2
f 47/65/3 43/95/3 85/131/3 87/66/3
f 64/125/1 63/124/1 95/137/1 96/136/1
f 25/62/1 21/52/1 75/127/1 77/102/1
f 2/11/3 6/9/3 68/18/3 65/40/3
f 55/35/3 51/64/3 89/67/3 91/36/3
f 33/78/1 29/68/1 79/103/1 81/161/1
f 12/8/2 16/20/2 72/25/2 70/84/2
f 63/117/3 59/34/3 93/37/3 95/162/3
f 40/60/5 44/94/5 86/140/5 84/61/5
f 20/23/2 24/48/2 76/150/2 74/24/2
f 13/2/1 9/28/1 69/57/1 71/3/1
f 43/95/3 39/39/3 83/41/3 85/131/3
f 118/141/5 120/163/5 152/164/5 150/165/5
f 99/143/2 102/166/2 134/167/2 131/168/2
f 126/148/5 128/169/5 160/170/5 158/171/5
f 109/172/1 107/147/1 139/173/1 141/174/1
f 127/175/3 125/145/3 157/176/3 159/177/3
f 108/151/2 110/178/2 142/179/2 140/180/2
f 117/133/3 115/132/3 147/181/3 149/182/3
f 97/135/3 100/134/3 132/183/3 129/184/3
f 128/139/1 127/138/1 159/185/1 160/186/1
f 116/142/5 118/141/5 150/165/5 148/187/5
f 100/134/2 99/143/2 131/168/2 132/183/2
f 125/145/3 123/144/3 155/188/3 157/176/3
f 107/147/1 105/146/1 137/189/1 139/173/1
f 124/149/5 126/148/5 158/171/5 156/190/5
f 106/152/2 108/151/2 140/180/2 138/191/2
f 76/150/2 78/108/2 110/178/2 108/151/2
f 95/162/3 93/37/3 125/145/3 127/175/3
f 77/102/1 75/127/1 107/147/1 109/172/1
f 94/44/5 96/120/5 128/169/5 126/148/5
f 67/17/2 70/84/2 102/166/2 99/143/2
f 86/140/5 88/105/5 120/163/5 118/141/5
f 69/57/1 66/56/1 98/153/1 101/192/1
f 87/66/3 85/131/3 117/133/3 119/193/3
f 78/108/2 80/107/2 112/194/2 110/178/2
f 79/103/1 77/102/1 109/172/1 111/195/1
f 70/84/2 72/25/2 104/157/2 102/166/2
f 88/105/5 90/104/5 122/156/5 120/163/5
f 82/159/5 81/158/5 113/196/5 114/197/5
f 71/3/1 69/57/1 101/192/1 103/155/1
f 89/67/3 87/66/3 119/193/3 121/154/3
f 80/107/2 82/160/2 114/198/2 112/194/2
f 81/161/1 79/103/1 111/195/1 113/199/1
f 153/200/3 151/201/3 183/202/3 185/203/3
f 135/204/1 133/205/1 165/206/1 167/207/1
f 146/208/5 145/209/5 177/210/5 178/211/5
f 152/164/5 154/212/5 186/213/5 184/214/5
f 134/167/2 136/215/2 168/216/2 166/217/2
f 143/218/1 141/174/1 173/219/1 175/220/1
f 142/179/2 144/221/2 176/222/2 174/223/2
f 151/201/3 149/182/3 181/224/3 183/202/3
f 133/205/1 130/225/1 162/226/1 165/206/1
f 150/165/5 152/164/5 184/214/5 182/227/5
f 131/168/2 134/167/2 166/217/2 163/228/2
f 158/171/5 160/170/5 192/229/5 190/230/5
f 141/174/1 139/173/1 171/231/1 173/219/1
f 159/177/3 157/176/3 189/232/3 191/233/3
f 140/180/2 142/179/2 174/223/2 172/234/2
f 101/192/1 98/153/1 130/225/1 133/205/1
f 119/193/3 117/133/3 149/182/3 151/201/3
f 110/178/2 112/194/2 144/221/2 142/179/2
f 111/195/1 109/172/1 141/174/1 143/218/1
f 102/166/2 104/157/2 136/215/2 134/167/2
f 120/163/5 122/156/5 154/212/5 152/164/5
f 114/197/5 113/196/5 145/209/5 146/208/5
f 103/155/1 101/192/1 133/205/1 135/204/1
f 121/154/3 119/193/3 151/201/3 153/200/3
f 112/194/2 114/198/2 146/235/2 144/221/2
f 113/199/1 111/195/1 143/218/1 145/236/1
f 104/157/2 106/152/2 138/191/2 136/215/2
f 122/156/5 124/149/5 156/190/5 154/212/5
f 105/146/1 103/155/1 135/204/1 137/189/1
f 123/144/3 121/154/3 153/200/3 155/188/3
f 98/153/5 116/142/5 148/187/5 130/225/5
f 115/132/3 97/135/3 129/184/3 147/181/3
f 179/237/3 161/238/3 193/239/3 211/240/3
f 162/226/5 180/241/5 212/242/5 194/243/5
f 187/244/3 185/203/3 217/245/3 219/246/3
f 169/247/1 167/207/1 199/248/1 201/249/1
f 186/213/5 188/250/5 220/251/5 218/252/5
f 168/216/2 170/253/2 202/254/2 200/255/2
f 177/256/1 175/220/1 207/257/1 209/258/1
f 176/222/2 178/259/2 210/260/2 208/261/2
f 185/203/3 183/202/3 215/262/3 217/245/3
f 167/207/1 165/206/1 197/263/1 199/248/1
f 178/211/5 177/210/5 209/264/5 210/265/5
f 184/214/5 186/213/5 218/252/5 216/266/5
f 166/217/2 168/216/2 200/255/2 198/267/2
f 175/220/1 173/219/1 205/268/1 207/257/1
f 174/223/2 176/222/2 208/261/2 206/269/2
f 144/221/2 146/235/2 178/259/2 176/222/2
f 145/236/1 143/218/1 175/220/1 177/256/1
f 136/215/2 138/191/2 170/253/2 168/216/2
f 154/212/5 156/190/5 188/250/5 186/213/5
f 137/189/1 135/204/1 167/207/1 169/247/1
f 155/188/3 153/200/3 185/203/3 187/244/3
f 130/225/5 148/187/5 180/241/5 162/226/5
f 147/181/3 129/184/3 161/238/3 179/237/3
f 138/191/2 140/180/2 172/234/2 170/253/2
f 156/190/5 158/171/5 190/230/5 188/250/5
f 139/173/1 137/189/1 169/247/1 171/231/1
f 157/176/3 155/188/3 187/244/3 189/232/3
f 132/183/2 131/168/2 163/228/2 164/270/2
f 148/187/5 150/165/5 182/227/5 180/241/5
f 160/186/1 159/185/1 191/271/1 192/272/1
f 129/184/3 132/183/3 164/270/3 161/238/3
f 149/182/3 147/181/3 179/237/3 181/224/3
f 193/273/6 194/274/6 212/275/6 211/276/6
f 195/277/6 194/274/6 193/273/6 196/278/6
f 194/274/6 195/277/6 198/279/6 197/280/6
f 197/280/6 198/279/6 200/281/6 199/282/6
f 201/283/6 202/284/6 204/285/6 203/286/6
f 199/282/6 200/281/6 202/284/6 201/283/6
f 205/287/6 206/288/6 208/289/6 207/290/6
f 203/286/6 204/285/6 206/288/6 205/287/6
f 207/290/6 208/289/6 210/291/6 209/292/6
f 211/276/6 212/275/6 214/293/6 213/294/6
f 213/294/6 214/293/6 216/295/6 215/296/6
f 217/297/6 218/298/6 220/299/6 219/300/6
f 215/296/6 216/295/6 218/298/6 217/297/6
f 219/300/6 220/299/6 222/301/6 221/302/6
f 221/302/6 222/301/6 224/303/6 223/304/6
f 170/253/2 172/234/2 204/305/2 202/254/2
f 188/250/5 190/230/5 222/306/5 220/251/5
f 171/231/1 169/247/1 201/249/1 203/307/1
f 189/232/3 187/244/3 219/246/3 221/308/3
f 164/270/2 163/228/2 195/309/2 196/310/2
f 180/241/5 182/227/5 214/311/5 212/242/5
f 192/272/1 191/271/1 223/312/1 224/313/1
f 161/238/3 164/270/3 196/310/3 193/239/3
f 181/224/3 179/237/3 211/240/3 213/314/3
f 172/234/2 174/223/2 206/269/2 204/305/2
f 191/233/3 189/232/3 221/308/3 223/315/3
f 173/219/1 171/231/1 203/307/1 205/268/1
f 190/230/5 192/229/5 224/316/5 222/306/5
f 163/228/2 166/217/2 198/267/2 195/309/2
f 182/227/5 184/214/5 216/266/5 214/311/5
f 165/206/1 162/226/1 194/243/1 197/263/1
f 183/202/3 181/224/3 213/314/3 215/262/3
