# Blender v2.83.4 OBJ File: 'buildings.blend'
# www.blender.org
mtllib door.mtl
o door_Cube.009
v -0.164653 1.000000 -3.000000
v -0.164653 3.000000 -3.000000
v -0.164653 1.000000 -5.000000
v -0.164653 3.000000 -5.000000
v 0.321652 1.000000 -3.000000
v 0.321652 3.000000 -3.000000
v 0.321652 1.000000 -5.000000
v 0.321652 3.000000 -5.000000
v -0.164653 5.000000 -3.000000
v -0.164653 5.000000 -5.000000
v 0.321652 5.000000 -5.000000
v 0.321652 5.000000 -3.000000
v -0.164653 2.000000 -3.000000
v -0.164653 2.000000 -5.000000
v 0.321652 2.000000 -5.000000
v 0.321652 2.000000 -3.000000
v -0.164653 2.500000 -3.000000
v -0.164653 2.500000 -5.000000
v 0.321652 2.500000 -5.000000
v 0.321652 2.500000 -3.000000
v 0.321652 4.000000 -3.000000
v -0.164653 4.000000 -3.000000
v -0.164653 4.000000 -5.000000
v 0.321652 4.000000 -5.000000
v -0.164653 3.500000 -3.000000
v 0.321652 3.500000 -5.000000
v 0.321652 3.500000 -3.000000
v -0.164653 3.500000 -5.000000
v -0.164653 3.250000 -3.000000
v 0.321652 3.250000 -5.000000
v 0.321652 3.250000 -3.000000
v -0.164653 3.250000 -5.000000
v -0.164653 2.750000 -3.000000
v -0.164653 2.750000 -5.000000
v 0.321652 2.750000 -5.000000
v 0.321652 2.750000 -3.000000
v -0.164653 1.000000 -4.000000
v -0.164653 3.000000 -4.000000
v 0.321652 1.000000 -4.000000
v 0.321652 3.000000 -4.000000
v -0.164653 5.000000 -4.000000
v 0.321652 5.000000 -4.000000
v 0.321652 2.000000 -4.000000
v -0.164653 2.000000 -4.000000
v 0.321652 2.500000 -4.000000
v -0.164653 2.500000 -4.000000
v -0.164653 4.000000 -4.000000
v 0.321652 4.000000 -4.000000
v 0.321652 3.500000 -4.000000
v -0.164653 3.500000 -4.000000
v -0.164653 3.250000 -4.000000
v 0.321652 3.250000 -4.000000
v 0.321652 2.750000 -4.000000
v -0.164653 2.750000 -4.000000
v -0.164970 3.001740 -4.500161
v 0.321652 1.000000 -4.500000
v -0.164653 5.000000 -4.500000
v -0.164653 2.000000 -4.500000
v -0.164653 2.500000 -4.500000
v -0.164653 4.000000 -4.500000
v -0.164653 3.500000 -4.500000
v -0.164653 3.250000 -4.500000
v -0.164970 2.751740 -4.500161
v -0.164653 1.000000 -4.500000
v 0.321652 3.000000 -4.500000
v 0.321652 5.000000 -4.500000
v 0.321652 2.000000 -4.500000
v 0.321652 2.500000 -4.500000
v 0.321652 4.000000 -4.500000
v 0.321652 3.500000 -4.500000
v 0.321652 3.250000 -4.500000
v 0.321652 2.750000 -4.500000
v -0.164970 3.001740 -4.750161
v 0.321652 1.000000 -4.750000
v -0.164653 5.000000 -4.750000
v -0.164653 2.000000 -4.750000
v -0.164653 2.500000 -4.750000
v -0.164653 4.000000 -4.750000
v -0.164653 3.500000 -4.750000
v -0.164653 3.250000 -4.750000
v -0.164970 2.751740 -4.750161
v -0.164653 1.000000 -4.750000
v 0.321652 3.000000 -4.750000
v 0.321652 5.000000 -4.750000
v 0.321652 2.000000 -4.750000
v 0.321652 2.500000 -4.750000
v 0.321652 4.000000 -4.750000
v 0.321652 3.500000 -4.750000
v 0.321652 3.250000 -4.750000
v 0.321652 2.750000 -4.750000
v 0.428431 3.000000 -4.750000
v 0.428431 3.000000 -4.500000
v 0.428431 2.750000 -4.750000
v 0.428431 2.750000 -4.500000
v 0.448256 2.937973 -4.795878
v 0.448256 2.812027 -4.795878
v 0.499943 2.937973 -4.820000
v 0.499943 2.812027 -4.820000
v 0.448256 2.937973 -4.454122
v 0.448256 2.812027 -4.454122
v 0.499943 2.937973 -4.430000
v 0.499943 2.812027 -4.430000
v 0.448256 3.045878 -4.687973
v 0.448256 3.045878 -4.562027
v 0.499943 3.070000 -4.687973
v 0.499943 3.070000 -4.562027
v 0.454865 3.037838 -4.787838
v 0.499943 3.045878 -4.795878
v 0.499943 3.045878 -4.454122
v 0.454865 3.037838 -4.462162
v 0.448256 2.704122 -4.687973
v 0.448256 2.704122 -4.562027
v 0.499943 2.680000 -4.687973
v 0.499943 2.680000 -4.562027
v 0.499943 2.704122 -4.795878
v 0.454865 2.712162 -4.787838
v 0.499943 2.704122 -4.454122
v 0.454865 2.712162 -4.462162
v 0.584064 2.937973 -4.687973
v 0.584064 2.937973 -4.562027
v 0.584064 2.812027 -4.687973
v 0.584064 2.812027 -4.562027
v 0.538991 2.712162 -4.787838
v 0.550259 2.812027 -4.795878
v 0.550259 2.704122 -4.687973
v 0.550259 2.937973 -4.454122
v 0.538991 3.037838 -4.462162
v 0.550259 2.937973 -4.795878
v 0.550259 2.812027 -4.454122
v 0.550259 3.045878 -4.687973
v 0.550259 3.045878 -4.562027
v 0.538991 3.037838 -4.787838
v 0.550259 2.704122 -4.562027
v 0.538991 2.712162 -4.462162
v -0.272066 2.753480 -4.750321
v -0.272066 2.753480 -4.500321
v -0.272066 3.003480 -4.750321
v -0.272066 3.003480 -4.500321
v -0.291892 2.815507 -4.796199
v -0.291892 2.941453 -4.796199
v -0.343578 2.815507 -4.820321
v -0.343578 2.941453 -4.820321
v -0.291892 2.815507 -4.454443
v -0.291892 2.941453 -4.454443
v -0.343578 2.815507 -4.430321
v -0.343578 2.941453 -4.430321
v -0.291892 2.707602 -4.688294
v -0.291892 2.707602 -4.562348
v -0.343578 2.683481 -4.688294
v -0.343578 2.683481 -4.562348
v -0.298500 2.715643 -4.788159
v -0.343578 2.707602 -4.796199
v -0.343578 2.707602 -4.454443
v -0.298500 2.715642 -4.462483
v -0.291892 3.049359 -4.688294
v -0.291892 3.049359 -4.562348
v -0.343578 3.073481 -4.688294
v -0.343578 3.073481 -4.562348
v -0.343578 3.049359 -4.796199
v -0.298500 3.041318 -4.788159
v -0.343578 3.049359 -4.454443
v -0.298500 3.041318 -4.462483
v -0.427699 2.815507 -4.688294
v -0.427699 2.815507 -4.562348
v -0.427699 2.941453 -4.688294
v -0.427699 2.941453 -4.562348
v -0.382626 3.041318 -4.788159
v -0.393894 2.941453 -4.796199
v -0.393894 3.049359 -4.688294
v -0.393894 2.815507 -4.454443
v -0.382626 2.715642 -4.462483
v -0.393894 2.815507 -4.796199
v -0.393894 2.941453 -4.454443
v -0.393894 2.707602 -4.688294
v -0.393894 2.707602 -4.562348
v -0.382626 2.715643 -4.788159
v -0.393894 3.049359 -4.562348
v -0.382626 3.041318 -4.462483
vt 0.435698 0.338934
vt 0.435698 0.387272
vt 0.387390 0.386936
vt 0.387390 0.338597
vt 0.868582 0.338597
vt 0.868582 0.386936
vt 0.774553 0.386936
vt 0.774553 0.338597
vt 0.193582 0.338597
vt 0.193582 0.386936
vt 0.000227 0.386936
vt 0.000227 0.338597
vt 0.435274 0.868128
vt 0.386936 0.868128
vt 0.386936 0.774099
vt 0.435274 0.774099
vt 0.869037 0.580744
vt 0.963066 0.580744
vt 0.963066 0.774099
vt 0.869037 0.774099
vt 0.193581 0.774099
vt 0.193581 0.868128
vt 0.000227 0.868128
vt 0.000227 0.774099
vt 0.963066 0.193581
vt 0.869037 0.193581
vt 0.869037 0.000227
vt 0.963066 0.000227
vt 0.774553 0.580290
vt 0.868582 0.580290
vt 0.868582 0.773644
vt 0.774553 0.773644
vt 0.338597 0.580290
vt 0.386936 0.580290
vt 0.386936 0.773644
vt 0.338597 0.773644
vt 0.580744 0.580290
vt 0.774099 0.580290
vt 0.774099 0.773644
vt 0.580744 0.773644
vt 0.773644 0.868128
vt 0.580290 0.868128
vt 0.580290 0.774099
vt 0.773644 0.774099
vt 0.193582 0.000227
vt 0.193582 0.193582
vt 0.000227 0.193582
vt 0.000227 0.000227
vt 0.868582 0.000227
vt 0.868582 0.193581
vt 0.774553 0.193581
vt 0.774553 0.000227
vt 0.435729 0.000227
vt 0.435729 0.193582
vt 0.387390 0.193582
vt 0.387390 0.000227
vt 0.483613 0.868128
vt 0.483613 0.774099
vt 0.193582 0.290259
vt 0.000227 0.290259
vt 0.868582 0.290259
vt 0.774553 0.290259
vt 0.435729 0.290259
vt 0.387390 0.290259
vt 0.580744 0.483613
vt 0.774099 0.483613
vt 0.338597 0.483613
vt 0.386936 0.483613
vt 0.774553 0.483613
vt 0.868582 0.483613
vt 0.290259 0.774099
vt 0.290259 0.868128
vt 0.338597 0.774099
vt 0.338597 0.868128
vt 0.774553 0.435274
vt 0.868582 0.435274
vt 0.338597 0.435274
vt 0.386936 0.435274
vt 0.580744 0.435274
vt 0.774099 0.435274
vt 0.580744 0.386936
vt 0.774099 0.386936
vt 0.338597 0.386936
vt 0.386936 0.386936
vt 0.774099 0.290259
vt 0.774099 0.338597
vt 0.580744 0.338597
vt 0.580744 0.290259
vt 0.290259 0.290259
vt 0.290259 0.338597
vt 0.193582 0.435274
vt 0.000227 0.435274
vt 0.484036 0.387272
vt 0.484067 0.435274
vt 0.484067 0.483613
vt 0.193582 0.483613
vt 0.000227 0.483613
vt 0.193582 0.580290
vt 0.000227 0.580290
vt 0.484067 0.580290
vt 0.774099 0.193582
vt 0.580744 0.193582
vt 0.290259 0.193582
vt 0.774099 0.000227
vt 0.580744 0.000227
vt 0.290259 0.000227
vt 0.484067 0.773644
vt 0.193582 0.773644
vt 0.000227 0.773644
vt 0.963066 0.290259
vt 0.869037 0.290259
vt 0.869037 0.484067
vt 0.963066 0.484067
vt 0.290259 0.386936
vt 0.133631 0.994226
vt 0.133631 0.868600
vt 0.169777 0.904237
vt 0.169271 0.958076
vt 0.869037 0.435729
vt 0.963066 0.435729
vt 0.963066 0.338597
vt 0.869037 0.338597
vt 0.435729 0.580290
vt 0.435729 0.773644
vt 0.338597 0.000227
vt 0.338597 0.193582
vt 0.338597 0.290259
vt 0.435729 0.483613
vt 0.435729 0.435274
vt 0.338597 0.338597
vt 0.484036 0.338934
vt 0.484067 0.290259
vt 0.290259 0.435274
vt 0.290259 0.483613
vt 0.290259 0.580290
vt 0.484067 0.193582
vt 0.484067 0.000227
vt 0.290259 0.773644
vt 0.386936 0.290259
vt 0.386936 0.338597
vt 0.387390 0.435274
vt 0.387390 0.483613
vt 0.387390 0.580290
vt 0.386936 0.193582
vt 0.386936 0.000227
vt 0.387390 0.773644
vt 0.963066 0.386936
vt 0.869037 0.386936
vt 0.869037 0.387390
vt 0.963066 0.387390
vt 0.223615 0.904733
vt 0.223109 0.958571
vt 0.216972 0.939061
vt 0.218495 0.925359
vt 0.259254 0.994209
vt 0.259254 0.868582
vt 0.183924 0.942945
vt 0.180182 0.935881
vt 0.184628 0.935224
vt 0.185786 0.941152
vt 0.211947 0.916950
vt 0.204105 0.910874
vt 0.190404 0.909354
vt 0.181065 0.925605
vt 0.185254 0.926577
vt 0.211820 0.937203
vt 0.212703 0.926928
vt 0.207978 0.943918
vt 0.200912 0.947661
vt 0.200253 0.943214
vt 0.206185 0.942055
vt 0.207631 0.936231
vt 0.208257 0.927585
vt 0.174390 0.937449
vt 0.175914 0.923747
vt 0.184907 0.918890
vt 0.186701 0.920754
vt 0.180939 0.945858
vt 0.202482 0.953454
vt 0.188780 0.951934
vt 0.190637 0.946784
vt 0.210893 0.946903
vt 0.202249 0.916024
vt 0.208962 0.919864
vt 0.207100 0.921656
vt 0.201280 0.920212
vt 0.191974 0.915147
vt 0.181993 0.915905
vt 0.191606 0.942596
vt 0.200737 0.927583
vt 0.200249 0.935680
vt 0.192148 0.935225
vt 0.192637 0.927128
vt 0.192633 0.919595
vt 0.133177 0.988491
vt 0.014684 0.999773
vt 0.047725 0.961344
vt 0.099738 0.958569
vt 0.044300 0.908432
vt 0.097658 0.906123
vt 0.078793 0.913176
vt 0.065210 0.912402
vt 0.133177 0.869053
vt 0.000227 0.868582
vt 0.084381 0.945285
vt 0.077734 0.949323
vt 0.076836 0.945040
vt 0.082536 0.943576
vt 0.057276 0.919362
vt 0.051791 0.927500
vt 0.051263 0.941039
vt 0.067693 0.949084
vt 0.068382 0.944948
vt 0.077243 0.918337
vt 0.067084 0.918031
vt 0.084040 0.921751
vt 0.088076 0.928474
vt 0.083761 0.929354
vt 0.082308 0.923607
vt 0.076518 0.922504
vt 0.067987 0.922373
vt 0.079596 0.954849
vt 0.066204 0.954205
vt 0.060919 0.945766
vt 0.062620 0.943901
vt 0.087370 0.948017
vt 0.093665 0.926642
vt 0.092858 0.940085
vt 0.087752 0.938548
vt 0.086815 0.918734
vt 0.056985 0.928989
vt 0.060341 0.922135
vt 0.062221 0.923862
vt 0.061162 0.929675
vt 0.056809 0.939117
vt 0.058203 0.948791
vt 0.083621 0.937830
vt 0.068427 0.929758
vt 0.076388 0.929770
vt 0.076403 0.937713
vt 0.068470 0.937712
vt 0.061111 0.938185
vn -1.0000 0.0000 -0.0013
vn 0.0000 0.0000 -1.0000
vn 1.0000 0.0000 0.0000
vn 0.0000 0.0000 1.0000
vn 0.0000 -1.0000 0.0000
vn 0.0000 1.0000 0.0000
vn -1.0000 0.0000 0.0000
vn -1.0000 -0.0006 -0.0006
vn -1.0000 0.0006 0.0003
vn -1.0000 0.0013 0.0000
vn -1.0000 -0.0006 0.0003
vn -1.0000 0.0000 0.0006
vn -1.0000 0.0006 -0.0006
vn -1.0000 -0.0013 0.0000
vn -0.9180 0.0000 -0.3967
vn 0.3470 0.1618 0.9238
vn -0.8966 -0.3132 -0.3132
vn -0.9180 -0.3967 0.0000
vn 0.4323 0.0000 0.9017
vn -0.4229 0.0000 -0.9062
vn 0.3470 0.9238 -0.1618
vn 0.4323 0.0000 -0.9017
vn 0.3470 0.1618 -0.9238
vn -0.4229 0.0000 0.9062
vn 0.3470 -0.1618 0.9238
vn -0.3232 0.1548 0.9336
vn -0.9180 0.0000 0.3967
vn -0.4229 0.9062 0.0000
vn -0.3232 0.9336 -0.1548
vn -0.3232 0.9336 0.1548
vn 0.3470 -0.9238 -0.1618
vn -0.9180 0.3967 0.0000
vn -0.8966 0.3132 0.3132
vn -0.8966 0.3132 -0.3132
vn -0.3232 0.1548 -0.9336
vn -0.4229 -0.9062 0.0000
vn -0.3232 -0.9336 0.1548
vn -0.3232 -0.9336 -0.1548
vn -0.3232 -0.1548 -0.9336
vn 0.3470 -0.1618 -0.9238
vn -0.3232 -0.1548 0.9336
vn 0.3470 0.9238 0.1618
vn -0.8966 -0.3132 0.3132
vn 0.9543 0.2990 0.0000
vn 0.9527 0.2150 0.2150
vn 0.9527 -0.2150 -0.2150
vn 0.9543 0.0000 -0.2990
vn 0.9543 0.0000 0.2990
vn 0.9527 0.2150 -0.2150
vn 0.9527 -0.2150 0.2150
vn 0.9543 -0.2990 0.0000
vn 0.4323 -0.9017 0.0000
vn 0.3470 -0.9238 0.1618
vn 0.4323 0.9017 0.0000
vn -0.0015 -0.0000 1.0000
vn 0.9180 0.0000 -0.3967
vn -0.0162 -0.9999 0.0000
vn 0.0015 0.0000 -1.0000
vn 0.0162 0.9999 0.0000
vn -0.3470 -0.1618 0.9238
vn 0.8966 0.3132 -0.3132
vn 0.9180 0.3967 0.0000
vn -0.4323 0.0000 0.9017
vn 0.4229 0.0000 -0.9062
vn -0.3470 -0.9238 -0.1618
vn -0.4323 0.0000 -0.9017
vn -0.3470 -0.1618 -0.9238
vn 0.4229 0.0000 0.9062
vn -0.3470 0.1618 0.9238
vn 0.3232 -0.1548 0.9336
vn 0.9180 0.0000 0.3967
vn 0.4229 -0.9062 0.0000
vn 0.3232 -0.9336 -0.1548
vn 0.3232 -0.9336 0.1548
vn -0.3470 0.9238 -0.1618
vn 0.9180 -0.3967 0.0000
vn 0.8966 -0.3132 0.3132
vn 0.8966 -0.3132 -0.3132
vn 0.3232 -0.1548 -0.9336
vn 0.4229 0.9062 0.0000
vn 0.3232 0.9336 0.1548
vn 0.3232 0.9336 -0.1548
vn 0.3232 0.1548 -0.9336
vn -0.3470 0.1618 -0.9238
vn 0.3232 0.1548 0.9336
vn -0.3470 -0.9238 0.1618
vn 0.8966 0.3132 0.3132
vn -0.9543 -0.2990 0.0000
vn -0.9527 -0.2150 0.2150
vn -0.9527 0.2150 -0.2150
vn -0.9543 0.0000 -0.2990
vn -0.9543 0.0000 0.2990
vn -0.9527 -0.2150 -0.2150
vn -0.9527 0.2150 0.2150
vn -0.9543 0.2990 0.0000
vn -0.4323 0.9017 0.0000
vn -0.3470 0.9238 0.1618
vn -0.4323 -0.9017 0.0000
usemtl Material.005
s off
f 81/1/1 73/2/1 4/3/1 34/4/1
f 34/5/2 4/6/2 8/7/2 35/8/2
f 53/9/3 40/10/3 6/11/3 36/12/3
f 36/13/4 6/14/4 2/15/4 33/16/4
f 37/17/5 39/18/5 5/19/5 1/20/5
f 22/21/4 21/22/4 12/23/4 9/24/4
f 42/25/6 41/26/6 9/27/6 12/28/6
f 24/29/2 23/30/2 10/31/2 11/32/2
f 87/33/3 24/34/3 11/35/3 84/36/3
f 47/37/7 22/38/7 9/39/7 41/40/7
f 5/41/4 16/42/4 13/43/4 1/44/4
f 39/45/3 43/46/3 16/47/3 5/48/3
f 3/49/2 14/50/2 15/51/2 7/52/2
f 82/53/7 76/54/7 14/55/7 3/56/7
f 16/42/4 20/57/4 17/58/4 13/43/4
f 43/46/3 45/59/3 20/60/3 16/47/3
f 14/50/2 18/61/2 19/62/2 15/51/2
f 76/54/7 77/63/7 18/64/7 14/55/7
f 50/65/7 25/66/7 22/38/7 47/37/7
f 88/67/3 26/68/3 24/34/3 87/33/3
f 26/69/2 28/70/2 23/30/2 24/29/2
f 25/71/4 27/72/4 21/22/4 22/21/4
f 29/73/4 31/74/4 27/72/4 25/71/4
f 30/75/2 32/76/2 28/70/2 26/69/2
f 89/77/3 30/78/3 26/68/3 88/67/3
f 51/79/7 29/80/7 25/66/7 50/65/7
f 38/81/7 2/82/7 29/80/7 51/79/7
f 83/83/3 8/84/3 30/78/3 89/77/3
f 8/7/2 4/6/2 32/76/2 30/75/2
f 2/15/4 6/14/4 31/74/4 29/73/4
f 20/57/4 36/13/4 33/16/4 17/58/4
f 45/59/3 53/9/3 36/12/3 20/60/3
f 18/61/2 34/5/2 35/8/2 19/62/2
f 77/63/8 81/1/8 34/4/8 18/64/8
f 17/85/7 33/86/7 54/87/7 46/88/7
f 68/89/3 72/90/3 53/9/3 45/59/3
f 6/11/3 40/10/3 52/91/3 31/92/3
f 55/93/9 38/81/9 51/79/9 62/94/9
f 62/94/7 51/79/7 50/65/7 61/95/7
f 31/92/3 52/91/3 49/96/3 27/97/3
f 27/97/3 49/96/3 48/98/3 21/99/3
f 61/95/7 50/65/7 47/37/7 60/100/7
f 13/101/7 17/85/7 46/88/7 44/102/7
f 67/103/3 68/89/3 45/59/3 43/46/3
f 1/104/7 13/101/7 44/102/7 37/105/7
f 56/106/3 67/103/3 43/46/3 39/45/3
f 60/100/7 47/37/7 41/40/7 57/107/7
f 21/99/3 48/98/3 42/108/3 12/109/3
f 66/110/6 57/111/6 41/26/6 42/25/6
f 64/112/5 56/113/5 39/18/5 37/17/5
f 72/90/3 65/114/3 40/10/3 53/9/3
f 33/86/7 2/82/7 38/81/7 54/87/7
f 65/115/4 72/116/4 94/117/4 92/118/4
f 82/119/5 74/120/5 56/113/5 64/112/5
f 84/121/6 75/122/6 57/111/6 66/110/6
f 78/123/7 60/100/7 57/107/7 75/124/7
f 74/125/3 85/126/3 67/103/3 56/106/3
f 85/126/3 86/127/3 68/89/3 67/103/3
f 79/128/7 61/95/7 60/100/7 78/123/7
f 80/129/7 62/94/7 61/95/7 79/128/7
f 73/2/10 55/93/10 62/94/10 80/129/10
f 86/127/3 90/130/3 72/90/3 68/89/3
f 46/88/11 54/87/11 63/131/11 59/132/11
f 40/10/3 65/114/3 71/133/3 52/91/3
f 52/91/3 71/133/3 70/134/3 49/96/3
f 49/96/3 70/134/3 69/135/3 48/98/3
f 44/102/7 46/88/7 59/132/7 58/136/7
f 37/105/7 44/102/7 58/136/7 64/137/7
f 48/98/3 69/135/3 66/138/3 42/108/3
f 54/87/12 38/81/12 55/93/12 63/131/12
f 19/139/3 35/140/3 90/130/3 86/127/3
f 4/3/13 73/2/13 80/129/13 32/141/13
f 32/141/7 80/129/7 79/128/7 28/142/7
f 28/142/7 79/128/7 78/123/7 23/143/7
f 15/144/3 19/139/3 86/127/3 85/126/3
f 7/145/3 15/144/3 85/126/3 74/125/3
f 23/143/7 78/123/7 75/124/7 10/146/7
f 11/147/6 10/148/6 75/122/6 84/121/6
f 3/149/5 7/150/5 74/120/5 82/119/5
f 35/140/3 8/84/3 83/83/3 90/130/3
f 59/132/14 63/131/14 81/1/14 77/63/14
f 65/114/3 83/83/3 89/77/3 71/133/3
f 71/133/3 89/77/3 88/67/3 70/134/3
f 70/134/3 88/67/3 87/33/3 69/135/3
f 58/136/7 59/132/7 77/63/7 76/54/7
f 64/137/7 58/136/7 76/54/7 82/53/7
f 69/135/3 87/33/3 84/36/3 66/138/3
f 93/151/15 91/152/15 95/153/15 96/154/15
f 83/155/6 65/115/6 92/118/6 91/152/6
f 90/156/2 83/155/2 91/152/2 93/151/2
f 72/116/5 90/156/5 93/151/5 94/117/5
f 109/157/16 101/158/16 126/159/16 127/160/16
f 93/151/17 96/154/17 116/161/17 111/162/17
f 94/117/18 93/151/18 111/162/18 112/163/18
f 101/158/19 102/164/19 129/165/19 126/159/19
f 96/154/20 95/153/20 97/166/20 98/167/20
f 108/168/21 105/169/21 130/170/21 132/171/21
f 98/167/22 97/166/22 128/172/22 124/173/22
f 97/166/23 108/168/23 132/171/23 128/172/23
f 99/174/24 100/175/24 102/164/24 101/158/24
f 102/164/25 117/176/25 134/177/25 129/165/25
f 99/174/26 101/158/26 109/157/26 110/178/26
f 92/118/27 94/117/27 100/175/27 99/174/27
f 103/179/28 104/180/28 106/181/28 105/169/28
f 103/179/29 105/169/29 108/168/29 107/182/29
f 106/181/30 104/180/30 110/178/30 109/157/30
f 113/183/31 115/184/31 123/185/31 125/186/31
f 91/152/32 92/118/32 104/180/32 103/179/32
f 92/118/33 99/174/33 110/178/33 104/180/33
f 95/153/34 91/152/34 103/179/34 107/182/34
f 97/166/35 95/153/35 107/182/35 108/168/35
f 112/163/36 111/162/36 113/183/36 114/187/36
f 112/163/37 114/187/37 117/176/37 118/188/37
f 113/183/38 111/162/38 116/161/38 115/184/38
f 96/154/39 98/167/39 115/184/39 116/161/39
f 115/184/40 98/167/40 124/173/40 123/185/40
f 102/164/41 100/175/41 118/188/41 117/176/41
f 106/181/42 109/157/42 127/160/42 131/189/42
f 100/175/43 94/117/43 112/163/43 118/188/43
f 121/190/3 119/191/3 120/192/3 122/193/3
f 120/192/44 119/191/44 130/170/44 131/189/44
f 126/159/45 120/192/45 131/189/45 127/160/45
f 124/173/46 121/190/46 125/186/46 123/185/46
f 119/191/47 121/190/47 124/173/47 128/172/47
f 122/193/48 120/192/48 126/159/48 129/165/48
f 119/191/49 128/172/49 132/171/49 130/170/49
f 122/193/50 129/165/50 134/177/50 133/194/50
f 121/190/51 122/193/51 133/194/51 125/186/51
f 114/187/52 113/183/52 125/186/52 133/194/52
f 117/176/53 114/187/53 133/194/53 134/177/53
f 105/169/54 106/181/54 131/189/54 130/170/54
f 63/195/55 55/196/55 138/197/55 136/198/55
f 137/199/56 135/200/56 139/201/56 140/202/56
f 81/203/57 63/195/57 136/198/57 135/200/57
f 73/204/58 81/203/58 135/200/58 137/199/58
f 55/196/59 73/204/59 137/199/59 138/197/59
f 153/205/60 145/206/60 170/207/60 171/208/60
f 137/199/61 140/202/61 160/209/61 155/210/61
f 138/197/62 137/199/62 155/210/62 156/211/62
f 145/206/63 146/212/63 173/213/63 170/207/63
f 140/202/64 139/201/64 141/214/64 142/215/64
f 152/216/65 149/217/65 174/218/65 176/219/65
f 142/215/66 141/214/66 172/220/66 168/221/66
f 141/214/67 152/216/67 176/219/67 172/220/67
f 143/222/68 144/223/68 146/212/68 145/206/68
f 146/212/69 161/224/69 178/225/69 173/213/69
f 143/222/70 145/206/70 153/205/70 154/226/70
f 136/198/71 138/197/71 144/223/71 143/222/71
f 147/227/72 148/228/72 150/229/72 149/217/72
f 147/227/73 149/217/73 152/216/73 151/230/73
f 150/229/74 148/228/74 154/226/74 153/205/74
f 157/231/75 159/232/75 167/233/75 169/234/75
f 135/200/76 136/198/76 148/228/76 147/227/76
f 136/198/77 143/222/77 154/226/77 148/228/77
f 139/201/78 135/200/78 147/227/78 151/230/78
f 141/214/79 139/201/79 151/230/79 152/216/79
f 156/211/80 155/210/80 157/231/80 158/235/80
f 156/211/81 158/235/81 161/224/81 162/236/81
f 157/231/82 155/210/82 160/209/82 159/232/82
f 140/202/83 142/215/83 159/232/83 160/209/83
f 159/232/84 142/215/84 168/221/84 167/233/84
f 146/212/85 144/223/85 162/236/85 161/224/85
f 150/229/86 153/205/86 171/208/86 175/237/86
f 144/223/87 138/197/87 156/211/87 162/236/87
f 165/238/7 163/239/7 164/240/7 166/241/7
f 164/240/88 163/239/88 174/218/88 175/237/88
f 170/207/89 164/240/89 175/237/89 171/208/89
f 168/221/90 165/238/90 169/234/90 167/233/90
f 163/239/91 165/238/91 168/221/91 172/220/91
f 166/241/92 164/240/92 170/207/92 173/213/92
f 163/239/93 172/220/93 176/219/93 174/218/93
f 166/241/94 173/213/94 178/225/94 177/242/94
f 165/238/95 166/241/95 177/242/95 169/234/95
f 158/235/96 157/231/96 169/234/96 177/242/96
f 161/224/97 158/235/97 177/242/97 178/225/97
f 149/217/98 150/229/98 175/237/98 174/218/98
