# Blender v2.83.4 OBJ File: 'buildings.blend'
# www.blender.org
mtllib loading_door.mtl
o right_door_Plane.001
v -0.000000 6.000000 0.000000
v 0.000000 0.000000 0.000000
v -0.000000 6.000000 -4.000000
v 0.000000 0.000000 -4.000000
v 0.334038 6.000000 -4.000000
v 0.334038 6.000000 0.000000
v 0.334038 0.000000 0.000000
v 0.334038 0.000000 -4.000000
vt 0.397202 0.500129
vt 0.730363 0.500129
vt 0.730363 0.999871
vt 0.397202 0.999871
vt 0.730363 0.000129
vt 0.730363 0.499871
vt 0.397202 0.499871
vt 0.397202 0.000129
vt 0.361199 0.536462
vt 0.366865 0.069343
vt 0.396943 0.034213
vt 0.396943 0.570587
vt 0.035874 0.034255
vt 0.030208 0.501373
vt 0.000129 0.536503
vt 0.000129 0.000129
vn -1.0000 -0.0000 0.0000
vn 1.0000 0.0000 0.0000
vn 0.0000 0.0000 -1.0000
vn 0.0000 0.0000 1.0000
vn 0.0000 -1.0000 0.0000
vn 0.0000 1.0000 0.0000
usemtl Material.010
s off
f 1/1/1 3/2/1 4/3/1 2/4/1
f 6/5/2 7/6/2 8/7/2 5/8/2
f 4/9/3 3/10/3 5/11/3 8/12/3
f 1/13/4 2/14/4 7/15/4 6/16/4
f 2/14/5 4/9/5 8/12/5 7/15/5
f 3/10/6 1/13/6 6/16/6 5/11/6
