# Blender v2.83.4 OBJ File: 'buildings.blend'
# www.blender.org
mtllib wall_with_door.mtl
o wall_with_door_Cube.008
v -1.000000 -1.000000 1.000000
v -1.000000 1.000000 1.000000
v -1.000000 -1.000000 -1.000000
v -1.000000 1.000000 -1.000000
v 1.000000 -1.000000 1.000000
v 1.000000 1.000000 1.000000
v 1.000000 -1.000000 -1.000000
v 1.000000 1.000000 -1.000000
v -1.000000 1.000000 -3.000000
v -1.000000 -1.000000 -3.000000
v 1.000000 -1.000000 -3.000000
v 1.000000 1.000000 -3.000000
v -1.000000 1.000000 -5.000000
v -1.000000 -1.000000 -5.000000
v 1.000000 -1.000000 -5.000000
v 1.000000 1.000000 -5.000000
v -1.000000 1.000000 -7.000000
v -1.000000 -1.000000 -7.000000
v 1.000000 -1.000000 -7.000000
v 1.000000 1.000000 -7.000000
v -1.000000 1.000000 -9.000000
v -1.000000 -1.000000 -9.000000
v 1.000000 -1.000000 -9.000000
v 1.000000 1.000000 -9.000000
v -1.000000 1.000000 -11.000000
v -1.000000 -1.000000 -11.000000
v 1.000000 -1.000000 -11.000000
v 1.000000 1.000000 -11.000000
v -1.000000 1.000000 -13.000000
v -1.000000 -1.000000 -13.000000
v 1.000000 -1.000000 -13.000000
v 1.000000 1.000000 -13.000000
v -1.000000 1.000000 -15.000000
v -1.000000 -1.000000 -15.000000
v 1.000000 -1.000000 -15.000000
v 1.000000 1.000000 -15.000000
v -1.000000 3.000000 1.000000
v -1.000000 3.000000 -1.000000
v 1.000000 3.000000 -1.000000
v 1.000000 3.000000 1.000000
v -1.000000 3.000000 -3.000000
v 1.000000 3.000000 -3.000000
v -1.000000 3.000000 -5.000000
v 1.000000 3.000000 -5.000000
v -1.000000 3.000000 -7.000000
v 1.000000 3.000000 -7.000000
v -1.000000 3.000000 -9.000000
v 1.000000 3.000000 -9.000000
v -1.000000 3.000000 -11.000000
v 1.000000 3.000000 -11.000000
v -1.000000 3.000000 -13.000000
v 1.000000 3.000000 -13.000000
v -1.000000 3.000000 -15.000000
v 1.000000 3.000000 -15.000000
v -1.000000 5.000000 1.000000
v -1.000000 5.000000 -1.000000
v 1.000000 5.000000 -1.000000
v 1.000000 5.000000 1.000000
v -1.000000 5.000000 -3.000000
v 1.000000 5.000000 -3.000000
v -1.000000 5.000000 -5.000000
v 1.000000 5.000000 -5.000000
v -1.000000 5.000000 -7.000000
v 1.000000 5.000000 -7.000000
v -1.000000 5.000000 -9.000000
v 1.000000 5.000000 -9.000000
v -1.000000 5.000000 -11.000000
v 1.000000 5.000000 -11.000000
v -1.000000 5.000000 -13.000000
v 1.000000 5.000000 -13.000000
v -1.000000 5.000000 -15.000000
v 1.000000 5.000000 -15.000000
v -1.000000 7.000000 1.000000
v -1.000000 7.000000 -1.000000
v 1.000000 7.000000 -1.000000
v 1.000000 7.000000 1.000000
v -1.000000 7.000000 -3.000000
v 1.000000 7.000000 -3.000000
v -1.000000 7.000000 -5.000000
v 1.000000 7.000000 -5.000000
v -1.000000 7.000000 -7.000000
v 1.000000 7.000000 -7.000000
v -1.000000 7.000000 -9.000000
v 1.000000 7.000000 -9.000000
v -1.000000 7.000000 -11.000000
v 1.000000 7.000000 -11.000000
v -1.000000 7.000000 -13.000000
v 1.000000 7.000000 -13.000000
v -1.000000 7.000000 -15.000000
v 1.000000 7.000000 -15.000000
v -1.000000 9.000000 1.000000
v -1.000000 9.000000 -1.000000
v 1.000000 9.000000 -1.000000
v 1.000000 9.000000 1.000000
v -1.000000 9.000000 -3.000000
v 1.000000 9.000000 -3.000000
v -1.000000 9.000000 -5.000000
v 1.000000 9.000000 -5.000000
v -1.000000 9.000000 -7.000000
v 1.000000 9.000000 -7.000000
v -1.000000 9.000000 -9.000000
v 1.000000 9.000000 -9.000000
v -1.000000 9.000000 -11.000000
v 1.000000 9.000000 -11.000000
v -1.000000 9.000000 -13.000000
v 1.000000 9.000000 -13.000000
v -1.000000 9.000000 -15.000000
v 1.000000 9.000000 -15.000000
v -1.000000 11.000000 1.000000
v -1.000000 11.000000 -1.000000
v 1.000000 11.000000 -1.000000
v 1.000000 11.000000 1.000000
v -1.000000 11.000000 -3.000000
v 1.000000 11.000000 -3.000000
v -1.000000 11.000000 -5.000000
v 1.000000 11.000000 -5.000000
v -1.000000 11.000000 -7.000000
v 1.000000 11.000000 -7.000000
v -1.000000 11.000000 -9.000000
v 1.000000 11.000000 -9.000000
v -1.000000 11.000000 -11.000000
v 1.000000 11.000000 -11.000000
v -1.000000 11.000000 -13.000000
v 1.000000 11.000000 -13.000000
v -1.000000 11.000000 -15.000000
v 1.000000 11.000000 -15.000000
v -1.000070 0.999961 -3.011499
v 0.999930 0.999961 -3.011499
v -1.000070 0.999961 -5.011499
v 0.999930 0.999961 -5.011499
vt 0.428065 0.570683
vt 0.356755 0.570683
vt 0.356755 0.499374
vt 0.428065 0.499374
vt 0.000209 0.642410
vt 0.071518 0.642410
vt 0.071518 0.713719
vt 0.000209 0.713719
vt 0.856338 0.071518
vt 0.785029 0.071518
vt 0.785029 0.000209
vt 0.856338 0.000209
vt 0.071518 0.571101
vt 0.000209 0.571101
vt 0.928065 0.071518
vt 0.856755 0.071518
vt 0.856755 0.000209
vt 0.928065 0.000209
vt 0.356755 0.285446
vt 0.356755 0.356755
vt 0.285446 0.356755
vt 0.285446 0.285446
vt 0.429983 0.571317
vt 0.429982 0.642875
vt 0.358424 0.642880
vt 0.358424 0.571310
vt 0.356755 0.428065
vt 0.428065 0.428065
vt 0.856338 0.142827
vt 0.785029 0.142827
vt 0.928065 0.142827
vt 0.856755 0.142827
vt 0.071935 0.642410
vt 0.143244 0.642410
vt 0.143244 0.713719
vt 0.071935 0.713719
vt 0.428065 0.356755
vt 0.856338 0.214137
vt 0.785029 0.214137
vt 0.928065 0.214137
vt 0.856755 0.214137
vt 0.785029 0.285446
vt 0.856338 0.285446
vt 0.856338 0.356755
vt 0.785029 0.356755
vt 0.428065 0.285446
vt 0.928065 0.285446
vt 0.856755 0.285446
vt 0.713719 0.285446
vt 0.713719 0.214137
vt 0.928065 0.356755
vt 0.856755 0.356755
vt 0.285446 0.499374
vt 0.285446 0.428065
vt 0.356755 0.214137
vt 0.428065 0.214137
vt 0.428065 0.142827
vt 0.356755 0.142827
vt 0.356755 0.071518
vt 0.428065 0.071518
vt 0.856338 0.428065
vt 0.785029 0.428065
vt 0.928065 0.428065
vt 0.856755 0.428065
vt 0.785029 0.499374
vt 0.856338 0.499374
vt 0.856338 0.570683
vt 0.785029 0.570683
vt 0.928065 0.499374
vt 0.856755 0.499374
vt 0.285446 0.570683
vt 0.143244 0.571101
vt 0.071935 0.571101
vt 0.928065 0.570683
vt 0.856755 0.570683
vt 0.429984 0.642863
vt 0.358426 0.643086
vt 0.356755 0.000209
vt 0.428065 0.000209
vt 0.713719 0.356755
vt 0.713719 0.428065
vt 0.642410 0.428065
vt 0.642410 0.356755
vt 0.713719 0.000209
vt 0.713719 0.071518
vt 0.642410 0.071518
vt 0.642410 0.000209
vt 0.285446 0.000209
vt 0.285446 0.071518
vt 0.214137 0.071518
vt 0.214137 0.000209
vt 0.358426 0.571101
vt 0.429984 0.571112
vt 0.713719 0.499374
vt 0.713720 0.570683
vt 0.642410 0.570683
vt 0.642410 0.499374
vt 0.285446 0.214137
vt 0.214137 0.285446
vt 0.214137 0.214137
vt 0.214137 0.570683
vt 0.214137 0.499374
vt 0.285446 0.142827
vt 0.713719 0.142827
vt 0.214137 0.356755
vt 0.142827 0.356755
vt 0.142827 0.285446
vt 0.642410 0.214137
vt 0.642410 0.285446
vt 0.571101 0.285446
vt 0.571101 0.214137
vt 0.214137 0.142827
vt 0.142827 0.214137
vt 0.142827 0.142827
vt 0.000209 0.785029
vt 0.071518 0.785029
vt 0.071518 0.856338
vt 0.000209 0.856338
vt 0.571101 0.428065
vt 0.571101 0.356755
vt 0.571101 0.071518
vt 0.571101 0.000209
vt 0.142827 0.071518
vt 0.142827 0.000209
vt 0.214137 0.428065
vt 0.142827 0.428065
vt 0.642410 0.142827
vt 0.143244 0.785029
vt 0.071935 0.785029
vt 0.071518 0.142827
vt 0.071518 0.071518
vt 0.571101 0.142827
vt 0.499791 0.142827
vt 0.499791 0.071518
vt 0.071518 0.356755
vt 0.071518 0.285446
vt 0.499791 0.285446
vt 0.499791 0.214137
vt 0.071518 0.214137
vt 0.071518 0.927647
vt 0.000209 0.927648
vt 0.499791 0.428065
vt 0.499791 0.356755
vt 0.499791 0.000209
vt 0.142827 0.499374
vt 0.571101 0.499374
vt 0.143244 0.856338
vt 0.071935 0.856338
vt 0.142827 0.570683
vt 0.571101 0.570683
vt 0.499791 0.499374
vt 0.428482 0.499374
vt 0.428482 0.428065
vt 0.071518 0.428065
vt 0.071518 0.499374
vt 0.000209 0.499374
vt 0.000209 0.428065
vt 0.000209 0.142827
vt 0.000209 0.071518
vt 0.428482 0.142827
vt 0.428482 0.071518
vt 0.000209 0.356755
vt 0.000209 0.285446
vt 0.428482 0.285446
vt 0.428482 0.214137
vt 0.000209 0.214137
vt 0.071518 0.998957
vt 0.000209 0.998957
vt 0.143244 0.927647
vt 0.071935 0.927647
vt 0.071518 0.570683
vt 0.499791 0.570683
vt 0.071518 0.000209
vt 0.928482 0.071518
vt 0.999791 0.071518
vt 0.999791 0.142827
vt 0.928482 0.142827
vt 0.928482 0.000209
vt 0.999791 0.000209
vt 0.999791 0.214137
vt 0.928482 0.214137
vt 0.999791 0.285446
vt 0.928482 0.285446
vt 0.928482 0.356755
vt 0.999791 0.356755
vt 0.999791 0.428065
vt 0.928482 0.428065
vt 0.999791 0.499374
vt 0.928482 0.499374
vt 0.999791 0.570683
vt 0.928482 0.570683
vt 0.428482 0.356755
vt 0.143244 0.998957
vt 0.071935 0.998957
vt 0.000209 0.570684
vt 0.428482 0.570683
vt 0.000209 0.000209
vt 0.428482 0.000209
vt 0.430401 0.571101
vt 0.501710 0.571101
vt 0.501710 0.642410
vt 0.430401 0.642410
vt 0.358007 0.571101
vt 0.358007 0.642410
vt 0.286697 0.642410
vt 0.286697 0.571101
vt 0.214971 0.642410
vt 0.143662 0.642410
vt 0.143662 0.571101
vt 0.214971 0.571101
vt 0.286697 0.713719
vt 0.358007 0.713719
vt 0.286280 0.642410
vt 0.286280 0.571101
vn -1.0000 0.0000 0.0000
vn 0.0000 0.0000 1.0000
vn 1.0000 0.0000 0.0000
vn 0.0000 -1.0000 0.0000
vn 0.0000 1.0000 0.0000
vn 0.0000 0.0000 -1.0000
vn 0.0000 -1.0000 0.0034
vn 0.0000 1.0000 -0.0034
vn 0.4822 -0.8760 0.0000
vn -0.4822 0.8760 0.0000
usemtl Material.006
s off
f 1/1/1 2/2/1 4/3/1 3/4/1
f 2/5/2 6/6/2 40/7/2 37/8/2
f 7/9/3 8/10/3 6/11/3 5/12/3
f 5/13/2 6/6/2 2/5/2 1/14/2
f 3/15/4 7/16/4 5/17/4 1/18/4
f 17/19/1 13/20/1 43/21/1 45/22/1
f 128/23/5 130/24/5 129/25/5 127/26/5
f 3/4/1 4/3/1 9/27/1 10/28/1
f 8/10/3 7/9/3 11/29/3 12/30/3
f 7/16/4 3/15/4 10/31/4 11/32/4
f 36/33/6 33/34/6 53/35/6 54/36/6
f 10/28/1 9/27/1 13/20/1 14/37/1
f 12/30/3 11/29/3 15/38/3 16/39/3
f 11/32/4 10/31/4 14/40/4 15/41/4
f 20/42/3 19/43/3 23/44/3 24/45/3
f 14/37/1 13/20/1 17/19/1 18/46/1
f 16/39/3 15/38/3 19/43/3 20/42/3
f 15/41/4 14/40/4 18/47/4 19/48/4
f 16/39/3 20/42/3 46/49/3 44/50/3
f 19/48/4 18/47/4 22/51/4 23/52/4
f 9/27/1 4/3/1 38/53/1 41/54/1
f 18/46/1 17/19/1 21/55/1 22/56/1
f 26/57/1 25/58/1 29/59/1 30/60/1
f 22/56/1 21/55/1 25/58/1 26/57/1
f 24/45/3 23/44/3 27/61/3 28/62/3
f 23/52/4 22/51/4 26/63/4 27/64/4
f 32/65/3 31/66/3 35/67/3 36/68/3
f 28/62/3 27/61/3 31/66/3 32/65/3
f 27/64/4 26/63/4 30/69/4 31/70/4
f 4/3/1 2/2/1 37/71/1 38/53/1
f 34/72/6 33/34/6 36/33/6 35/73/6
f 31/70/4 30/69/4 34/74/4 35/75/4
f 16/76/7 13/77/7 129/25/7 130/24/7
f 30/60/1 29/59/1 33/78/1 34/79/1
f 48/80/3 50/81/3 68/82/3 66/83/3
f 40/84/3 39/85/3 57/86/3 58/87/3
f 53/88/1 51/89/1 69/90/1 71/91/1
f 9/92/8 12/93/8 128/23/8 127/26/8
f 52/94/3 54/95/3 72/96/3 70/97/3
f 13/77/9 9/92/9 127/26/9 129/25/9
f 47/98/1 45/22/1 63/99/1 65/100/1
f 38/53/1 37/71/1 55/101/1 56/102/1
f 24/45/3 28/62/3 50/81/3 48/80/3
f 20/42/3 24/45/3 48/80/3 46/49/3
f 29/59/1 25/58/1 49/103/1 51/89/1
f 25/58/1 21/55/1 47/98/1 49/103/1
f 32/65/3 36/68/3 54/95/3 52/94/3
f 21/55/1 17/19/1 45/22/1 47/98/1
f 28/62/3 32/65/3 52/94/3 50/81/3
f 33/78/1 29/59/1 51/89/1 53/88/1
f 6/11/3 8/10/3 39/85/3 40/84/3
f 8/10/3 12/30/3 42/104/3 39/85/3
f 63/99/1 61/105/1 79/106/1 81/107/1
f 62/108/3 64/109/3 82/110/3 80/111/3
f 67/112/1 65/100/1 83/113/1 85/114/1
f 55/115/2 58/116/2 76/117/2 73/118/2
f 66/83/3 68/82/3 86/119/3 84/120/3
f 58/87/3 57/86/3 75/121/3 76/122/3
f 71/91/1 69/90/1 87/123/1 89/124/1
f 61/105/1 59/125/1 77/126/1 79/106/1
f 37/8/2 40/7/2 58/116/2 55/115/2
f 49/103/1 47/98/1 65/100/1 67/112/1
f 44/50/3 46/49/3 64/109/3 62/108/3
f 45/22/1 43/21/1 61/105/1 63/99/1
f 39/85/3 42/104/3 60/127/3 57/86/3
f 51/89/1 49/103/1 67/112/1 69/90/1
f 41/54/1 38/53/1 56/102/1 59/125/1
f 50/81/3 52/94/3 70/97/3 68/82/3
f 46/49/3 48/80/3 66/83/3 64/109/3
f 54/36/6 53/35/6 71/128/6 72/129/6
f 87/123/1 85/114/1 103/130/1 105/131/1
f 75/121/3 78/132/3 96/133/3 93/134/3
f 81/107/1 79/106/1 97/135/1 99/136/1
f 80/111/3 82/110/3 100/137/3 98/138/3
f 85/114/1 83/113/1 101/139/1 103/130/1
f 73/118/2 76/117/2 94/140/2 91/141/2
f 84/120/3 86/119/3 104/142/3 102/143/3
f 76/122/3 75/121/3 93/134/3 94/144/3
f 57/86/3 60/127/3 78/132/3 75/121/3
f 69/90/1 67/112/1 85/114/1 87/123/1
f 59/125/1 56/102/1 74/145/1 77/126/1
f 68/82/3 70/97/3 88/146/3 86/119/3
f 64/109/3 66/83/3 84/120/3 82/110/3
f 72/129/6 71/128/6 89/147/6 90/148/6
f 56/102/1 55/101/1 73/149/1 74/145/1
f 65/100/1 63/99/1 81/107/1 83/113/1
f 60/127/3 62/108/3 80/111/3 78/132/3
f 70/97/3 72/96/3 90/150/3 88/146/3
f 104/142/3 106/151/3 124/152/3 122/153/3
f 95/154/1 92/155/1 110/156/1 113/157/1
f 105/131/1 103/130/1 121/158/1 123/159/1
f 93/134/3 96/133/3 114/160/3 111/161/3
f 99/136/1 97/135/1 115/162/1 117/163/1
f 98/138/3 100/137/3 118/164/3 116/165/3
f 103/130/1 101/139/1 119/166/1 121/158/1
f 91/141/2 94/140/2 112/167/2 109/168/2
f 77/126/1 74/145/1 92/155/1 95/154/1
f 86/119/3 88/146/3 106/151/3 104/142/3
f 82/110/3 84/120/3 102/143/3 100/137/3
f 90/148/6 89/147/6 107/169/6 108/170/6
f 74/145/1 73/149/1 91/171/1 92/155/1
f 83/113/1 81/107/1 99/136/1 101/139/1
f 78/132/3 80/111/3 98/138/3 96/133/3
f 88/146/3 90/150/3 108/172/3 106/151/3
f 79/106/1 77/126/1 95/154/1 97/135/1
f 89/124/1 87/123/1 105/131/1 107/173/1
f 110/174/5 111/175/5 114/176/5 113/177/5
f 111/175/5 110/174/5 109/178/5 112/179/5
f 113/177/5 114/176/5 116/180/5 115/181/5
f 115/181/5 116/180/5 118/182/5 117/183/5
f 119/184/5 120/185/5 122/186/5 121/187/5
f 117/183/5 118/182/5 120/185/5 119/184/5
f 121/187/5 122/186/5 124/188/5 123/189/5
f 123/189/5 124/188/5 126/190/5 125/191/5
f 100/137/3 102/143/3 120/192/3 118/164/3
f 108/170/6 107/169/6 125/193/6 126/194/6
f 92/155/1 91/171/1 109/195/1 110/156/1
f 101/139/1 99/136/1 117/163/1 119/166/1
f 96/133/3 98/138/3 116/165/3 114/160/3
f 106/151/3 108/172/3 126/196/3 124/152/3
f 97/135/1 95/154/1 113/157/1 115/162/1
f 107/173/1 105/131/1 123/159/1 125/197/1
f 94/144/3 93/134/3 111/161/3 112/198/3
f 102/143/3 104/142/3 122/153/3 120/192/3
f 12/93/10 16/76/10 130/24/10 128/23/10
f 60/199/4 59/200/4 61/201/4 62/202/4
f 60/203/6 42/204/6 41/205/6 59/206/6
f 44/207/2 62/208/2 61/209/2 43/210/2
f 9/211/6 41/205/6 42/204/6 12/212/6
f 16/213/2 44/207/2 43/210/2 13/214/2
