# Blender v2.83.4 OBJ File: 'buildings.blend'
# www.blender.org
mtllib wall.mtl
v 1.000000 1.000000 -1.000000
v 1.000000 -1.000000 -1.000000
v 1.000000 1.000000 1.000000
v 1.000000 -1.000000 1.000000
v -1.000000 1.000000 -1.000000
v -1.000000 -1.000000 -1.000000
v -1.000000 1.000000 1.000000
v -1.000000 -1.000000 1.000000
v 1.000000 -1.000000 -1.000000
v -1.000000 -1.000000 -1.000000
v 1.000000 1.000000 -1.000000
v -1.000000 1.000000 -1.000000
v 1.000000 -1.000000 -17.000000
v -1.000000 -1.000000 -17.000000
v 1.000000 1.000000 -17.000000
v -1.000000 1.000000 -17.000000
v 1.000000 10.000000 1.000000
v -1.000000 10.000000 1.000000
v 1.000000 10.000000 -1.000000
v -1.000000 10.000000 -1.000000
v -1.000000 1.000000 -17.000000
v 1.000000 1.000000 -17.000000
v -1.000000 10.000000 -17.000000
v 1.000000 10.000000 -17.000000
vt 0.540768 0.440357
vt 0.595725 0.440357
vt 0.595725 0.687664
vt 0.540768 0.687664
vt 0.000234 0.606164
vt 0.000234 0.551207
vt 0.055191 0.551207
vt 0.055191 0.606164
vt 0.358390 0.495782
vt 0.358390 0.550739
vt 0.303433 0.550739
vt 0.303433 0.495782
vt 0.055659 0.606164
vt 0.055659 0.551207
vt 0.110616 0.551207
vt 0.110616 0.606164
vt 0.358857 0.550739
vt 0.358857 0.495782
vt 0.413814 0.495782
vt 0.413814 0.550739
vt 0.442112 0.901423
vt 0.442357 0.998029
vt 0.440654 0.999766
vt 0.440358 0.899714
vt 0.540300 0.899714
vt 0.440357 0.100176
vt 0.540300 0.100176
vt 0.538117 0.998071
vt 0.538588 0.901435
vt 0.539830 0.999764
vt 0.540300 0.000234
vt 0.440357 0.000234
vt 0.707042 0.000234
vt 0.761999 0.000234
vt 0.761999 0.439890
vt 0.707042 0.439890
vt 0.651149 0.439890
vt 0.596192 0.439890
vt 0.596192 0.000234
vt 0.651149 0.000234
vt 0.595725 0.439890
vt 0.540768 0.439890
vt 0.540768 0.000234
vt 0.595725 0.000234
vt 0.302965 0.495782
vt 0.302965 0.550739
vt 0.248008 0.550739
vt 0.248008 0.495782
vt 0.651617 0.440357
vt 0.706574 0.440357
vt 0.706574 0.687664
vt 0.651617 0.687664
vt 0.651149 0.687664
vt 0.596192 0.687664
vt 0.596192 0.440357
vt 0.651149 0.440357
vt 0.439890 0.000234
vt 0.439890 0.247540
vt 0.000234 0.247540
vt 0.000234 0.000234
vt 0.247540 0.495782
vt 0.247540 0.550739
vt 0.000234 0.550739
vt 0.000234 0.495782
vt 0.651617 0.000234
vt 0.706574 0.000234
vt 0.706574 0.439890
vt 0.651617 0.439890
vt 0.439890 0.248008
vt 0.439890 0.495315
vt 0.000234 0.495315
vt 0.000234 0.248008
vt 0.490303 0.949372
vt 0.490273 0.949402
vn 0.0000 0.0000 1.0000
vn -1.0000 0.0000 0.0000
vn 0.0000 -1.0000 0.0000
vn 1.0000 0.0000 0.0000
vn 0.0000 1.0000 0.0000
vn 0.0000 0.0000 -1.0000
usemtl Material
s off
f 7/1/1 3/2/1 17/3/1 18/4/1
f 4/5/1 3/6/1 7/7/1 8/8/1
f 8/9/2 7/10/2 5/11/2 6/12/2
f 6/13/3 2/14/3 4/15/3 8/16/3
f 2/17/4 1/18/4 3/19/4 4/20/4
f 1/21/1 2/22/1 9/23/1 11/24/1
f 12/25/5 11/24/5 15/26/5 16/27/5
f 6/28/1 5/29/1 12/25/1 10/30/1
f 2/22/1 6/28/1 10/30/1 9/23/1
f 5/29/1 1/21/1 11/24/1 12/25/1
f 14/31/6 16/27/6 15/26/6 13/32/6
f 11/33/4 9/34/4 13/35/4 15/36/4
f 10/37/2 12/38/2 16/39/2 14/40/2
f 9/41/3 10/42/3 14/43/3 13/44/3
f 19/45/5 20/46/5 18/47/5 17/48/5
f 5/49/2 7/50/2 18/51/2 20/52/2
f 3/53/4 1/54/4 19/55/4 17/56/4
f 19/57/4 1/58/4 22/59/4 24/60/4
f 22/61/6 21/62/6 23/63/6 24/64/6
f 20/65/5 19/66/5 24/67/5 23/68/5
f 5/69/2 20/70/2 23/71/2 21/72/2
f 1/21/3 5/29/3 21/73/3 22/74/3
