# Blender v2.83.4 OBJ File: 'buildings.blend'
# www.blender.org
mtllib wall_clock_ang.mtl
o wall_clock_ang_Cylinder.001
v 0.000000 -1.000000 0.500000
v 0.000000 -1.000000 -0.500000
v 0.195090 -0.980785 0.500000
v 0.195090 -0.980785 -0.500000
v 0.382683 -0.923880 0.500000
v 0.382683 -0.923879 -0.500000
v 0.555570 -0.831470 0.500000
v 0.555570 -0.831469 -0.500000
v 0.707107 -0.707107 0.500000
v 0.707107 -0.707107 -0.500000
v 0.831470 -0.555570 0.500000
v 0.831470 -0.555570 -0.500000
v 0.923880 -0.382683 0.500000
v 0.923880 -0.382683 -0.500000
v 0.980785 -0.195090 0.500000
v 0.980785 -0.195090 -0.500000
v 1.000000 -0.000000 0.500000
v 1.000000 0.000000 -0.500000
v 0.980785 0.195090 0.500000
v 0.980785 0.195090 -0.500000
v 0.923880 0.382683 0.500000
v 0.923880 0.382683 -0.500000
v 0.831470 0.555570 0.500000
v 0.831470 0.555570 -0.500000
v 0.707107 0.707107 0.500000
v 0.707107 0.707107 -0.500000
v 0.555570 0.831470 0.500000
v 0.555570 0.831470 -0.500000
v 0.382683 0.923880 0.500000
v 0.382683 0.923880 -0.500000
v 0.195090 0.980785 0.500000
v 0.195090 0.980785 -0.500000
v -0.000000 1.000000 0.500000
v -0.000000 1.000000 -0.500000
v -0.195091 0.980785 0.500000
v -0.195091 0.980785 -0.500000
v -0.382684 0.923879 0.500000
v -0.382684 0.923879 -0.500000
v -0.555571 0.831469 0.500000
v -0.555571 0.831469 -0.500000
v -0.707107 0.707106 0.500000
v -0.707107 0.707106 -0.500000
v -0.831470 0.555570 0.500000
v -0.831470 0.555570 -0.500000
v -0.923880 0.382683 0.500000
v -0.923880 0.382683 -0.500000
v -0.980785 0.195089 0.500000
v -0.980785 0.195090 -0.500000
v -1.000000 0.000000 0.500000
v -0.980785 -0.195091 -0.500000
v -0.980785 -0.195091 0.500000
v -0.923879 -0.382685 0.500000
v -0.923879 -0.382684 -0.500000
v -0.831469 -0.555571 0.500000
v -0.831469 -0.555571 -0.500000
v -0.707106 -0.707108 0.500000
v -0.707106 -0.707108 -0.500000
v -0.555569 -0.831470 0.500000
v -0.555569 -0.831470 -0.500000
v -0.382682 -0.923880 0.500000
v -0.382682 -0.923880 -0.500000
v -0.195089 -0.980786 0.500000
v -0.195089 -0.980785 -0.500000
v -2.000000 -0.500000 0.500000
v -2.000000 0.500000 0.500000
v -2.000000 -0.500000 -0.500000
v -2.000000 0.500000 -0.500000
v -0.877674 -0.469128 0.500000
v -0.877675 0.469126 0.500000
v -0.877674 -0.469128 -0.500000
v -0.877675 0.469126 -0.500000
v -2.000000 0.000000 0.500000
v -2.000000 -0.000000 -0.500000
v -2.000000 0.250000 -0.500000
v -2.000000 0.250000 0.500000
v -2.000000 0.125000 -0.500000
v -2.000000 0.125000 0.500000
v -2.000000 0.375000 0.500000
v -2.000000 0.375000 -0.500000
v -2.000000 0.187500 0.500000
v -2.000000 0.187500 -0.500000
v -2.000000 -0.250000 0.500000
v -2.000000 -0.250000 -0.500000
v -2.000000 -0.125000 0.500000
v -2.000000 -0.125000 -0.500000
v -2.000000 -0.375000 -0.500000
v -2.000000 -0.375000 0.500000
v -2.000000 -0.437500 -0.500000
v -2.000000 -0.437500 0.500000
v -2.000000 -0.312500 0.500000
v -2.000000 -0.312500 -0.500000
v -2.000000 -0.187500 -0.500000
v -2.000000 -0.187500 0.500000
v -1.500000 -0.500000 -0.500000
v -1.500000 0.500000 -0.500000
v -1.500000 -0.500000 0.500000
v -1.500000 0.500000 0.500000
v -1.250000 0.500000 -0.500000
v -1.250000 -0.500000 0.500000
v -1.250000 -0.500000 -0.500000
v -1.250000 0.500000 0.500000
v -1.125000 0.500000 -0.500000
v -1.125000 -0.500000 0.500000
v -1.125000 -0.000000 -0.500000
v -1.125000 0.250000 -0.500000
v -1.125000 0.125000 -0.500000
v -1.125000 0.375000 -0.500000
v -1.125000 0.187500 -0.500000
v -1.125000 -0.250000 -0.500000
v -1.125000 -0.125000 -0.500000
v -1.125000 -0.375000 -0.500000
v -1.125000 -0.437500 -0.500000
v -1.125000 -0.312500 -0.500000
v -1.125000 -0.187500 -0.500000
v -1.125000 0.000000 0.500000
v -1.125000 -0.500000 -0.500000
v -1.125000 0.500000 0.500000
v -1.125000 0.250000 0.500000
v -1.125000 0.125000 0.500000
v -1.125000 0.375000 0.500000
v -1.125000 0.187500 0.500000
v -1.125000 -0.250000 0.500000
v -1.125000 -0.125000 0.500000
v -1.125000 -0.375000 0.500000
v -1.125000 -0.437500 0.500000
v -1.125000 -0.312500 0.500000
v -1.125000 -0.187500 0.500000
vt 0.189051 0.796182
vt 0.000193 0.796182
vt 0.000193 0.759160
vt 0.189051 0.759159
vt 0.000193 0.722137
vt 0.189051 0.722136
vt 0.000193 0.685114
vt 0.189051 0.685114
vt 0.000193 0.648091
vt 0.189051 0.648091
vt 0.000193 0.611068
vt 0.189051 0.611068
vt 0.000193 0.574046
vt 0.189051 0.574046
vt 0.000193 0.537023
vt 0.189051 0.537023
vt 0.000193 0.500000
vt 0.189051 0.500000
vt 0.000193 0.462977
vt 0.189051 0.462977
vt 0.000193 0.425955
vt 0.189051 0.425955
vt 0.000193 0.388932
vt 0.189051 0.388932
vt 0.000193 0.351909
vt 0.189051 0.351909
vt 0.000193 0.314886
vt 0.189051 0.314886
vt 0.000193 0.277863
vt 0.189051 0.277864
vt 0.000193 0.240841
vt 0.189051 0.240841
vt 0.000193 0.203818
vt 0.189051 0.203818
vt 0.000193 0.166795
vt 0.189051 0.166795
vt 0.000193 0.129772
vt 0.189051 0.129773
vt 0.000193 0.092750
vt 0.189052 0.092750
vt 0.000193 0.055727
vt 0.189052 0.055727
vt 0.000193 0.018704
vt 0.189052 0.018705
vt 0.189052 0.999807
vt 0.000193 0.999807
vt 0.000193 0.981296
vt 0.189052 0.981296
vt 0.000193 0.944273
vt 0.189052 0.944273
vt 0.000193 0.907250
vt 0.189052 0.907250
vt 0.000193 0.870228
vt 0.189051 0.870227
vt 0.497197 0.418436
vt 0.523376 0.444615
vt 0.543944 0.475398
vt 0.558113 0.509602
vt 0.565335 0.545914
vt 0.565335 0.582937
vt 0.558112 0.619248
vt 0.551028 0.636350
vt 0.543945 0.653452
vt 0.523376 0.684236
vt 0.466414 0.730984
vt 0.432209 0.745152
vt 0.414053 0.748763
vt 0.395898 0.752374
vt 0.358875 0.752374
vt 0.322564 0.745152
vt 0.288359 0.730984
vt 0.257576 0.710415
vt 0.231397 0.684236
vt 0.210828 0.653453
vt 0.196660 0.619248
vt 0.189437 0.582937
vt 0.189437 0.545914
vt 0.196660 0.509603
vt 0.210828 0.475398
vt 0.231397 0.444615
vt 0.257576 0.418436
vt 0.288359 0.397867
vt 0.322563 0.383699
vt 0.358875 0.376476
vt 0.395898 0.376476
vt 0.432209 0.383699
vt 0.466414 0.397867
vt 0.000193 0.833205
vt 0.189051 0.833205
vt 0.565335 0.206653
vt 0.558113 0.242964
vt 0.543945 0.277169
vt 0.523376 0.307952
vt 0.497197 0.334131
vt 0.466414 0.354700
vt 0.432209 0.368868
vt 0.395898 0.376091
vt 0.358875 0.376091
vt 0.322564 0.368868
vt 0.288359 0.354700
vt 0.257576 0.334131
vt 0.231397 0.307952
vt 0.210828 0.277169
vt 0.196660 0.242965
vt 0.189437 0.206653
vt 0.189437 0.169631
vt 0.196660 0.133319
vt 0.210828 0.099115
vt 0.231397 0.068331
vt 0.257576 0.042152
vt 0.288360 0.021583
vt 0.305461 0.014500
vt 0.322564 0.007415
vt 0.358875 0.000193
vt 0.395898 0.000193
vt 0.432209 0.007416
vt 0.466414 0.021584
vt 0.481805 0.031868
vt 0.497197 0.042152
vt 0.523376 0.068331
vt 0.543945 0.099115
vt 0.558113 0.133319
vt 0.565335 0.169631
vt 0.730972 0.613358
vt 0.778044 0.613358
vt 0.778044 0.802216
vt 0.730972 0.802216
vt 0.000193 0.000193
vt 0.189052 0.000193
vt 0.587877 0.008919
vt 0.623305 0.019666
vt 0.660150 0.023295
vt 0.696994 0.019666
vt 0.732423 0.008919
vt 0.748749 0.000193
vt 0.754579 0.046902
vt 0.730972 0.046902
vt 0.707365 0.046902
vt 0.695561 0.046902
vt 0.683757 0.046902
vt 0.660150 0.046902
vt 0.636543 0.046902
vt 0.624739 0.046902
vt 0.612935 0.046902
vt 0.601132 0.046902
vt 0.589328 0.046902
vt 0.577524 0.046902
vt 0.565721 0.046902
vt 0.571551 0.000193
vt 0.683757 0.212153
vt 0.660150 0.212153
vt 0.636543 0.212153
vt 0.624739 0.212153
vt 0.612936 0.212153
vt 0.601132 0.212153
vt 0.589328 0.212153
vt 0.577524 0.212154
vt 0.565721 0.212154
vt 0.565721 0.117724
vt 0.565721 0.070510
vt 0.754579 0.070510
vt 0.754579 0.117724
vt 0.754579 0.212153
vt 0.730972 0.212153
vt 0.707365 0.212153
vt 0.695561 0.212153
vt 0.565721 0.613358
vt 0.660150 0.613358
vt 0.707365 0.613358
vt 0.707365 0.802216
vt 0.660150 0.802216
vt 0.565721 0.802216
vt 0.754965 0.094622
vt 0.754965 0.000193
vt 0.943823 0.000193
vt 0.943823 0.094622
vt 0.943823 0.141837
vt 0.943823 0.165444
vt 0.754965 0.165444
vt 0.754965 0.141837
vt 0.754965 0.212516
vt 0.943823 0.212516
vt 0.695561 0.566263
vt 0.707365 0.566263
vt 0.730972 0.566263
vt 0.754580 0.566263
vt 0.748749 0.612972
vt 0.732423 0.604246
vt 0.696995 0.593499
vt 0.623306 0.593499
vt 0.587877 0.604246
vt 0.571552 0.612973
vt 0.565721 0.566263
vt 0.577525 0.566263
vt 0.589328 0.566263
vt 0.601132 0.566263
vt 0.612936 0.566263
vt 0.624739 0.566263
vt 0.636543 0.566263
vt 0.660150 0.566263
vt 0.683758 0.566263
vt 0.754579 0.401012
vt 0.730972 0.401012
vt 0.707365 0.401012
vt 0.695561 0.401012
vt 0.683758 0.401012
vt 0.660150 0.401012
vt 0.636543 0.401012
vt 0.624739 0.401012
vt 0.612936 0.401012
vt 0.601132 0.401012
vt 0.589328 0.401012
vt 0.577525 0.401012
vt 0.565721 0.401012
vt 0.754579 0.495441
vt 0.754579 0.542656
vt 0.565721 0.542656
vt 0.565721 0.495441
vn 0.0980 -0.9952 -0.0000
vn 0.2903 -0.9569 -0.0000
vn 0.4714 -0.8819 -0.0000
vn 0.6344 -0.7730 -0.0000
vn 0.7730 -0.6344 -0.0000
vn 0.8819 -0.4714 -0.0000
vn 0.9569 -0.2903 -0.0000
vn 0.9952 -0.0980 -0.0000
vn 0.9952 0.0980 0.0000
vn 0.9569 0.2903 0.0000
vn 0.8819 0.4714 0.0000
vn 0.7730 0.6344 0.0000
vn 0.6344 0.7730 0.0000
vn 0.4714 0.8819 0.0000
vn 0.2903 0.9569 0.0000
vn 0.0980 0.9952 0.0000
vn -0.0980 0.9952 0.0000
vn -0.2903 0.9569 0.0000
vn -0.4714 0.8819 0.0000
vn -0.6344 0.7730 0.0000
vn -0.7730 0.6344 0.0000
vn -0.8819 -0.4714 -0.0000
vn -0.7730 -0.6344 -0.0000
vn -0.6344 -0.7730 -0.0000
vn -0.4714 -0.8819 -0.0000
vn 0.0000 0.0000 -1.0000
vn -0.2903 -0.9569 -0.0000
vn -0.0980 -0.9952 -0.0000
vn -0.0000 -0.0000 1.0000
vn 0.1239 -0.9923 -0.0000
vn -0.8819 0.4714 0.0000
vn 0.0000 -1.0000 0.0000
vn 0.0000 1.0000 0.0000
vn 0.1239 0.9923 0.0000
vn -1.0000 0.0000 0.0000
usemtl Material.007
s off
f 1/1/1 2/2/1 4/3/1 3/4/1
f 3/4/2 4/3/2 6/5/2 5/6/2
f 5/6/3 6/5/3 8/7/3 7/8/3
f 7/8/4 8/7/4 10/9/4 9/10/4
f 9/10/5 10/9/5 12/11/5 11/12/5
f 11/12/6 12/11/6 14/13/6 13/14/6
f 13/14/7 14/13/7 16/15/7 15/16/7
f 15/16/8 16/15/8 18/17/8 17/18/8
f 17/18/9 18/17/9 20/19/9 19/20/9
f 19/20/10 20/19/10 22/21/10 21/22/10
f 21/22/11 22/21/11 24/23/11 23/24/11
f 23/24/12 24/23/12 26/25/12 25/26/12
f 25/26/13 26/25/13 28/27/13 27/28/13
f 27/28/14 28/27/14 30/29/14 29/30/14
f 29/30/15 30/29/15 32/31/15 31/32/15
f 31/32/16 32/31/16 34/33/16 33/34/16
f 33/34/17 34/33/17 36/35/17 35/36/17
f 35/36/18 36/35/18 38/37/18 37/38/18
f 37/38/19 38/37/19 40/39/19 39/40/19
f 39/40/20 40/39/20 42/41/20 41/42/20
f 41/42/21 42/41/21 44/43/21 43/44/21
f 68/45/22 70/46/22 55/47/22 54/48/22
f 54/48/23 55/47/23 57/49/23 56/50/23
f 56/50/24 57/49/24 59/51/24 58/52/24
f 58/52/25 59/51/25 61/53/25 60/54/25
f 4/55/26 2/56/26 63/57/26 61/58/26 59/59/26 57/60/26 55/61/26 70/62/26 53/63/26 50/64/26 48/65/26 46/66/26 71/67/26 44/68/26 42/69/26 40/70/26 38/71/26 36/72/26 34/73/26 32/74/26 30/75/26 28/76/26 26/77/26 24/78/26 22/79/26 20/80/26 18/81/26 16/82/26 14/83/26 12/84/26 10/85/26 8/86/26 6/87/26
f 60/54/27 61/53/27 63/88/27 62/89/27
f 62/89/28 63/88/28 2/2/28 1/1/28
f 1/90/29 3/91/29 5/92/29 7/93/29 9/94/29 11/95/29 13/96/29 15/97/29 17/98/29 19/99/29 21/100/29 23/101/29 25/102/29 27/103/29 29/104/29 31/105/29 33/106/29 35/107/29 37/108/29 39/109/29 41/110/29 43/111/29 69/112/29 45/113/29 47/114/29 49/115/29 51/116/29 52/117/29 68/118/29 54/119/29 56/120/29 58/121/29 60/122/29 62/123/29
f 116/124/30 70/125/30 68/126/30 103/127/30
f 43/44/31 44/43/31 71/128/31 69/129/31
f 52/130/29 51/131/29 49/132/29 47/133/29 45/134/29 69/135/29 117/136/29 120/137/29 118/138/29 121/139/29 119/140/29 115/141/29 123/142/29 127/143/29 122/144/29 126/145/29 124/146/29 125/147/29 103/148/29 68/149/29
f 77/150/29 72/151/29 84/152/29 93/153/29 82/154/29 90/155/29 87/156/29 89/157/29 64/158/29 96/159/29 99/160/29 103/148/29 125/147/29 124/146/29 126/145/29 122/144/29 127/143/29 123/142/29 115/141/29 119/140/29 121/139/29 118/138/29 120/137/29 117/136/29 101/161/29 97/162/29 65/163/29 78/164/29 75/165/29 80/166/29
f 66/167/32 94/168/32 100/169/32 116/124/32 103/127/32 99/170/32 96/171/32 64/172/32
f 95/173/33 67/174/33 65/175/33 97/176/33 101/177/33 117/178/33 102/179/33 98/180/33
f 71/181/34 102/179/34 117/178/34 69/182/34
f 108/183/26 105/184/26 107/185/26 102/186/26 71/187/26 46/188/26 48/189/26 50/190/26 53/191/26 70/192/26 116/193/26 112/194/26 111/195/26 113/196/26 109/197/26 114/198/26 110/199/26 104/200/26 106/201/26
f 80/166/35 75/165/35 78/164/35 65/163/35 67/202/35 79/203/35 74/204/35 81/205/35 76/206/35 73/207/35 85/208/35 92/209/35 83/210/35 91/211/35 86/212/35 88/213/35 66/214/35 64/158/35 89/157/35 87/156/35 90/155/35 82/154/35 93/153/35 84/152/35 72/151/35 77/150/35
f 83/210/26 92/209/26 85/208/26 73/207/26 76/206/26 81/205/26 74/204/26 79/203/26 67/202/26 95/215/26 98/216/26 102/186/26 107/185/26 105/184/26 108/183/26 106/201/26 104/200/26 110/199/26 114/198/26 109/197/26 113/196/26 111/195/26 112/194/26 116/193/26 100/217/26 94/218/26 66/214/26 88/213/26 86/212/26 91/211/26
