# Blender v2.83.4 OBJ File: 'table.blend'
# www.blender.org
mtllib table.mtl
o Cube
v 1.000000 1.000000 -1.000000
v 1.000000 0.775881 -1.000000
v 1.000000 1.000000 1.000000
v 1.000000 0.775881 1.000000
v -1.000000 1.000000 -1.000000
v -1.000000 0.775881 -1.000000
v -1.000000 1.000000 1.000000
v -1.000000 0.775881 1.000000
v 1.000000 0.775881 -3.000000
v -1.000000 0.775881 -3.000000
v 1.000000 1.000000 -3.000000
v -1.000000 1.000000 -3.000000
v -1.000000 0.775881 0.500000
v 0.500000 0.775881 1.000000
v -0.500000 0.775881 -3.000000
v -0.500000 0.775881 1.000000
v 1.000000 0.775881 0.500000
v 0.500000 0.775881 -3.000000
v -1.000000 0.775881 -2.500000
v 1.000000 0.775881 -2.500000
v -0.500000 0.775881 0.500000
v 0.500000 0.775881 -2.500000
v -0.500000 0.775881 -2.500000
v 0.500000 0.775881 0.500000
v -1.000000 -0.224119 0.500000
v -1.000000 -0.224119 1.000000
v 0.500000 -0.224119 1.000000
v 1.000000 -0.224119 1.000000
v -0.500000 -0.224119 -3.000000
v -1.000000 -0.224119 -3.000000
v -0.500000 -0.224119 1.000000
v 1.000000 -0.224119 0.500000
v 1.000000 -0.224119 -3.000000
v 0.500000 -0.224119 -3.000000
v -1.000000 -0.224119 -2.500000
v 1.000000 -0.224119 -2.500000
v -0.500000 -0.224119 0.500000
v 0.500000 -0.224119 -2.500000
v -0.500000 -0.224119 -2.500000
v 0.500000 -0.224119 0.500000
vt 0.999694 0.304147
vt 0.695853 0.304148
vt 0.695853 0.000307
vt 0.999694 0.000307
vt 0.026106 0.636871
vt 0.046096 0.616755
vt 0.353213 0.638904
vt 0.374464 0.662687
vt 0.283675 0.682598
vt 0.100947 0.659444
vt 0.355751 0.350659
vt 0.390785 0.350071
vt 0.390785 0.586587
vt 0.925572 0.760522
vt 0.849612 0.760522
vt 0.849612 0.608601
vt 0.925572 0.608601
vt 0.000307 0.332834
vt 0.035341 0.332246
vt 0.008395 0.566871
vt 0.344996 0.066150
vt 0.364986 0.046034
vt 0.382697 0.116034
vt 0.037879 0.044000
vt 0.016628 0.020217
vt 0.107417 0.000307
vt 0.290145 0.023460
vt 0.543932 0.760522
vt 0.543932 0.684562
vt 0.695853 0.684562
vt 0.695853 0.760522
vt 0.999694 0.607988
vt 0.695853 0.607988
vt 0.000307 0.096317
vt 0.467359 0.532028
vt 0.619279 0.532028
vt 0.619279 0.607988
vt 0.467359 0.607988
vt 0.153453 0.911705
vt 0.153453 0.835745
vt 0.305374 0.835745
vt 0.305374 0.911705
vt 0.772426 0.836482
vt 0.696465 0.836482
vt 0.696466 0.684562
vt 0.772426 0.684562
vt 0.695240 0.304147
vt 0.695240 0.532028
vt 0.391398 0.532028
vt 0.391399 0.304147
vt 0.619279 0.076267
vt 0.467359 0.076267
vt 0.467359 0.000307
vt 0.619279 0.000307
vt 0.391398 0.076267
vt 0.695240 0.076267
vt 0.848999 0.608601
vt 0.848999 0.684562
vt 0.773039 0.684562
vt 0.773039 0.608602
vt 0.152840 0.911092
vt 0.076880 0.911092
vt 0.076880 0.835131
vt 0.152840 0.835131
vt 0.772426 0.608601
vt 0.696465 0.608602
vt 0.076267 0.911092
vt 0.000307 0.911092
vt 0.000307 0.835131
vt 0.076267 0.835131
vt 0.391399 0.684562
vt 0.391398 0.608602
vt 0.543319 0.608601
vt 0.543319 0.684562
vt 0.544545 0.761135
vt 0.620505 0.761135
vt 0.620505 0.913055
vt 0.544545 0.913055
vt 0.391399 0.760522
vt 0.543319 0.760522
vt 0.391399 0.761135
vt 0.467359 0.761135
vt 0.467359 0.913055
vt 0.391398 0.913055
vt 0.848999 0.836482
vt 0.773039 0.836482
vt 0.306600 0.683211
vt 0.382560 0.683211
vt 0.382560 0.835132
vt 0.306600 0.835132
vt 0.076880 0.683211
vt 0.152840 0.683211
vt 0.000307 0.683211
vt 0.076267 0.683211
vt 0.467972 0.761135
vt 0.543932 0.761135
vt 0.543932 0.913055
vt 0.467972 0.913055
vt 0.153453 0.683211
vt 0.229413 0.683211
vt 0.229413 0.835132
vt 0.153453 0.835132
vt 0.230026 0.683211
vt 0.305987 0.683211
vt 0.305987 0.835132
vt 0.230026 0.835132
vt 0.543932 0.608602
vt 0.695853 0.608601
vn 0.0000 1.0000 0.0000
vn 0.0000 0.0000 1.0000
vn -1.0000 0.0000 0.0000
vn 0.0000 0.0000 -1.0000
vn 1.0000 0.0000 0.0000
vn 0.0000 -1.0000 0.0000
usemtl Material
s off
f 1/1/1 5/2/1 7/3/1 3/4/1
f 4/5/2 3/6/2 7/7/2 8/8/2 16/9/2 14/10/2
f 8/8/3 7/7/3 5/11/3 6/12/3 13/13/3
f 24/14/4 17/15/4 32/16/4 40/17/4
f 2/18/5 1/19/5 3/6/5 4/5/5 17/20/5
f 6/12/3 5/11/3 12/21/3 10/22/3 19/23/3
f 10/22/4 12/21/4 11/24/4 9/25/4 18/26/4 15/27/4
f 4/28/2 14/29/2 27/30/2 28/31/2
f 5/2/1 1/1/1 11/32/1 12/33/1
f 1/19/5 2/18/5 20/34/5 9/25/5 11/24/5
f 22/35/6 23/36/6 15/37/6 18/38/6
f 13/39/4 21/40/4 37/41/4 25/42/4
f 21/43/5 16/44/5 31/45/5 37/46/5
f 6/47/6 19/48/6 23/36/6 22/35/6 20/49/6 2/50/6
f 21/51/6 24/52/6 14/53/6 16/54/6
f 2/50/6 17/55/6 24/52/6 21/51/6 13/56/6 6/47/6
f 40/57/6 32/58/6 28/59/6 27/60/6
f 39/61/6 35/62/6 30/63/6 29/64/6
f 25/65/6 37/46/6 31/45/6 26/66/6
f 36/67/6 38/68/6 34/69/6 33/70/6
f 8/71/3 13/72/3 25/73/3 26/74/3
f 22/75/3 18/76/3 34/77/3 38/78/3
f 16/79/2 8/71/2 26/74/2 31/80/2
f 20/81/2 22/82/2 38/83/2 36/84/2
f 17/85/5 4/86/5 28/59/5 32/58/5
f 15/87/5 23/88/5 39/89/5 29/90/5
f 10/91/4 15/92/4 29/64/4 30/63/4
f 18/93/4 9/94/4 33/70/4 34/69/4
f 19/95/3 10/96/3 30/97/3 35/98/3
f 23/99/2 19/100/2 35/101/2 39/102/2
f 9/103/5 20/104/5 36/105/5 33/106/5
f 14/29/3 24/107/3 40/108/3 27/30/3
