# Blender v2.83.4 OBJ File: 'inside_objects.blend'
# www.blender.org
mtllib generic_floor.mtl
o genertic_fllor_Cube.001
v -0.912150 -0.560336 0.000771
v -0.912150 1.439664 0.000771
v -0.912150 -0.560336 -1.999229
v -0.912150 1.439664 -1.999229
v 1.087850 -0.560336 0.000771
v 1.087850 1.439664 0.000771
v 1.087850 -0.560336 -1.999229
v 1.087850 1.439664 -1.999229
v -0.912150 1.439664 -3.999229
v -0.912150 -0.560336 -3.999229
v 1.087850 -0.560336 -3.999229
v 1.087850 1.439664 -3.999229
v -0.912150 1.439664 -5.999229
v -0.912150 -0.560336 -5.999229
v 1.087850 -0.560336 -5.999229
v 1.087850 1.439664 -5.999229
v -0.912150 1.439664 -7.999229
v -0.912150 -0.560336 -7.999229
v 1.087850 -0.560336 -7.999229
v 1.087850 1.439664 -7.999229
v -0.912150 1.439664 -9.999229
v -0.912150 -0.560336 -9.999229
v 1.087850 -0.560336 -9.999229
v 1.087850 1.439664 -9.999229
v -0.912150 1.439664 -11.999229
v -0.912150 -0.560336 -11.999229
v 1.087850 -0.560336 -11.999229
v 1.087850 1.439664 -11.999229
v -0.912150 1.439664 -13.999229
v -0.912150 -0.560336 -13.999229
v 1.087850 -0.560336 -13.999229
v 1.087850 1.439664 -13.999229
v -0.912150 1.439664 -15.999229
v -0.912150 -0.560336 -15.999229
v 1.087850 -0.560336 -15.999229
v 1.087850 1.439664 -15.999229
v -2.912150 -0.560336 -1.999229
v -2.912150 -0.560336 0.000771
v -2.912150 1.439664 0.000771
v -2.912150 1.439664 -1.999229
v -2.912150 1.439664 -3.999229
v -2.912150 -0.560336 -3.999229
v -2.912150 1.439664 -5.999229
v -2.912150 -0.560336 -5.999229
v -2.912150 1.439664 -7.999229
v -2.912150 -0.560336 -7.999229
v -2.912150 1.439664 -9.999229
v -2.912150 -0.560336 -9.999229
v -2.912150 1.439664 -11.999229
v -2.912150 -0.560336 -11.999229
v -2.912150 1.439664 -13.999229
v -2.912150 -0.560336 -13.999229
v -2.912150 1.439664 -15.999229
v -2.912150 -0.560336 -15.999229
v -4.912150 -0.560336 -1.999229
v -4.912150 -0.560336 0.000771
v -4.912150 1.439664 0.000771
v -4.912150 1.439664 -1.999229
v -4.912150 1.439664 -3.999229
v -4.912150 -0.560336 -3.999229
v -4.912150 1.439664 -5.999229
v -4.912150 -0.560336 -5.999229
v -4.912150 1.439664 -7.999229
v -4.912150 -0.560336 -7.999229
v -4.912150 1.439664 -9.999229
v -4.912150 -0.560336 -9.999229
v -4.912150 1.439664 -11.999229
v -4.912150 -0.560336 -11.999229
v -4.912150 1.439664 -13.999229
v -4.912150 -0.560336 -13.999229
v -4.912150 1.439664 -15.999229
v -4.912150 -0.560336 -15.999229
v -6.912150 -0.560336 -1.999229
v -6.912150 -0.560336 0.000771
v -6.912150 1.439664 0.000771
v -6.912150 1.439664 -1.999229
v -6.912150 1.439664 -3.999229
v -6.912150 -0.560336 -3.999229
v -6.912150 1.439664 -5.999229
v -6.912150 -0.560336 -5.999229
v -6.912150 1.439664 -7.999229
v -6.912150 -0.560336 -7.999229
v -6.912150 1.439664 -9.999229
v -6.912150 -0.560336 -9.999229
v -6.912150 1.439664 -11.999229
v -6.912150 -0.560336 -11.999229
v -6.912150 1.439664 -13.999229
v -6.912150 -0.560336 -13.999229
v -6.912150 1.439664 -15.999229
v -6.912150 -0.560336 -15.999229
v -8.912150 -0.560336 -1.999229
v -8.912150 -0.560336 0.000771
v -8.912150 1.439664 0.000771
v -8.912150 1.439664 -1.999229
v -8.912150 1.439664 -3.999229
v -8.912150 -0.560336 -3.999229
v -8.912150 1.439664 -5.999229
v -8.912150 -0.560336 -5.999229
v -8.912150 1.439664 -7.999229
v -8.912150 -0.560336 -7.999229
v -8.912150 1.439664 -9.999229
v -8.912150 -0.560336 -9.999229
v -8.912150 1.439664 -11.999229
v -8.912150 -0.560336 -11.999229
v -8.912150 1.439664 -13.999229
v -8.912150 -0.560336 -13.999229
v -8.912150 1.439664 -15.999229
v -8.912150 -0.560336 -15.999229
v -10.912150 -0.560336 -1.999229
v -10.912150 -0.560336 0.000771
v -10.912150 1.439664 0.000771
v -10.912150 1.439664 -1.999229
v -10.912150 1.439664 -3.999229
v -10.912150 -0.560336 -3.999229
v -10.912150 1.439664 -5.999229
v -10.912150 -0.560336 -5.999229
v -10.912150 1.439664 -7.999229
v -10.912150 -0.560336 -7.999229
v -10.912150 1.439664 -9.999229
v -10.912150 -0.560336 -9.999229
v -10.912150 1.439664 -11.999229
v -10.912150 -0.560336 -11.999229
v -10.912150 1.439664 -13.999229
v -10.912150 -0.560336 -13.999229
v -10.912150 1.439664 -15.999229
v -10.912150 -0.560336 -15.999229
v -12.912150 -0.560336 -1.999229
v -12.912150 -0.560336 0.000771
v -12.912150 1.439664 0.000771
v -12.912150 1.439664 -1.999229
v -12.912150 1.439664 -3.999229
v -12.912150 -0.560336 -3.999229
v -12.912150 1.439664 -5.999229
v -12.912150 -0.560336 -5.999229
v -12.912150 1.439664 -7.999229
v -12.912150 -0.560336 -7.999229
v -12.912150 1.439664 -9.999229
v -12.912150 -0.560336 -9.999229
v -12.912150 1.439664 -11.999229
v -12.912150 -0.560336 -11.999229
v -12.912150 1.439664 -13.999229
v -12.912150 -0.560336 -13.999229
v -12.912150 1.439664 -15.999229
v -12.912150 -0.560336 -15.999229
vt 0.090993 0.045547
vt 0.136438 0.045548
vt 0.136438 0.090993
vt 0.090993 0.090993
vt 0.318219 0.045548
vt 0.318219 0.000102
vt 0.363664 0.000102
vt 0.363664 0.045548
vt 0.045548 0.318424
vt 0.045547 0.363869
vt 0.000102 0.363869
vt 0.000102 0.318424
vt 0.272774 0.045548
vt 0.272774 0.000102
vt 0.090993 0.318424
vt 0.090993 0.363869
vt 0.136438 0.363869
vt 0.181883 0.363869
vt 0.181883 0.409314
vt 0.136438 0.409314
vt 0.227329 0.000102
vt 0.227329 0.045548
vt 0.181883 0.045548
vt 0.181883 0.000102
vt 0.136438 0.318424
vt 0.272774 0.363869
vt 0.318219 0.363869
vt 0.318219 0.409314
vt 0.272774 0.409314
vt 0.181883 0.318424
vt 0.227329 0.318424
vt 0.227329 0.363869
vt 0.181883 0.090993
vt 0.090993 0.409314
vt 0.136438 0.000102
vt 0.272774 0.318424
vt 0.318219 0.318424
vt 0.090993 0.000102
vt 0.045547 0.409314
vt 0.363664 0.318424
vt 0.363664 0.363869
vt 0.227329 0.409314
vt 0.045548 0.045547
vt 0.045548 0.000102
vt 0.272774 0.090993
vt 0.227329 0.090993
vt 0.363869 0.045547
vt 0.363869 0.000102
vt 0.409314 0.000102
vt 0.409314 0.045548
vt 0.409314 0.090993
vt 0.409314 0.136438
vt 0.409314 0.181883
vt 0.409314 0.227329
vt 0.409314 0.272774
vt 0.409314 0.318219
vt 0.363869 0.318219
vt 0.363869 0.272774
vt 0.363869 0.227329
vt 0.363869 0.181883
vt 0.363869 0.136438
vt 0.363869 0.090993
vt 0.000102 0.045547
vt 0.000102 0.000102
vt 0.363664 0.409314
vt 0.363664 0.454759
vt 0.318219 0.454759
vt 0.272774 0.136438
vt 0.227329 0.136438
vt 0.181883 0.136438
vt 0.136438 0.136438
vt 0.318219 0.090993
vt 0.363664 0.090993
vt 0.363664 0.136438
vt 0.318219 0.136438
vt 0.227329 0.454759
vt 0.181883 0.454759
vt 0.045548 0.090993
vt 0.090993 0.136438
vt 0.045548 0.136438
vt 0.090993 0.454759
vt 0.045547 0.454759
vt 0.000102 0.090993
vt 0.000102 0.409314
vt 0.000102 0.136438
vt 0.045548 0.181883
vt 0.000102 0.181883
vt 0.136438 0.454759
vt 0.136438 0.500205
vt 0.090993 0.500205
vt 0.363664 0.500205
vt 0.318219 0.500205
vt 0.272774 0.181883
vt 0.227329 0.181883
vt 0.181883 0.181883
vt 0.136438 0.181883
vt 0.363664 0.181883
vt 0.318219 0.181883
vt 0.000102 0.454759
vt 0.272774 0.454759
vt 0.227328 0.500205
vt 0.272774 0.500205
vt 0.272774 0.545650
vt 0.227329 0.545650
vt 0.090993 0.181883
vt 0.136438 0.227329
vt 0.090993 0.227329
vt 0.000102 0.500205
vt 0.045547 0.500205
vt 0.045547 0.545650
vt 0.000102 0.545650
vt 0.045548 0.227329
vt 0.000102 0.227329
vt 0.136438 0.545650
vt 0.090993 0.545650
vt 0.363664 0.545650
vt 0.318219 0.545650
vt 0.272774 0.227329
vt 0.227329 0.227329
vt 0.181883 0.500205
vt 0.318219 0.227329
vt 0.318219 0.272774
vt 0.272774 0.272774
vt 0.181883 0.545650
vt 0.181883 0.591095
vt 0.136438 0.591095
vt 0.181883 0.227329
vt 0.227329 0.272774
vt 0.181883 0.272774
vt 0.272774 0.591095
vt 0.227329 0.591095
vt 0.136438 0.272774
vt 0.090993 0.272774
vt 0.045547 0.591095
vt 0.000102 0.591095
vt 0.045547 0.272774
vt 0.000102 0.272774
vt 0.090993 0.591095
vt 0.363664 0.227329
vt 0.227329 0.636540
vt 0.181883 0.636540
vt 0.090993 0.318219
vt 0.045547 0.318219
vt 0.090993 0.636540
vt 0.045547 0.636540
vt 0.318219 0.591095
vt 0.318219 0.636540
vt 0.272774 0.636540
vt 0.318219 0.318219
vt 0.272774 0.318219
vt 0.136438 0.636540
vt 0.227329 0.318219
vt 0.181883 0.318219
vt 0.363664 0.272774
vt 0.363664 0.591095
vt 0.409314 0.681781
vt 0.363869 0.681781
vt 0.363869 0.636336
vt 0.363869 0.590891
vt 0.363869 0.545445
vt 0.363869 0.500000
vt 0.363869 0.454555
vt 0.363869 0.409110
vt 0.363869 0.363664
vt 0.409314 0.363664
vt 0.409314 0.409110
vt 0.409314 0.454555
vt 0.409314 0.500000
vt 0.409314 0.545445
vt 0.409314 0.590891
vt 0.409314 0.636336
vt 0.363664 0.318219
vt 0.136438 0.318219
vt 0.363664 0.636540
vt 0.045547 0.636745
vt 0.090993 0.636745
vt 0.136438 0.636745
vt 0.181883 0.636745
vt 0.227328 0.636745
vt 0.272774 0.636745
vt 0.318219 0.636745
vt 0.363664 0.636745
vt 0.363664 0.682190
vt 0.318219 0.682190
vt 0.272774 0.682190
vt 0.227328 0.682190
vt 0.181883 0.682190
vt 0.136438 0.682190
vt 0.090993 0.682190
vt 0.045547 0.682190
vt 0.000102 0.682190
vt 0.000102 0.636745
vt 0.000102 0.318219
vt 0.000102 0.636540
vt 0.409314 0.999898
vt 0.363869 0.999898
vt 0.363869 0.954453
vt 0.363869 0.909007
vt 0.363869 0.863562
vt 0.363869 0.818117
vt 0.363869 0.772672
vt 0.363869 0.727226
vt 0.409314 0.727226
vt 0.409314 0.772672
vt 0.409314 0.818117
vt 0.409314 0.863562
vt 0.409314 0.909007
vt 0.409314 0.954453
vn 0.0000 -1.0000 0.0000
vn 0.0000 1.0000 0.0000
vn 0.0000 0.0000 -1.0000
vn -1.0000 0.0000 0.0000
vn 1.0000 0.0000 0.0000
vn 0.0000 0.0000 1.0000
usemtl Material.007
s off
f 26/1/1 22/2/1 48/3/1 50/4/1
f 3/5/1 7/6/1 5/7/1 1/8/1
f 8/9/2 4/10/2 2/11/2 6/12/2
f 7/6/1 3/5/1 10/13/1 11/14/1
f 4/10/2 8/9/2 12/15/2 9/16/2
f 13/17/2 17/18/2 45/19/2 43/20/2
f 15/21/1 14/22/1 18/23/1 19/24/1
f 11/14/1 10/13/1 14/22/1 15/21/1
f 9/16/2 12/15/2 16/25/2 13/17/2
f 25/26/2 29/27/2 51/28/2 49/29/2
f 17/18/2 20/30/2 24/31/2 21/32/2
f 13/17/2 16/25/2 20/30/2 17/18/2
f 22/2/1 18/23/1 46/33/1 48/3/1
f 9/16/2 13/17/2 43/20/2 41/34/2
f 19/24/1 18/23/1 22/2/1 23/35/1
f 25/26/2 28/36/2 32/37/2 29/27/2
f 23/35/1 22/2/1 26/1/1 27/38/1
f 21/32/2 24/31/2 28/36/2 25/26/2
f 4/10/2 9/16/2 41/34/2 40/39/2
f 29/27/2 32/37/2 36/40/2 33/41/2
f 17/18/2 21/32/2 47/42/2 45/19/2
f 27/38/1 26/1/1 30/43/1 31/44/1
f 14/22/1 10/13/1 42/45/1 44/46/1
f 33/47/3 36/48/3 35/49/3 34/50/3 54/51/3 72/52/3 90/53/3 108/54/3 126/55/3 144/56/3 143/57/3 125/58/3 107/59/3 89/60/3 71/61/3 53/62/3
f 31/44/1 30/43/1 34/63/1 35/64/1
f 51/28/2 53/65/2 71/66/2 69/67/2
f 44/46/1 42/45/1 60/68/1 62/69/1
f 48/3/1 46/33/1 64/70/1 66/71/1
f 37/72/1 38/73/1 56/74/1 55/75/1
f 45/19/2 47/42/2 65/76/2 63/77/2
f 52/78/1 50/4/1 68/79/1 70/80/1
f 40/39/2 41/34/2 59/81/2 58/82/2
f 29/27/2 33/41/2 53/65/2 51/28/2
f 30/43/1 26/1/1 50/4/1 52/78/1
f 21/32/2 25/26/2 49/29/2 47/42/2
f 34/63/1 30/43/1 52/78/1 54/83/1
f 3/5/1 1/8/1 38/73/1 37/72/1
f 2/11/2 4/10/2 40/39/2 39/84/2
f 18/23/1 14/22/1 44/46/1 46/33/1
f 10/13/1 3/5/1 37/72/1 42/45/1
f 72/85/1 70/80/1 88/86/1 90/87/1
f 59/81/2 61/88/2 79/89/2 77/90/2
f 69/67/2 71/66/2 89/91/2 87/92/2
f 62/69/1 60/68/1 78/93/1 80/94/1
f 66/71/1 64/70/1 82/95/1 84/96/1
f 55/75/1 56/74/1 74/97/1 73/98/1
f 41/34/2 43/20/2 61/88/2 59/81/2
f 54/83/1 52/78/1 70/80/1 72/85/1
f 39/84/2 40/39/2 58/82/2 57/99/2
f 50/4/1 48/3/1 66/71/1 68/79/1
f 47/42/2 49/29/2 67/100/2 65/76/2
f 46/33/1 44/46/1 62/69/1 64/70/1
f 43/20/2 45/19/2 63/77/2 61/88/2
f 42/45/1 37/72/1 55/75/1 60/68/1
f 49/29/2 51/28/2 69/67/2 67/100/2
f 83/101/2 85/102/2 103/103/2 101/104/2
f 86/105/1 84/96/1 102/106/1 104/107/1
f 75/108/2 76/109/2 94/110/2 93/111/2
f 90/87/1 88/86/1 106/112/1 108/113/1
f 77/90/2 79/89/2 97/114/2 95/115/2
f 87/92/2 89/91/2 107/116/2 105/117/2
f 80/94/1 78/93/1 96/118/1 98/119/1
f 57/99/2 58/82/2 76/109/2 75/108/2
f 68/79/1 66/71/1 84/96/1 86/105/1
f 65/76/2 67/100/2 85/102/2 83/101/2
f 64/70/1 62/69/1 80/94/1 82/95/1
f 61/88/2 63/77/2 81/120/2 79/89/2
f 60/68/1 55/75/1 73/98/1 78/93/1
f 67/100/2 69/67/2 87/92/2 85/102/2
f 58/82/2 59/81/2 77/90/2 76/109/2
f 70/80/1 68/79/1 86/105/1 88/86/1
f 63/77/2 65/76/2 83/101/2 81/120/2
f 96/118/1 91/121/1 109/122/1 114/123/1
f 97/114/2 99/124/2 117/125/2 115/126/2
f 100/127/1 98/119/1 116/128/1 118/129/1
f 101/104/2 103/103/2 121/130/2 119/131/2
f 104/107/1 102/106/1 120/132/1 122/133/1
f 93/111/2 94/110/2 112/134/2 111/135/2
f 108/113/1 106/112/1 124/136/1 126/137/1
f 95/115/2 97/114/2 115/126/2 113/138/2
f 82/95/1 80/94/1 98/119/1 100/127/1
f 79/89/2 81/120/2 99/124/2 97/114/2
f 78/93/1 73/98/1 91/121/1 96/118/1
f 85/102/2 87/92/2 105/117/2 103/103/2
f 76/109/2 77/90/2 95/115/2 94/110/2
f 88/86/1 86/105/1 104/107/1 106/112/1
f 81/120/2 83/101/2 101/104/2 99/124/2
f 73/98/1 74/97/1 92/139/1 91/121/1
f 84/96/1 82/95/1 100/127/1 102/106/1
f 117/125/2 119/131/2 137/140/2 135/141/2
f 124/136/1 122/133/1 140/142/1 142/143/1
f 112/134/2 113/138/2 131/144/2 130/145/2
f 121/130/2 123/146/2 141/147/2 139/148/2
f 114/123/1 109/122/1 127/149/1 132/150/1
f 115/126/2 117/125/2 135/141/2 133/151/2
f 118/129/1 116/128/1 134/152/1 136/153/1
f 119/131/2 121/130/2 139/148/2 137/140/2
f 103/103/2 105/117/2 123/146/2 121/130/2
f 94/110/2 95/115/2 113/138/2 112/134/2
f 106/112/1 104/107/1 122/133/1 124/136/1
f 99/124/2 101/104/2 119/131/2 117/125/2
f 91/121/1 92/139/1 110/154/1 109/122/1
f 102/106/1 100/127/1 118/129/1 120/132/1
f 98/119/1 96/118/1 114/123/1 116/128/1
f 105/117/2 107/116/2 125/155/2 123/146/2
f 128/156/4 129/157/4 130/158/4 131/159/4 133/160/4 135/161/4 137/162/4 139/163/4 141/164/4 143/57/4 144/56/4 142/165/4 140/166/4 138/167/4 136/168/4 134/169/4 132/170/4 127/171/4
f 109/122/1 110/154/1 128/172/1 127/149/1
f 120/132/1 118/129/1 136/153/1 138/173/1
f 116/128/1 114/123/1 132/150/1 134/152/1
f 123/146/2 125/155/2 143/174/2 141/147/2
f 7/175/5 11/176/5 15/177/5 19/178/5 23/179/5 27/180/5 31/181/5 35/182/5 36/183/5 32/184/5 28/185/5 24/186/5 20/187/5 16/188/5 12/189/5 8/190/5 6/191/5 5/192/5
f 113/138/2 115/126/2 133/151/2 131/144/2
f 126/137/1 124/136/1 142/143/1 144/193/1
f 111/135/2 112/134/2 130/145/2 129/194/2
f 122/133/1 120/132/1 138/173/1 140/142/1
f 5/195/6 6/196/6 2/197/6 39/198/6 57/199/6 75/200/6 93/201/6 111/202/6 129/157/6 128/156/6 110/203/6 92/204/6 74/205/6 56/206/6 38/207/6 1/208/6
