# Blender v2.83.4 OBJ File: 'inside_objects.blend'
# www.blender.org
mtllib lever_base.mtl
o lever_base_Cube.004
v 0.087850 -0.560336 -1.999229
v 0.087850 -0.198128 -1.999229
v 0.087850 -0.560336 0.000771
v 0.087850 -0.198128 0.000771
v 0.587850 -0.198128 -1.999229
v 0.587850 -0.560336 0.000771
v 0.587850 -0.560336 -1.999229
v 0.587850 -0.198128 0.000771
v -0.412150 -0.560336 -1.999229
v -0.412150 -0.198128 0.000771
v -0.412150 -0.198128 -1.999229
v -0.412150 -0.560336 0.000771
v 0.337850 -0.560336 -1.999229
v 0.337850 -0.198128 0.000771
v 0.337850 -0.198128 -1.999229
v 0.337850 -0.560336 0.000771
v -0.162150 -0.198128 -1.999229
v -0.162150 -0.560336 0.000771
v -0.162150 -0.560336 -1.999229
v -0.162150 -0.198128 0.000771
v 0.587850 -0.198128 -0.999229
v 0.587850 -0.560336 -0.999229
v -0.412150 -0.560336 -0.999229
v -0.412150 -0.198128 -0.999229
v 0.337850 -0.198128 -0.999229
v -0.162150 -0.198128 -0.999229
v 0.587850 -0.198128 -0.499229
v 0.587850 -0.560336 -0.499229
v -0.412150 -0.560336 -0.499229
v -0.412150 -0.198128 -0.499229
v 0.337850 -0.198128 -0.499229
v -0.162150 -0.198128 -0.499229
v 0.087850 -0.198128 -0.249229
v 0.587850 -0.198128 -0.249229
v 0.587850 -0.560336 -0.249229
v -0.412150 -0.560336 -0.249229
v -0.412150 -0.198128 -0.249229
v 0.337850 -0.198128 -0.249229
v -0.162150 -0.198128 -0.249229
v 0.587850 -0.198128 -1.499229
v 0.587850 -0.560336 -1.499229
v -0.412150 -0.560336 -1.499229
v -0.412150 -0.198128 -1.499229
v 0.337850 -0.198128 -1.499229
v -0.162150 -0.198128 -1.499229
v 0.087850 -0.198128 -1.749229
v 0.587850 -0.198128 -1.749229
v 0.587850 -0.560336 -1.749229
v -0.412150 -0.560336 -1.749229
v -0.412150 -0.198128 -1.749229
v 0.337850 -0.198128 -1.749229
v -0.162150 -0.198128 -1.749229
vt 0.562729 0.437515
vt 0.625214 0.437515
vt 0.625214 0.500000
vt 0.562729 0.500000
vt 0.750427 0.937393
vt 0.750427 0.874908
vt 0.750427 0.812424
vt 0.750427 0.749939
vt 0.840957 0.749939
vt 0.840957 0.812424
vt 0.840957 0.874908
vt 0.840957 0.937393
vt 0.840957 0.999878
vt 0.750427 0.999878
vt 0.687698 0.437515
vt 0.750183 0.437515
vt 0.750183 0.500000
vt 0.687698 0.500000
vt 0.500244 0.437515
vt 0.500244 0.500000
vt 0.500244 0.125092
vt 0.562729 0.125092
vt 0.562729 0.250061
vt 0.500244 0.250061
vt 0.687698 0.125092
vt 0.750183 0.125092
vt 0.750183 0.250061
vt 0.687698 0.250061
vt 0.562729 0.375030
vt 0.500244 0.375030
vt 0.750183 0.375030
vt 0.687698 0.375030
vt 0.687698 0.062607
vt 0.750183 0.062607
vt 0.500244 0.062607
vt 0.562729 0.062607
vt 0.625214 0.000122
vt 0.687698 0.000122
vt 0.625214 0.062607
vt 0.500244 0.000122
vt 0.562729 0.000122
vt 0.750183 0.000122
vt 0.750427 0.187576
vt 0.750427 0.125092
vt 0.750427 0.062607
vt 0.750427 0.000122
vt 0.840957 0.000122
vt 0.840957 0.062607
vt 0.840957 0.125092
vt 0.840957 0.187576
vt 0.840957 0.250061
vt 0.750427 0.250061
vt 0.500000 0.125092
vt 0.500000 0.187576
vt 0.500000 0.250061
vt 0.437515 0.250061
vt 0.375030 0.250061
vt 0.250061 0.250061
vt 0.125092 0.250061
vt 0.062607 0.250061
vt 0.000122 0.250061
vt 0.000122 0.187576
vt 0.000122 0.125092
vt 0.000122 0.062607
vt 0.000122 0.000122
vt 0.062607 0.000122
vt 0.125092 0.000122
vt 0.250061 0.000122
vt 0.375030 0.000122
vt 0.437515 0.000122
vt 0.500000 0.000122
vt 0.500000 0.062607
vt 0.840957 0.312546
vt 0.840957 0.375031
vt 0.840957 0.500000
vt 0.840957 0.624969
vt 0.840957 0.687454
vt 0.750427 0.687454
vt 0.750427 0.624969
vt 0.750427 0.500000
vt 0.750427 0.375031
vt 0.750427 0.312546
vt 0.500000 0.340835
vt 0.437515 0.340835
vt 0.375030 0.340835
vt 0.250061 0.340835
vt 0.125092 0.340835
vt 0.062607 0.340835
vt 0.000122 0.340835
vt 0.000122 0.250305
vt 0.062607 0.250305
vt 0.125092 0.250305
vt 0.250061 0.250305
vt 0.375030 0.250305
vt 0.437515 0.250305
vt 0.500000 0.250305
vn 0.0000 1.0000 0.0000
vn 0.0000 0.0000 1.0000
vn 0.0000 0.0000 -1.0000
vn 0.0000 -1.0000 0.0000
vn -1.0000 0.0000 0.0000
vn 1.0000 -0.0000 0.0000
usemtl Material
s off
f 38/1/1 33/2/1 4/3/1 14/4/1
f 14/5/2 4/6/2 20/7/2 10/8/2 12/9/2 18/10/2 3/11/2 16/12/2 6/13/2 8/14/2
f 39/15/1 37/16/1 10/17/1 20/18/1
f 34/19/1 38/1/1 14/4/1 8/20/1
f 33/2/1 39/15/1 20/18/1 4/3/1
f 40/21/1 44/22/1 25/23/1 21/24/1
f 45/25/1 43/26/1 24/27/1 26/28/1
f 21/24/1 25/23/1 31/29/1 27/30/1
f 26/28/1 24/27/1 30/31/1 32/32/1
f 27/30/1 31/29/1 38/1/1 34/19/1
f 32/32/1 30/31/1 37/16/1 39/15/1
f 52/33/1 50/34/1 43/26/1 45/25/1
f 47/35/1 51/36/1 44/22/1 40/21/1
f 2/37/1 17/38/1 52/33/1 46/39/1
f 5/40/1 15/41/1 51/36/1 47/35/1
f 17/38/1 11/42/1 50/34/1 52/33/1
f 17/43/3 2/44/3 15/45/3 5/46/3 7/47/3 13/48/3 1/49/3 19/50/3 9/51/3 11/52/3
f 15/41/1 2/37/1 46/39/1 51/36/1
f 3/53/4 18/54/4 12/55/4 36/56/4 29/57/4 23/58/4 42/59/4 49/60/4 9/61/4 19/62/4 1/63/4 13/64/4 7/65/4 48/66/4 41/67/4 22/68/4 28/69/4 35/70/4 6/71/4 16/72/4
f 9/51/5 49/73/5 42/74/5 23/75/5 29/76/5 36/77/5 12/9/5 10/8/5 37/78/5 30/79/5 24/80/5 43/81/5 50/82/5 11/52/5
f 6/83/6 35/84/6 28/85/6 22/86/6 41/87/6 48/88/6 7/89/6 5/90/6 47/91/6 40/92/6 21/93/6 27/94/6 34/95/6 8/96/6
f 45/25/1 26/28/1 32/32/1 39/15/1 33/2/1 38/1/1 31/29/1 25/23/1 44/22/1 51/36/1 46/39/1 52/33/1
