# Blender v2.83.4 OBJ File: 'inside_objects.blend'
# www.blender.org
mtllib lever.mtl
o lever_Cube.005
v -0.133066 -0.320141 -0.367907
v -0.133066 0.741619 -0.367907
v -0.133066 -0.320141 -0.594963
v -0.133066 0.741619 -0.594963
v 0.317310 -0.320141 -0.367907
v 0.317310 0.741619 -0.367907
v 0.317310 -0.320141 -0.594963
v 0.317310 0.741619 -0.594963
v 0.092122 0.741619 -0.594963
v 0.092122 0.741619 -0.367907
v 0.204716 0.741619 -0.594963
v 0.204716 -0.320141 -0.367907
v 0.204716 -0.320141 -0.594963
v 0.204716 0.741619 -0.367907
v -0.020472 -0.320141 -0.594963
v -0.020472 0.741619 -0.367907
v -0.020472 0.741619 -0.594963
v -0.020472 -0.320141 -0.367907
v 0.204716 0.741619 -0.664963
v 0.317310 0.741619 -0.664963
v -0.020472 0.741619 -0.664963
v 0.092122 0.741619 -0.664963
v 0.204716 0.832992 -0.664963
v -0.133066 0.741619 -0.664963
v 0.317310 0.832992 -0.664963
v -0.020472 0.832992 -0.664963
v 0.092122 0.832992 -0.664963
v -0.133066 0.832992 -0.664963
v -0.020472 0.741619 -0.297907
v -0.133066 0.741619 -0.297907
v 0.204716 0.741619 -0.297907
v 0.092122 0.741619 -0.297907
v 0.317310 0.741619 -0.297907
v -0.020472 0.832992 -0.297907
v -0.133066 0.832992 -0.297907
v 0.204716 0.832992 -0.297907
v 0.092122 0.832992 -0.297907
v 0.317310 0.832992 -0.297907
v -0.133066 0.864198 -0.367907
v -0.133066 0.864198 -0.594963
v 0.204716 0.864198 -0.594963
v 0.317310 0.864198 -0.594963
v 0.317310 0.864198 -0.367907
v -0.020472 0.864198 -0.367907
v -0.020472 0.864198 -0.594963
v 0.092122 0.864198 -0.594963
v 0.204716 0.864198 -0.367907
v 0.092122 0.864198 -0.367907
v -0.020472 0.864198 -0.297907
v 0.204716 0.864198 -0.664963
v 0.317310 0.864198 -0.664963
v -0.020472 0.864198 -0.664963
v 0.092122 0.864198 -0.664963
v -0.133066 0.864198 -0.664963
v -0.133066 0.864198 -0.297907
v 0.204716 0.864198 -0.297907
v 0.092122 0.864198 -0.297907
v 0.317310 0.864198 -0.297907
v 0.387310 0.741619 -0.594963
v 0.387310 0.741619 -0.367907
v 0.387310 0.832992 -0.594963
v 0.387310 0.832992 -0.367907
v 0.387310 0.832992 -0.664963
v 0.387310 0.864198 -0.664963
v 0.387310 0.832992 -0.297907
v 0.387310 0.864198 -0.297907
v 0.387310 0.864198 -0.367907
v 0.387310 0.864198 -0.594963
v 0.387310 0.741619 -0.664963
v 0.387310 0.741619 -0.297907
v -0.203066 0.741619 -0.367907
v -0.203066 0.741619 -0.594963
v -0.203066 0.832992 -0.367907
v -0.203066 0.832992 -0.594963
v -0.203066 0.832992 -0.664963
v -0.203066 0.864198 -0.664963
v -0.203066 0.864198 -0.594963
v -0.203066 0.741619 -0.664963
v -0.203066 0.864198 -0.367907
v -0.203066 0.832992 -0.297907
v -0.203066 0.864198 -0.297907
v -0.203066 0.741619 -0.297907
vt 0.047330 0.634553
vt 0.047330 0.189924
vt 0.142414 0.189924
vt 0.142414 0.634553
vt 0.000180 0.000180
vt 0.444809 0.000180
vt 0.444809 0.047330
vt 0.000180 0.047330
vt 0.444809 0.142414
vt 0.000180 0.142414
vt 0.000180 0.634553
vt 0.000180 0.189924
vt 0.336699 0.189924
vt 0.336699 0.237075
vt 0.241615 0.237074
vt 0.241615 0.189924
vt 0.241256 0.219238
vt 0.202992 0.219238
vt 0.202992 0.189924
vt 0.241256 0.189924
vt 0.663085 0.474482
vt 0.663085 0.445169
vt 0.692398 0.445169
vt 0.692398 0.474482
vt 0.444809 0.189565
vt 0.000180 0.189565
vt 0.663085 0.723637
vt 0.663085 0.628553
vt 0.692398 0.628553
vt 0.692398 0.723637
vt 0.189565 0.189924
vt 0.189565 0.634553
vt 0.241615 0.284584
vt 0.241615 0.237434
vt 0.336699 0.237434
vt 0.336699 0.284584
vt 0.628193 0.791574
vt 0.628193 0.804642
vt 0.598879 0.804642
vt 0.598879 0.791574
vt 0.540252 0.000180
vt 0.540252 0.444809
vt 0.445169 0.444809
vt 0.445169 0.000180
vt 0.444809 0.634554
vt 0.349725 0.634554
vt 0.349726 0.189924
vt 0.444809 0.189924
vt 0.202992 0.360689
vt 0.202992 0.407840
vt 0.189924 0.407840
vt 0.189924 0.360689
vt 0.474482 0.569566
vt 0.474482 0.598880
vt 0.445168 0.598880
vt 0.445168 0.569566
vt 0.202992 0.313539
vt 0.189924 0.313539
vt 0.474482 0.723637
vt 0.474482 0.752950
vt 0.445169 0.752950
vt 0.445169 0.723636
vt 0.568783 0.474482
vt 0.521633 0.474482
vt 0.521633 0.445169
vt 0.568783 0.445169
vt 0.628193 0.753310
vt 0.598879 0.753310
vt 0.202992 0.266388
vt 0.189924 0.266388
vt 0.189924 0.219238
vt 0.521633 0.569566
vt 0.568783 0.569566
vt 0.568783 0.598880
vt 0.521633 0.598880
vt 0.241256 0.407840
vt 0.241256 0.437154
vt 0.202992 0.437154
vt 0.615934 0.474482
vt 0.615934 0.445169
vt 0.615934 0.569566
vt 0.722494 0.753310
vt 0.769645 0.753310
vt 0.769645 0.791574
vt 0.722494 0.791574
vt 0.675344 0.753310
vt 0.675344 0.791574
vt 0.816795 0.753310
vt 0.816795 0.791573
vt 0.474482 0.474482
vt 0.474482 0.445169
vt 0.816795 0.804642
vt 0.769645 0.804642
vt 0.846109 0.753310
vt 0.846109 0.791573
vt 0.445168 0.474482
vt 0.474482 0.628553
vt 0.445169 0.628553
vt 0.241256 0.266388
vt 0.241256 0.313539
vt 0.241256 0.360689
vt 0.615934 0.598880
vt 0.189924 0.189924
vt 0.722494 0.804642
vt 0.675344 0.804642
vt 0.663085 0.569566
vt 0.663085 0.598880
vt 0.615934 0.628553
vt 0.568783 0.628553
vt 0.568783 0.599239
vt 0.615934 0.599239
vt 0.521633 0.628553
vt 0.521633 0.599239
vt 0.615934 0.723637
vt 0.568783 0.723637
vt 0.521633 0.723637
vt 0.615934 0.752950
vt 0.568783 0.752950
vt 0.663085 0.599239
vt 0.474482 0.599239
vt 0.521633 0.752950
vt 0.663085 0.752950
vt 0.445169 0.791573
vt 0.474482 0.791574
vt 0.474482 0.804642
vt 0.445169 0.804642
vt 0.569566 0.791573
vt 0.569566 0.804642
vt 0.474482 0.753310
vt 0.445169 0.753310
vt 0.569566 0.753310
vt 0.445169 0.599239
vt 0.692398 0.569566
vt 0.692398 0.598880
vt 0.189924 0.437154
vt 0.875423 0.753310
vt 0.970506 0.753310
vt 0.970506 0.791573
vt 0.875423 0.791573
vt 0.999820 0.753310
vt 0.999820 0.791573
vt 0.875423 0.804642
vt 0.846109 0.804642
vt 0.970506 0.804642
vt 0.999820 0.804642
vt 0.692398 0.599239
vt 0.445168 0.445169
vt 0.692398 0.752950
vn -1.0000 0.0000 0.0000
vn 0.0000 0.0000 -1.0000
vn 1.0000 0.0000 0.0000
vn 0.0000 0.0000 1.0000
vn 0.0000 -1.0000 0.0000
vn 0.0000 1.0000 0.0000
usemtl Material.003
s off
f 1/1/1 2/2/1 4/3/1 3/4/1
f 13/5/2 11/6/2 8/7/2 7/8/2
f 7/8/3 8/7/3 6/9/3 5/10/3
f 18/11/4 16/12/4 2/2/4 1/1/4
f 13/13/5 7/14/5 5/15/5 12/16/5
f 30/17/4 35/18/4 80/19/4 82/20/4
f 8/21/5 20/22/5 69/23/5 59/24/5
f 5/10/4 6/9/4 14/25/4 12/26/4
f 39/27/6 40/28/6 77/29/6 79/30/6
f 3/4/2 4/3/2 17/31/2 15/32/2
f 3/33/5 15/34/5 18/35/5 1/36/5
f 25/37/2 51/38/2 64/39/2 63/40/2
f 12/41/1 14/42/1 11/43/1 13/44/1
f 17/45/3 16/46/3 18/47/3 15/48/3
f 36/49/4 38/50/4 58/51/4 56/52/4
f 2/53/5 30/54/5 82/55/5 71/56/5
f 37/57/4 36/49/4 56/52/4 57/58/4
f 43/59/6 58/60/6 66/61/6 67/62/6
f 9/63/5 17/64/5 21/65/5 22/66/5
f 20/67/2 25/37/2 63/40/2 69/68/2
f 35/18/4 34/69/4 49/70/4 55/71/4
f 16/72/5 10/73/5 32/74/5 29/75/5
f 38/50/4 33/76/4 70/77/4 65/78/4
f 8/21/5 11/79/5 19/80/5 20/22/5
f 17/64/5 9/63/5 11/79/5 14/81/5 10/73/5 16/72/5
f 22/82/2 21/83/2 26/84/2 27/85/2
f 20/67/2 19/86/2 23/87/2 25/37/2
f 21/83/2 24/88/2 28/89/2 26/84/2
f 19/86/2 22/82/2 27/85/2 23/87/2
f 17/64/5 4/90/5 24/91/5 21/65/5
f 26/84/2 28/89/2 54/92/2 52/93/2
f 28/89/2 24/88/2 78/94/2 75/95/2
f 4/90/5 2/53/5 71/56/5 72/96/5
f 42/97/6 43/59/6 67/62/6 68/98/6
f 11/79/5 9/63/5 22/66/5 19/80/5
f 29/99/4 32/100/4 37/57/4 34/69/4
f 32/100/4 31/101/4 36/49/4 37/57/4
f 31/101/4 33/76/4 38/50/4 36/49/4
f 30/17/4 29/99/4 34/69/4 35/18/4
f 10/73/5 14/81/5 31/102/5 32/74/5
f 35/18/4 55/71/4 81/103/4 80/19/4
f 23/87/2 27/85/2 53/104/2 50/105/2
f 14/81/5 6/106/5 33/107/5 31/102/5
f 2/53/5 16/72/5 29/75/5 30/54/5
f 27/85/2 26/84/2 52/93/2 53/104/2
f 45/108/6 46/109/6 53/110/6 52/111/6
f 46/109/6 41/112/6 50/113/6 53/110/6
f 45/108/6 40/28/6 39/27/6 44/114/6
f 41/112/6 46/109/6 48/115/6 47/116/6
f 42/97/6 41/112/6 47/116/6 43/59/6
f 46/109/6 45/108/6 44/114/6 48/115/6
f 48/115/6 44/114/6 49/117/6 57/118/6
f 40/28/6 45/108/6 52/111/6 54/119/6
f 41/112/6 42/97/6 51/120/6 50/113/6
f 43/59/6 47/116/6 56/121/6 58/60/6
f 47/116/6 48/115/6 57/118/6 56/121/6
f 44/114/6 39/27/6 55/122/6 49/117/6
f 34/69/4 37/57/4 57/58/4 49/70/4
f 25/37/2 23/87/2 50/105/2 51/38/2
f 65/123/3 62/124/3 67/125/3 66/126/3
f 61/127/3 63/40/3 64/39/3 68/128/3
f 62/124/3 61/127/3 68/128/3 67/125/3
f 60/129/3 62/124/3 65/123/3 70/130/3
f 60/129/3 59/131/3 61/127/3 62/124/3
f 61/127/3 59/131/3 69/68/3 63/40/3
f 51/120/6 42/97/6 68/98/6 64/132/6
f 6/106/5 8/21/5 59/24/5 60/133/5
f 33/107/5 6/106/5 60/133/5 70/134/5
f 58/51/4 38/50/4 65/78/4 66/135/4
f 72/136/1 71/137/1 73/138/1 74/139/1
f 73/138/1 71/137/1 82/140/1 80/141/1
f 75/95/1 74/139/1 77/142/1 76/143/1
f 74/139/1 73/138/1 79/144/1 77/142/1
f 72/136/1 74/139/1 75/95/1 78/94/1
f 73/138/1 80/141/1 81/145/1 79/144/1
f 40/28/6 54/119/6 76/146/6 77/29/6
f 24/91/5 4/90/5 72/96/5 78/147/5
f 54/92/2 28/89/2 75/95/2 76/143/2
f 55/122/6 39/27/6 79/30/6 81/148/6
