# Blender v2.83.4 OBJ File: 'light post.blend'
# www.blender.org
mtllib light post.mtl
o Cube
v -0.437620 3.000000 -0.437620
v 1.000000 -1.000000 -1.000000
v 0.437620 3.000000 -0.437620
v 1.000000 -1.000000 1.000000
v -0.437620 3.000000 0.437620
v -1.000000 -1.000000 -1.000000
v 0.437620 3.000000 0.437620
v -1.000000 -1.000000 1.000000
v 0.444569 1.018272 -0.444569
v 1.000000 0.448943 -1.000000
v 0.444569 1.018272 0.444569
v 1.000000 0.448943 1.000000
v -0.444569 1.018272 -0.444569
v -1.000000 0.448943 -1.000000
v -0.444569 1.018272 0.444569
v -1.000000 0.448943 1.000000
v 0.437620 5.012610 0.437620
v -0.437620 5.012610 0.437620
v -0.437620 5.012610 -0.437620
v 0.437620 5.012610 -0.437620
v 0.448943 8.000000 0.448943
v -0.448943 8.000000 0.448943
v -0.448943 8.000000 -0.448943
v 0.448943 8.000000 -0.448943
v 0.448943 9.000000 0.448943
v -0.448943 9.724194 0.448943
v -0.448943 9.724194 -0.448943
v 0.448943 9.000000 -0.448943
v 1.175114 9.778374 0.448943
v 1.178858 10.502567 0.448943
v 1.178858 10.502567 -0.448943
v 1.175114 9.778374 -0.448943
v 3.175087 9.768034 0.448943
v 3.178831 10.492228 0.448943
v 3.178831 10.492228 -0.448943
v 3.175087 9.768034 -0.448943
v 2.178844 10.497397 -0.448943
v 2.175101 9.773204 -0.448943
v 2.175101 9.773204 0.448943
v 2.178844 10.497397 0.448943
v 3.170055 8.794622 -0.568466
v 3.170055 8.794622 0.568466
v 2.170068 8.799793 0.568466
v 2.170068 8.799793 -0.568466
v 3.164003 7.624032 -0.588387
v 3.164003 7.624032 0.588387
v 2.164016 7.629202 0.588387
v 2.164016 7.629202 -0.588387
v 3.979153 8.576659 -0.468323
v 3.979153 8.576659 0.468323
v 3.974664 7.708377 -0.468323
v 3.974664 7.708377 0.468323
v 2.915448 8.493623 -1.195895
v 2.421549 8.496176 -1.195895
v 2.911874 7.802409 -1.195895
v 2.417976 7.804962 -1.195895
v 2.421549 8.496176 1.195895
v 2.915448 8.493623 1.195895
v 2.417976 7.804962 1.195895
v 2.911874 7.802409 1.195895
v 1.358759 8.590207 -0.468323
v 1.358759 8.590207 0.468323
v 1.354270 7.721925 -0.468323
v 1.354270 7.721925 0.468323
v 1.911887 7.807578 1.195895
v 1.915461 8.498793 1.195895
v 1.417989 7.810132 1.195895
v 1.421563 8.501346 1.195895
v 3.421536 8.491006 1.195895
v 3.417963 7.799792 1.195895
v 3.915434 8.488453 1.195895
v 3.911861 7.797239 1.195895
v 3.421536 8.491006 -1.195895
v 3.417963 7.799792 -1.195895
v 3.915434 8.488453 -1.195895
v 3.911861 7.797239 -1.195895
v 1.911887 7.807578 -1.195895
v 1.915461 8.498793 -1.195895
v 1.417989 7.810132 -1.195895
v 1.421563 8.501346 -1.195895
vt 0.243655 0.326540
vt 0.243656 0.190304
vt 0.431704 0.190304
vt 0.431704 0.326540
vt 0.243655 0.464279
vt 0.243655 0.328043
vt 0.431704 0.328043
vt 0.431704 0.464279
vt 0.703337 0.445059
vt 0.621043 0.445059
vt 0.621043 0.255824
vt 0.703337 0.255824
vt 0.000752 0.000752
vt 0.188801 0.000752
vt 0.188801 0.188801
vt 0.000752 0.188801
vt 0.187084 0.576531
vt 0.187084 0.660132
vt 0.000752 0.659478
vt 0.000752 0.577184
vt 0.190304 0.136988
vt 0.190304 0.000752
vt 0.378353 0.000752
vt 0.378353 0.136988
vt 0.243655 0.773460
vt 0.243655 0.689859
vt 0.318441 0.637635
vt 0.318441 0.825684
vt 0.746046 0.136576
vt 0.746046 0.052976
vt 0.820831 0.000752
vt 0.820831 0.188800
vt 0.693643 0.686711
vt 0.693643 0.603110
vt 0.768428 0.550886
vt 0.768428 0.738935
vt 0.704840 0.391649
vt 0.704840 0.308048
vt 0.779626 0.255824
vt 0.779626 0.443873
vt 0.000752 0.301875
vt 0.136988 0.301875
vt 0.136988 0.489924
vt 0.000752 0.489924
vt 0.187084 0.491427
vt 0.187084 0.575028
vt 0.000752 0.574374
vt 0.000752 0.492080
vt 0.619540 0.361458
vt 0.619540 0.445059
vt 0.433208 0.444405
vt 0.433208 0.362111
vt 0.712380 0.465782
vt 0.712380 0.549383
vt 0.526048 0.548730
vt 0.526048 0.466436
vt 0.524545 0.552773
vt 0.524545 0.635067
vt 0.243655 0.636132
vt 0.243656 0.551709
vt 0.608342 0.740121
vt 0.526048 0.740121
vt 0.526048 0.550886
vt 0.608342 0.550886
vt 0.692140 0.740121
vt 0.609846 0.740121
vt 0.609845 0.550886
vt 0.692140 0.550886
vt 0.744543 0.189986
vt 0.662249 0.189986
vt 0.662249 0.000752
vt 0.744543 0.000752
vt 0.404368 0.895279
vt 0.319944 0.895279
vt 0.319944 0.801255
vt 0.404368 0.801255
vt 0.660745 0.001816
vt 0.660745 0.084110
vt 0.379856 0.085175
vt 0.379856 0.000752
vt 0.660745 0.087743
vt 0.660745 0.170037
vt 0.379856 0.171101
vt 0.379856 0.086678
vt 0.524545 0.466847
vt 0.524545 0.549141
vt 0.243655 0.550205
vt 0.243656 0.465782
vt 0.532560 0.190304
vt 0.616984 0.190304
vt 0.616984 0.359955
vt 0.532560 0.359955
vt 0.490294 0.799751
vt 0.405871 0.799751
vt 0.405871 0.637635
vt 0.490294 0.637635
vt 0.404368 0.799751
vt 0.319944 0.799751
vt 0.319944 0.637635
vt 0.404368 0.705727
vt 0.000752 0.661635
vt 0.085175 0.661635
vt 0.085175 0.755659
vt 0.000752 0.823751
vt 0.693643 0.848841
vt 0.761735 0.848841
vt 0.761735 0.942865
vt 0.693643 0.942865
vt 0.433208 0.237093
vt 0.531057 0.190304
vt 0.531057 0.359955
vt 0.469779 0.330263
vt 0.236340 0.471526
vt 0.138491 0.424736
vt 0.175062 0.331567
vt 0.236340 0.301875
vt 0.865552 0.355914
vt 0.781129 0.355914
vt 0.781129 0.255824
vt 0.865552 0.255824
vt 0.863648 0.618979
vt 0.863648 0.550886
vt 0.948071 0.550886
vt 0.948071 0.618979
vt 0.523549 0.918119
vt 0.523549 0.850026
vt 0.617574 0.850026
vt 0.617574 0.918119
vt 0.693643 0.836100
vt 0.693643 0.751676
vt 0.785168 0.740438
vt 0.785168 0.847338
vt 0.781129 0.357417
vt 0.865552 0.357417
vt 0.865552 0.451442
vt 0.781129 0.451442
vt 0.822335 0.109154
vt 0.906758 0.109154
vt 0.906758 0.203179
vt 0.822335 0.203179
vt 0.405871 0.885678
vt 0.405871 0.801255
vt 0.499895 0.801255
vt 0.499895 0.885678
vt 0.763239 0.916934
vt 0.763239 0.848841
vt 0.857263 0.848841
vt 0.857263 0.916934
vt 0.086678 0.832485
vt 0.154771 0.832485
vt 0.154771 0.926510
vt 0.086678 0.926510
vt 0.932540 0.357417
vt 0.932540 0.451442
vt 0.867055 0.427649
vt 0.867055 0.381210
vt 0.769932 0.646414
vt 0.863956 0.646414
vt 0.863956 0.738627
vt 0.769931 0.738627
vt 0.617574 0.752862
vt 0.617574 0.837285
vt 0.526048 0.848523
vt 0.526048 0.741624
vt 0.862145 0.550886
vt 0.862145 0.644911
vt 0.769931 0.644911
vt 0.769932 0.550886
vt 0.824529 0.549383
vt 0.713883 0.549383
vt 0.713883 0.455359
vt 0.824529 0.455359
vt 0.786672 0.847338
vt 0.786672 0.740438
vt 0.865459 0.749854
vt 0.865459 0.837922
vt 0.928614 0.628545
vt 0.928614 0.738627
vt 0.866482 0.722954
vt 0.865459 0.657970
vt 0.967759 0.109154
vt 0.967759 0.203179
vt 0.908261 0.179386
vt 0.908261 0.132947
vt 0.826032 0.543426
vt 0.826032 0.455359
vt 0.907673 0.455359
vt 0.907673 0.543426
vt 0.591178 0.919622
vt 0.591178 0.997083
vt 0.523549 0.982561
vt 0.529359 0.936486
vt 0.474539 0.887181
vt 0.474539 0.968822
vt 0.405871 0.960497
vt 0.405871 0.895505
vt 0.163311 0.661635
vt 0.163311 0.772280
vt 0.086678 0.760991
vt 0.086678 0.672924
vt 0.255296 0.138491
vt 0.255296 0.184930
vt 0.190304 0.184930
vt 0.190304 0.138491
vt 0.227969 0.773783
vt 0.227969 0.883865
vt 0.164815 0.854440
vt 0.165837 0.789457
vt 0.930210 0.245833
vt 0.930210 0.355914
vt 0.868078 0.340241
vt 0.867055 0.275257
vt 0.902625 0.094776
vt 0.902625 0.000752
vt 0.962122 0.024544
vt 0.962122 0.070983
vt 0.321791 0.138491
vt 0.321791 0.184930
vt 0.256799 0.184930
vt 0.256799 0.138491
vt 0.065168 0.190304
vt 0.063436 0.300372
vt 0.000752 0.269957
vt 0.002797 0.204997
vt 0.866962 0.946048
vt 0.866962 0.852023
vt 0.932446 0.875816
vt 0.932446 0.922255
vt 0.682232 0.741624
vt 0.682232 0.851706
vt 0.620100 0.836032
vt 0.619077 0.771048
vt 0.230374 0.827187
vt 0.318441 0.827187
vt 0.318441 0.908828
vt 0.230374 0.908828
vt 0.164815 0.772280
vt 0.164815 0.661635
vt 0.241448 0.672924
vt 0.241448 0.760991
vt 0.901122 0.000752
vt 0.901122 0.107651
vt 0.822335 0.098235
vt 0.822335 0.010167
vt 0.999248 0.740438
vt 0.999248 0.817899
vt 0.937429 0.801035
vt 0.931620 0.754960
vt 0.189901 0.538021
vt 0.189901 0.473029
vt 0.236340 0.473029
vt 0.236340 0.538021
vt 0.388396 0.896782
vt 0.388396 0.976130
vt 0.319944 0.966186
vt 0.322644 0.919825
vt 0.687745 0.853209
vt 0.687745 0.934850
vt 0.619077 0.926525
vt 0.619077 0.861533
vt 0.930116 0.740438
vt 0.930116 0.850520
vt 0.866962 0.821095
vt 0.867984 0.756112
vt 0.127045 0.271945
vt 0.127045 0.206953
vt 0.173485 0.206953
vt 0.173485 0.271945
vt 0.298825 0.910331
vt 0.298825 0.989679
vt 0.233073 0.966636
vt 0.230374 0.920275
vt 0.242152 0.198628
vt 0.242152 0.280269
vt 0.978152 0.245833
vt 0.978152 0.310825
vt 0.931713 0.310825
vt 0.931713 0.245833
vt 0.063906 0.825254
vt 0.063906 0.935336
vt 0.000752 0.905911
vt 0.001774 0.840927
vt 0.137618 0.830982
vt 0.091189 0.830014
vt 0.977628 0.455359
vt 0.977628 0.534706
vt 0.909176 0.524762
vt 0.911876 0.478401
vt 0.236340 0.539524
vt 0.236340 0.604516
vt 0.189901 0.604516
vt 0.189901 0.539524
vt 0.997746 0.628545
vt 0.997746 0.706006
vt 0.930117 0.691483
vt 0.935926 0.645409
vt 0.159302 0.967009
vt 0.159302 0.885368
vt 0.227969 0.893693
vt 0.227969 0.958685
vt 0.831691 0.918437
vt 0.831691 0.997784
vt 0.765938 0.974742
vt 0.763239 0.928381
vn 0.0000 0.0000 1.0000
vn -1.0000 0.0000 0.0000
vn 0.0000 0.0000 -1.0000
vn 0.0000 -1.0000 0.0000
vn -1.0000 0.0035 0.0000
vn 1.0000 0.0000 0.0000
vn 0.0000 0.6983 0.7158
vn 0.7158 0.6983 0.0000
vn -0.7158 0.6983 0.0000
vn 0.0000 0.6983 -0.7158
vn 1.0000 0.0035 0.0000
vn 0.0000 0.0035 1.0000
vn 0.0000 0.0035 -1.0000
vn 0.0000 -0.0038 -1.0000
vn 0.0000 -0.0038 1.0000
vn 1.0000 -0.0038 0.0000
vn -1.0000 -0.0038 0.0000
vn -0.4314 0.9022 0.0000
vn 0.7312 -0.6822 0.0000
vn 1.0000 -0.0052 0.0000
vn 0.0052 1.0000 0.0000
vn -0.0052 -1.0000 0.0000
vn 0.0047 0.9009 -0.4341
vn 0.0006 0.1219 0.9925
vn -1.0000 0.0052 0.0000
vn 0.0006 0.1219 -0.9925
vn 0.2601 0.9656 0.0000
vn 0.9252 -0.0007 -0.3796
vn -0.0050 -0.9600 0.2798
vn 0.0783 -0.9800 0.1830
vn 0.9962 -0.0052 -0.0866
vn 0.1035 -0.9946 0.0000
vn -0.9251 0.0088 -0.3796
vn -0.0050 -0.9600 -0.2798
vn 0.9252 -0.0007 0.3796
vn 0.0047 0.9009 0.4341
vn -0.9251 0.0088 0.3796
vn -0.1138 -0.9935 0.0000
vn -0.2501 0.9682 0.0000
vn -0.0884 -0.9791 0.1830
vn -0.1704 0.9531 0.2501
vn -0.9962 0.0052 0.0866
vn 0.1802 0.9513 0.2501
vn 0.9962 -0.0052 0.0866
vn 0.0783 -0.9800 -0.1830
vn 0.1802 0.9513 -0.2501
vn -0.0884 -0.9791 -0.1830
vn -0.9962 0.0052 -0.0866
vn -0.1704 0.9531 -0.2501
usemtl Material
s off
f 4/1/1 12/2/1 16/3/1 8/4/1
f 8/5/2 16/6/2 14/7/2 6/8/2
f 3/9/3 1/10/3 19/11/3 20/12/3
f 6/13/4 2/14/4 4/15/4 8/16/4
f 13/17/5 15/18/5 5/19/5 1/20/5
f 2/21/6 10/22/6 12/23/6 4/24/6
f 11/25/7 15/26/7 16/27/7 12/28/7
f 9/29/8 11/30/8 12/31/8 10/32/8
f 15/33/9 13/34/9 14/35/9 16/36/9
f 13/37/10 9/38/10 10/39/10 14/40/10
f 6/41/3 14/42/3 10/43/3 2/44/3
f 11/45/11 9/46/11 3/47/11 7/48/11
f 15/49/12 11/50/12 7/51/12 5/52/12
f 9/53/13 13/54/13 1/55/13 3/56/13
f 20/57/14 19/58/14 23/59/14 24/60/14
f 7/61/6 3/62/6 20/63/6 17/64/6
f 1/65/2 5/66/2 18/67/2 19/68/2
f 5/69/1 7/70/1 17/71/1 18/72/1
f 21/73/6 24/74/6 28/75/6 25/76/6
f 18/77/15 17/78/15 21/79/15 22/80/15
f 17/81/16 20/82/16 24/83/16 21/84/16
f 19/85/17 18/86/17 22/87/17 23/88/17
f 27/89/18 26/90/18 30/91/18 31/92/18
f 23/93/2 22/94/2 26/95/2 27/96/2
f 24/97/3 23/98/3 27/99/3 28/100/3
f 22/101/1 21/102/1 25/103/1 26/104/1
f 38/105/3 37/106/3 35/107/3 36/108/3
f 28/109/3 27/110/3 31/111/3 32/112/3
f 26/113/1 25/114/1 29/115/1 30/116/1
f 25/117/19 28/118/19 32/119/19 29/120/19
f 36/121/20 35/122/20 34/123/20 33/124/20
f 40/125/1 39/126/1 33/127/1 34/128/1
f 36/129/20 33/130/20 42/131/20 41/132/20
f 37/133/21 40/134/21 34/135/21 35/136/21
f 31/137/21 30/138/21 40/139/21 37/140/21
f 29/141/22 32/142/22 38/143/22 39/144/22
f 30/145/1 29/146/1 39/147/1 40/148/1
f 32/149/3 31/150/3 37/151/3 38/152/3
f 44/153/23 41/154/23 53/155/23 54/156/23
f 33/157/24 39/158/24 43/159/24 42/160/24
f 39/161/25 38/162/25 44/163/25 43/164/25
f 38/165/26 36/166/26 41/167/26 44/168/26
f 47/169/22 48/170/22 45/171/22 46/172/22
f 41/173/27 42/174/27 50/175/27 49/176/27
f 44/177/28 48/178/28 77/179/28 78/180/28
f 47/181/29 46/182/29 60/183/29 59/184/29
f 49/185/20 50/186/20 52/187/20 51/188/20
f 46/189/30 52/190/30 72/191/30 70/192/30
f 49/193/31 51/194/31 76/195/31 75/196/31
f 46/197/32 45/198/32 51/199/32 52/200/32
f 54/201/3 53/202/3 55/203/3 56/204/3
f 48/205/33 44/206/33 54/207/33 56/208/33
f 41/209/28 45/210/28 55/211/28 53/212/28
f 45/213/34 48/214/34 56/215/34 55/216/34
f 58/217/1 57/218/1 59/219/1 60/220/1
f 46/221/35 42/222/35 58/223/35 60/224/35
f 42/225/36 43/226/36 57/227/36 58/228/36
f 43/229/37 47/230/37 59/231/37 57/232/37
f 62/233/25 61/234/25 63/235/25 64/236/25
f 48/237/38 47/238/38 64/239/38 63/240/38
f 43/241/39 44/242/39 61/243/39 62/244/39
f 64/245/40 47/246/40 65/247/40 67/248/40
f 65/249/1 66/250/1 68/251/1 67/252/1
f 43/253/41 62/254/41 68/255/41 66/256/41
f 62/257/42 64/258/42 67/259/42 68/260/42
f 47/261/35 43/262/35 66/263/35 65/264/35
f 69/265/1 70/266/1 72/267/1 71/268/1
f 50/269/43 42/270/43 69/271/43 71/272/43
f 42/222/37 46/221/37 70/266/37 69/265/37
f 52/273/44 50/274/44 71/268/44 72/267/44
f 74/275/3 73/276/3 75/277/3 76/278/3
f 45/279/33 41/280/33 73/281/33 74/282/33
f 51/199/45 45/198/45 74/283/45 76/284/45
f 41/285/46 49/286/46 75/287/46 73/288/46
f 78/289/3 77/290/3 79/291/3 80/292/3
f 48/293/47 63/294/47 79/295/47 77/296/47
f 63/297/48 61/298/48 80/299/48 79/300/48
f 61/301/49 44/302/49 78/303/49 80/304/49
