# Blender v2.83.4 OBJ File: ''
# www.blender.org
mtllib sidestreet.mtl
o sidestreet_Cube
v 1.000000 1.000000 -1.000000
v 1.000000 -1.000000 -1.000000
v 1.000000 1.000000 1.000000
v 1.000000 -1.000000 1.000000
v -1.000000 1.000000 -1.000000
v -1.000000 -1.000000 -1.000000
v -1.000000 1.000000 1.000000
v -1.000000 -1.000000 1.000000
v 3.000000 1.000000 -1.000000
v 3.000000 -1.000000 -1.000000
v 3.000000 1.000000 1.000000
v 3.000000 -1.000000 1.000000
v 5.000000 1.000000 -1.000000
v 5.000000 -1.000000 -1.000000
v 5.000000 1.000000 1.000000
v 5.000000 -1.000000 1.000000
v 7.000000 1.000000 -1.000000
v 7.000000 -1.000000 -1.000000
v 7.000000 1.000000 1.000000
v 7.000000 -1.000000 1.000000
v 9.000000 1.000000 -1.000000
v 9.000000 -1.000000 -1.000000
v 9.000000 1.000000 1.000000
v 9.000000 -1.000000 1.000000
v 11.000000 1.000000 -1.000000
v 11.000000 -1.000000 -1.000000
v 11.000000 1.000000 1.000000
v 11.000000 -1.000000 1.000000
v 13.000000 1.000000 -1.000000
v 13.000000 -1.000000 -1.000000
v 13.000000 1.000000 1.000000
v 13.000000 -1.000000 1.000000
v 15.000000 1.000000 -1.000000
v 15.000000 -1.000000 -1.000000
v 15.000000 1.000000 1.000000
v 15.000000 -1.000000 1.000000
v 1.000000 -1.000000 -3.000000
v -1.000000 -1.000000 -3.000000
v 1.000000 1.000000 -3.000000
v -1.000000 1.000000 -3.000000
v 3.000000 1.000000 -3.000000
v 3.000000 -1.000000 -3.000000
v 5.000000 1.000000 -3.000000
v 5.000000 -1.000000 -3.000000
v 7.000000 1.000000 -3.000000
v 7.000000 -1.000000 -3.000000
v 9.000000 1.000000 -3.000000
v 9.000000 -1.000000 -3.000000
v 11.000000 1.000000 -3.000000
v 11.000000 -1.000000 -3.000000
v 13.000000 1.000000 -3.000000
v 13.000000 -1.000000 -3.000000
v 15.000000 1.000000 -3.000000
v 15.000000 -1.000000 -3.000000
v 1.000000 -1.000000 -5.000000
v -1.000000 -1.000000 -5.000000
v 1.000000 1.000000 -5.000000
v -1.000000 1.000000 -5.000000
v 3.000000 1.000000 -5.000000
v 3.000000 -1.000000 -5.000000
v 5.000000 1.000000 -5.000000
v 5.000000 -1.000000 -5.000000
v 7.000000 1.000000 -5.000000
v 7.000000 -1.000000 -5.000000
v 9.000000 1.000000 -5.000000
v 9.000000 -1.000000 -5.000000
v 11.000000 1.000000 -5.000000
v 11.000000 -1.000000 -5.000000
v 13.000000 1.000000 -5.000000
v 13.000000 -1.000000 -5.000000
v 15.000000 1.000000 -5.000000
v 15.000000 -1.000000 -5.000000
v 1.000000 -1.000000 -7.000000
v -1.000000 -1.000000 -7.000000
v 1.000000 1.000000 -7.000000
v -1.000000 1.000000 -7.000000
v 3.000000 1.000000 -7.000000
v 3.000000 -1.000000 -7.000000
v 5.000000 1.000000 -7.000000
v 5.000000 -1.000000 -7.000000
v 7.000000 1.000000 -7.000000
v 7.000000 -1.000000 -7.000000
v 9.000000 1.000000 -7.000000
v 9.000000 -1.000000 -7.000000
v 11.000000 1.000000 -7.000000
v 11.000000 -1.000000 -7.000000
v 13.000000 1.000000 -7.000000
v 13.000000 -1.000000 -7.000000
v 15.000000 1.000000 -7.000000
v 15.000000 -1.000000 -7.000000
v 1.000000 -1.000000 -9.000000
v -1.000000 -1.000000 -9.000000
v 1.000000 1.000000 -9.000000
v -1.000000 1.000000 -9.000000
v 3.000000 1.000000 -9.000000
v 3.000000 -1.000000 -9.000000
v 5.000000 1.000000 -9.000000
v 5.000000 -1.000000 -9.000000
v 7.000000 1.000000 -9.000000
v 7.000000 -1.000000 -9.000000
v 9.000000 1.000000 -9.000000
v 9.000000 -1.000000 -9.000000
v 11.000000 1.000000 -9.000000
v 11.000000 -1.000000 -9.000000
v 13.000000 1.000000 -9.000000
v 13.000000 -1.000000 -9.000000
v 15.000000 1.000000 -9.000000
v 15.000000 -1.000000 -9.000000
v 1.000000 -1.000000 -11.000000
v -1.000000 -1.000000 -11.000000
v 1.000000 1.000000 -11.000000
v -1.000000 1.000000 -11.000000
v 3.000000 1.000000 -11.000000
v 3.000000 -1.000000 -11.000000
v 5.000000 1.000000 -11.000000
v 5.000000 -1.000000 -11.000000
v 7.000000 1.000000 -11.000000
v 7.000000 -1.000000 -11.000000
v 9.000000 1.000000 -11.000000
v 9.000000 -1.000000 -11.000000
v 11.000000 1.000000 -11.000000
v 11.000000 -1.000000 -11.000000
v 13.000000 1.000000 -11.000000
v 13.000000 -1.000000 -11.000000
v 15.000000 1.000000 -11.000000
v 15.000000 -1.000000 -11.000000
v 1.000000 -1.000000 -13.000000
v -1.000000 -1.000000 -13.000000
v 1.000000 1.000000 -13.000000
v -1.000000 1.000000 -13.000000
v 3.000000 1.000000 -13.000000
v 3.000000 -1.000000 -13.000000
v 5.000000 1.000000 -13.000000
v 5.000000 -1.000000 -13.000000
v 7.000000 1.000000 -13.000000
v 7.000000 -1.000000 -13.000000
v 9.000000 1.000000 -13.000000
v 9.000000 -1.000000 -13.000000
v 11.000000 1.000000 -13.000000
v 11.000000 -1.000000 -13.000000
v 13.000000 1.000000 -13.000000
v 13.000000 -1.000000 -13.000000
v 15.000000 1.000000 -13.000000
v 15.000000 -1.000000 -13.000000
v 1.000000 -1.000000 -15.000000
v -1.000000 -1.000000 -15.000000
v 1.000000 1.000000 -15.000000
v -1.000000 1.000000 -15.000000
v 3.000000 1.000000 -15.000000
v 3.000000 -1.000000 -15.000000
v 5.000000 1.000000 -15.000000
v 5.000000 -1.000000 -15.000000
v 7.000000 1.000000 -15.000000
v 7.000000 -1.000000 -15.000000
v 9.000000 1.000000 -15.000000
v 9.000000 -1.000000 -15.000000
v 11.000000 1.000000 -15.000000
v 11.000000 -1.000000 -15.000000
v 13.000000 1.000000 -15.000000
v 13.000000 -1.000000 -15.000000
v 15.000000 1.000000 -15.000000
v 15.000000 -1.000000 -15.000000
vt 0.693500 0.155039
vt 0.768038 0.155039
vt 0.768038 0.229577
vt 0.693500 0.229577
vt 0.539654 0.844961
vt 0.539654 0.770423
vt 0.614192 0.770423
vt 0.614192 0.844961
vt 0.306500 0.847346
vt 0.306500 0.921884
vt 0.231962 0.921884
vt 0.231962 0.847346
vt 0.001193 0.770423
vt 0.075730 0.770423
vt 0.075730 0.844961
vt 0.001193 0.844961
vt 0.383423 0.847346
vt 0.383423 0.921884
vt 0.308885 0.921884
vt 0.308885 0.847346
vt 0.383423 0.768038
vt 0.308885 0.768038
vt 0.308885 0.693500
vt 0.383423 0.693500
vt 0.306500 0.924269
vt 0.306500 0.998807
vt 0.231962 0.998807
vt 0.231962 0.924269
vt 0.691115 0.460346
vt 0.616577 0.460346
vt 0.616577 0.385808
vt 0.691115 0.385808
vt 0.844961 0.770423
vt 0.844961 0.844961
vt 0.770423 0.844961
vt 0.770423 0.770423
vt 0.921884 0.231962
vt 0.921884 0.306500
vt 0.847346 0.306500
vt 0.847346 0.231962
vt 0.844961 0.693500
vt 0.844961 0.768038
vt 0.770423 0.768038
vt 0.770423 0.693500
vt 0.537269 0.768038
vt 0.462731 0.768038
vt 0.462731 0.693500
vt 0.537269 0.693500
vt 0.768038 0.001193
vt 0.768038 0.075730
vt 0.693500 0.075730
vt 0.693500 0.001193
vt 0.998807 0.308885
vt 0.998807 0.383423
vt 0.924269 0.383423
vt 0.924269 0.308885
vt 0.229577 0.770423
vt 0.229577 0.844961
vt 0.155039 0.844961
vt 0.155039 0.770423
vt 0.537269 0.847346
vt 0.537269 0.921884
vt 0.462731 0.921884
vt 0.462731 0.847346
vt 0.921884 0.847346
vt 0.921884 0.921884
vt 0.847346 0.921884
vt 0.847346 0.847346
vt 0.691115 0.691115
vt 0.616577 0.691115
vt 0.616577 0.616577
vt 0.691115 0.616577
vt 0.075730 0.768038
vt 0.001193 0.768038
vt 0.001193 0.693500
vt 0.075730 0.693500
vt 0.537269 0.691115
vt 0.462731 0.691115
vt 0.462731 0.616577
vt 0.537269 0.616577
vt 0.768038 0.693500
vt 0.768038 0.768038
vt 0.693500 0.768038
vt 0.693500 0.693500
vt 0.768038 0.231962
vt 0.768038 0.306500
vt 0.693500 0.306500
vt 0.693500 0.231962
vt 0.614192 0.155039
vt 0.614192 0.229577
vt 0.539654 0.229577
vt 0.539654 0.155039
vt 0.001193 0.231962
vt 0.075730 0.231962
vt 0.075730 0.306500
vt 0.001193 0.306500
vt 0.075730 0.462731
vt 0.075730 0.537269
vt 0.001193 0.537269
vt 0.001193 0.462731
vt 0.537269 0.231962
vt 0.537269 0.306500
vt 0.462731 0.306500
vt 0.462731 0.231962
vt 0.539654 0.847346
vt 0.614192 0.847346
vt 0.614192 0.921884
vt 0.539654 0.921884
vt 0.921884 0.539654
vt 0.921884 0.614192
vt 0.847346 0.614192
vt 0.847346 0.539654
vt 0.998807 0.616577
vt 0.998807 0.691115
vt 0.924269 0.691115
vt 0.924269 0.616577
vt 0.768038 0.844961
vt 0.693500 0.844961
vt 0.693500 0.770423
vt 0.768038 0.770423
vt 0.770423 0.691115
vt 0.770423 0.616577
vt 0.844961 0.616577
vt 0.844961 0.691115
vt 0.385808 0.847346
vt 0.460346 0.847346
vt 0.460346 0.921884
vt 0.385808 0.921884
vt 0.768038 0.847346
vt 0.768038 0.921884
vt 0.693500 0.921884
vt 0.693500 0.847346
vt 0.921884 0.770423
vt 0.921884 0.844961
vt 0.847346 0.844961
vt 0.847346 0.770423
vt 0.844961 0.537269
vt 0.770423 0.537269
vt 0.770423 0.462731
vt 0.844961 0.462731
vt 0.998807 0.537269
vt 0.924269 0.537269
vt 0.924269 0.462731
vt 0.998807 0.462731
vt 0.229577 0.847346
vt 0.229577 0.921884
vt 0.155039 0.921884
vt 0.155039 0.847346
vt 0.537269 0.075730
vt 0.462731 0.075730
vt 0.462731 0.001193
vt 0.537269 0.001193
vt 0.460346 0.460346
vt 0.385808 0.460346
vt 0.385808 0.385808
vt 0.460346 0.385808
vt 0.691115 0.462731
vt 0.691115 0.537269
vt 0.616577 0.537269
vt 0.616577 0.462731
vt 0.229577 0.693500
vt 0.229577 0.768038
vt 0.155039 0.768038
vt 0.155039 0.693500
vt 0.460346 0.537269
vt 0.385808 0.537269
vt 0.385808 0.462731
vt 0.460346 0.462731
vt 0.306500 0.768038
vt 0.231962 0.768038
vt 0.231962 0.693500
vt 0.306500 0.693500
vt 0.460346 0.768038
vt 0.385808 0.768038
vt 0.385808 0.693500
vt 0.460346 0.693500
vt 0.075730 0.847346
vt 0.075730 0.921884
vt 0.001193 0.921884
vt 0.001193 0.847346
vt 0.768038 0.383423
vt 0.693500 0.383423
vt 0.693500 0.308885
vt 0.768038 0.308885
vt 0.691115 0.614192
vt 0.616577 0.614192
vt 0.616577 0.539654
vt 0.691115 0.539654
vt 0.768038 0.152654
vt 0.693500 0.152654
vt 0.693500 0.078116
vt 0.768038 0.078116
vt 0.768038 0.537269
vt 0.693500 0.537269
vt 0.693500 0.462731
vt 0.768038 0.462731
vt 0.614192 0.691115
vt 0.539654 0.691115
vt 0.539654 0.616577
vt 0.614192 0.616577
vt 0.921884 0.385808
vt 0.921884 0.460346
vt 0.847346 0.460346
vt 0.847346 0.385808
vt 0.152653 0.844961
vt 0.078116 0.844961
vt 0.078116 0.770423
vt 0.152653 0.770423
vt 0.231962 0.537269
vt 0.231962 0.462731
vt 0.306500 0.462731
vt 0.306500 0.537269
vt 0.539654 0.231962
vt 0.614192 0.231962
vt 0.614192 0.306500
vt 0.539654 0.306500
vt 0.616577 0.231962
vt 0.691115 0.231962
vt 0.691115 0.306500
vt 0.616577 0.306500
vt 0.462731 0.229577
vt 0.462731 0.155039
vt 0.537269 0.155039
vt 0.537269 0.229577
vt 0.614192 0.998807
vt 0.539654 0.998807
vt 0.539654 0.924269
vt 0.614192 0.924269
vt 0.770423 0.539654
vt 0.844961 0.539654
vt 0.844961 0.614192
vt 0.770423 0.614192
vt 0.155039 0.537269
vt 0.155039 0.462731
vt 0.229577 0.462731
vt 0.229577 0.537269
vt 0.847346 0.616577
vt 0.921884 0.616577
vt 0.921884 0.691115
vt 0.847346 0.691115
vt 0.308885 0.385808
vt 0.383423 0.385808
vt 0.383423 0.460346
vt 0.308885 0.460346
vt 0.847346 0.308885
vt 0.921884 0.308885
vt 0.921884 0.383423
vt 0.847346 0.383423
vt 0.768038 0.614192
vt 0.693500 0.614192
vt 0.693500 0.539654
vt 0.768038 0.539654
vt 0.921884 0.152654
vt 0.847346 0.152654
vt 0.847346 0.078116
vt 0.921884 0.078116
vt 0.385808 0.231962
vt 0.460346 0.231962
vt 0.460346 0.306500
vt 0.385808 0.306500
vt 0.078116 0.847346
vt 0.152653 0.847346
vt 0.152653 0.921884
vt 0.078116 0.921884
vt 0.229577 0.998807
vt 0.155039 0.998807
vt 0.155039 0.924270
vt 0.229577 0.924270
vt 0.460346 0.616577
vt 0.460346 0.691115
vt 0.385808 0.691115
vt 0.385808 0.616577
vt 0.998807 0.231962
vt 0.998807 0.306500
vt 0.924269 0.306500
vt 0.924269 0.231962
vt 0.229577 0.460346
vt 0.155039 0.460346
vt 0.155039 0.385808
vt 0.229577 0.385808
vt 0.462731 0.614192
vt 0.462731 0.539654
vt 0.537269 0.539654
vt 0.537269 0.614192
vt 0.155039 0.614192
vt 0.155039 0.539654
vt 0.229577 0.539654
vt 0.229577 0.614192
vt 0.691115 0.001193
vt 0.691115 0.075730
vt 0.616577 0.075730
vt 0.616577 0.001193
vt 0.691115 0.155039
vt 0.691115 0.229577
vt 0.616577 0.229577
vt 0.616577 0.155039
vt 0.616577 0.383423
vt 0.616577 0.308885
vt 0.691115 0.308885
vt 0.691115 0.383423
vt 0.001193 0.691115
vt 0.001193 0.616577
vt 0.075730 0.616577
vt 0.075730 0.691115
vt 0.306500 0.539654
vt 0.306500 0.614192
vt 0.231962 0.614192
vt 0.231962 0.539654
vt 0.614192 0.308885
vt 0.614192 0.383423
vt 0.539654 0.383423
vt 0.539654 0.308885
vt 0.308885 0.537269
vt 0.308885 0.462731
vt 0.383423 0.462731
vt 0.383423 0.537269
vt 0.385808 0.539654
vt 0.460346 0.539654
vt 0.460346 0.614192
vt 0.385808 0.614192
vt 0.308885 0.539654
vt 0.383423 0.539654
vt 0.383423 0.614192
vt 0.308885 0.614192
vt 0.462731 0.383423
vt 0.462731 0.308885
vt 0.537269 0.308885
vt 0.537269 0.383423
vt 0.462731 0.460346
vt 0.462731 0.385808
vt 0.537269 0.385808
vt 0.537269 0.460346
vt 0.921884 0.462731
vt 0.921884 0.537269
vt 0.847346 0.537269
vt 0.847346 0.462731
vt 0.539654 0.385808
vt 0.614192 0.385808
vt 0.614192 0.460346
vt 0.539654 0.460346
vt 0.308885 0.616577
vt 0.383423 0.616577
vt 0.383423 0.691115
vt 0.308885 0.691115
vt 0.231962 0.460346
vt 0.231962 0.385808
vt 0.306500 0.385808
vt 0.306500 0.460346
vt 0.462731 0.152654
vt 0.462731 0.078116
vt 0.537269 0.078116
vt 0.537269 0.152654
vt 0.229577 0.383423
vt 0.155039 0.383423
vt 0.155039 0.308885
vt 0.229577 0.308885
vt 0.383423 0.383423
vt 0.308885 0.383423
vt 0.308885 0.308885
vt 0.383423 0.308885
vt 0.152654 0.460346
vt 0.078116 0.460346
vt 0.078116 0.385808
vt 0.152654 0.385808
vt 0.460346 0.075730
vt 0.385808 0.075730
vt 0.385808 0.001193
vt 0.460346 0.001193
vt 0.383423 0.306500
vt 0.308885 0.306500
vt 0.308885 0.231962
vt 0.383423 0.231962
vt 0.075730 0.460346
vt 0.001193 0.460346
vt 0.001193 0.385808
vt 0.075730 0.385808
vt 0.460346 0.152654
vt 0.385808 0.152654
vt 0.385808 0.078116
vt 0.460346 0.078116
vt 0.306500 0.383423
vt 0.231962 0.383423
vt 0.231962 0.308885
vt 0.306500 0.308885
vt 0.152654 0.616577
vt 0.152654 0.691115
vt 0.078116 0.691115
vt 0.078116 0.616577
vt 0.229577 0.616577
vt 0.229577 0.691115
vt 0.155039 0.691115
vt 0.155039 0.616577
vt 0.768038 0.616577
vt 0.768038 0.691115
vt 0.693500 0.691115
vt 0.693500 0.616577
vt 0.231962 0.691115
vt 0.231962 0.616577
vt 0.306500 0.616577
vt 0.306500 0.691115
vt 0.616577 0.152654
vt 0.616577 0.078116
vt 0.691115 0.078116
vt 0.691115 0.152654
vt 0.844961 0.152654
vt 0.770423 0.152654
vt 0.770423 0.078116
vt 0.844961 0.078116
vt 0.998807 0.075730
vt 0.924269 0.075730
vt 0.924269 0.001193
vt 0.998807 0.001193
vt 0.001193 0.924270
vt 0.075730 0.924270
vt 0.075730 0.998807
vt 0.001193 0.998807
vt 0.385808 0.383423
vt 0.385808 0.308885
vt 0.460346 0.308885
vt 0.460346 0.383423
vt 0.460346 0.155039
vt 0.460346 0.229577
vt 0.385808 0.229577
vt 0.385808 0.155039
vt 0.770423 0.385808
vt 0.844961 0.385808
vt 0.844961 0.460346
vt 0.770423 0.460346
vt 0.998807 0.078116
vt 0.998807 0.152654
vt 0.924269 0.152654
vt 0.924269 0.078116
vt 0.383423 0.998807
vt 0.308885 0.998807
vt 0.308885 0.924269
vt 0.383423 0.924269
vt 0.998807 0.229577
vt 0.924269 0.229577
vt 0.924269 0.155039
vt 0.998807 0.155039
vt 0.770423 0.308885
vt 0.844961 0.308885
vt 0.844961 0.383423
vt 0.770423 0.383423
vt 0.462731 0.462731
vt 0.537269 0.462731
vt 0.537269 0.537269
vt 0.462731 0.537269
vt 0.383423 0.844961
vt 0.308885 0.844961
vt 0.308885 0.770423
vt 0.383423 0.770423
vt 0.844961 0.229577
vt 0.770423 0.229577
vt 0.770423 0.155039
vt 0.844961 0.155039
vt 0.537269 0.924269
vt 0.537269 0.998807
vt 0.462731 0.998807
vt 0.462731 0.924269
vt 0.462731 0.770423
vt 0.537269 0.770423
vt 0.537269 0.844961
vt 0.462731 0.844961
vt 0.770423 0.001193
vt 0.844961 0.001193
vt 0.844961 0.075730
vt 0.770423 0.075730
vt 0.691115 0.768038
vt 0.616577 0.768038
vt 0.616577 0.693500
vt 0.691115 0.693500
vt 0.152653 0.998807
vt 0.078116 0.998807
vt 0.078116 0.924270
vt 0.152653 0.924270
vt 0.770423 0.847346
vt 0.844961 0.847346
vt 0.844961 0.921884
vt 0.770423 0.921884
vt 0.078116 0.537269
vt 0.078116 0.462731
vt 0.152654 0.462731
vt 0.152654 0.537269
vt 0.691115 0.924269
vt 0.691115 0.998807
vt 0.616577 0.998807
vt 0.616577 0.924269
vt 0.460346 0.998807
vt 0.385808 0.998807
vt 0.385808 0.924269
vt 0.460346 0.924269
vt 0.691115 0.844961
vt 0.616577 0.844961
vt 0.616577 0.770423
vt 0.691115 0.770423
vt 0.614192 0.768038
vt 0.539654 0.768038
vt 0.539654 0.693500
vt 0.614192 0.693500
vt 0.693500 0.385808
vt 0.768038 0.385808
vt 0.768038 0.460346
vt 0.693500 0.460346
vt 0.847346 0.001193
vt 0.921884 0.001193
vt 0.921884 0.075730
vt 0.847346 0.075730
vt 0.921884 0.693500
vt 0.921884 0.768038
vt 0.847346 0.768038
vt 0.847346 0.693500
vt 0.998807 0.460346
vt 0.924269 0.460346
vt 0.924269 0.385808
vt 0.998807 0.385808
vt 0.691115 0.921884
vt 0.616577 0.921884
vt 0.616577 0.847346
vt 0.691115 0.847346
vt 0.847346 0.155039
vt 0.921884 0.155039
vt 0.921884 0.229577
vt 0.847346 0.229577
vt 0.001193 0.308885
vt 0.075730 0.308885
vt 0.075730 0.383423
vt 0.001193 0.383423
vt 0.152654 0.001193
vt 0.152654 0.075731
vt 0.078116 0.075730
vt 0.078116 0.001193
vt 0.152654 0.152654
vt 0.078116 0.152654
vt 0.078116 0.078116
vt 0.152654 0.078116
vt 0.229577 0.152654
vt 0.155039 0.152654
vt 0.155039 0.078116
vt 0.229577 0.078116
vt 0.075730 0.078116
vt 0.075730 0.152654
vt 0.001193 0.152654
vt 0.001193 0.078116
vt 0.229577 0.001193
vt 0.229577 0.075731
vt 0.155039 0.075730
vt 0.155039 0.001193
vt 0.152654 0.539654
vt 0.152654 0.614192
vt 0.078116 0.614192
vt 0.078116 0.539654
vt 0.152654 0.229577
vt 0.078116 0.229577
vt 0.078116 0.155039
vt 0.152654 0.155039
vt 0.229577 0.229577
vt 0.155039 0.229577
vt 0.155039 0.155039
vt 0.229577 0.155039
vt 0.075730 0.001193
vt 0.075730 0.075731
vt 0.001193 0.075730
vt 0.001193 0.001193
vt 0.075730 0.155039
vt 0.075730 0.229577
vt 0.001193 0.229577
vt 0.001193 0.155039
vt 0.614192 0.462731
vt 0.614192 0.537269
vt 0.539654 0.537269
vt 0.539654 0.462731
vt 0.460346 0.770423
vt 0.460346 0.844961
vt 0.385808 0.844961
vt 0.385808 0.770423
vt 0.152654 0.693500
vt 0.152654 0.768038
vt 0.078116 0.768038
vt 0.078116 0.693500
vt 0.306500 0.770423
vt 0.306500 0.844961
vt 0.231962 0.844961
vt 0.231962 0.770423
vt 0.231962 0.001193
vt 0.306500 0.001193
vt 0.306500 0.075730
vt 0.231962 0.075731
vt 0.844961 0.231962
vt 0.844961 0.306500
vt 0.770423 0.306500
vt 0.770423 0.231962
vt 0.614192 0.001193
vt 0.614192 0.075730
vt 0.539654 0.075730
vt 0.539654 0.001193
vt 0.614192 0.078116
vt 0.614192 0.152654
vt 0.539654 0.152654
vt 0.539654 0.078116
vt 0.155039 0.231962
vt 0.229577 0.231962
vt 0.229577 0.306500
vt 0.155039 0.306500
vt 0.078116 0.231962
vt 0.152654 0.231962
vt 0.152654 0.306500
vt 0.078116 0.306500
vt 0.308885 0.155039
vt 0.383423 0.155039
vt 0.383423 0.229577
vt 0.308885 0.229577
vt 0.075730 0.539654
vt 0.075730 0.614192
vt 0.001193 0.614192
vt 0.001193 0.539654
vt 0.231962 0.155039
vt 0.306500 0.155039
vt 0.306500 0.229577
vt 0.231962 0.229577
vt 0.308885 0.001193
vt 0.383423 0.001193
vt 0.383423 0.075730
vt 0.308885 0.075730
vt 0.308885 0.078116
vt 0.383423 0.078116
vt 0.383423 0.152654
vt 0.308885 0.152654
vt 0.231962 0.231962
vt 0.306500 0.231962
vt 0.306500 0.306500
vt 0.231962 0.306500
vt 0.078116 0.308885
vt 0.152654 0.308885
vt 0.152654 0.383423
vt 0.078116 0.383423
vt 0.231962 0.078116
vt 0.306500 0.078116
vt 0.306500 0.152654
vt 0.231962 0.152654
vn 0.0000 1.0000 0.0000
vn 0.0000 0.0000 1.0000
vn -1.0000 0.0000 0.0000
vn 0.0000 -1.0000 0.0000
vn 1.0000 0.0000 0.0000
vn 0.0000 0.0000 -1.0000
usemtl Material
s off
f 1/1/1 5/2/1 7/3/1 3/4/1
f 4/5/2 3/6/2 7/7/2 8/8/2
f 8/9/3 7/10/3 5/11/3 6/12/3
f 6/13/4 2/14/4 4/15/4 8/16/4
f 3/17/2 4/18/2 12/19/2 11/20/2
f 30/21/4 26/22/4 50/23/4 52/24/4
f 9/25/1 11/26/1 15/27/1 13/28/1
f 17/29/1 21/30/1 47/31/1 45/32/1
f 4/33/4 2/34/4 10/35/4 12/36/4
f 1/37/1 3/38/1 11/39/1 9/40/1
f 16/41/4 14/42/4 18/43/4 20/44/4
f 14/45/4 10/46/4 42/47/4 44/48/4
f 12/49/4 10/50/4 14/51/4 16/52/4
f 11/53/2 12/54/2 16/55/2 15/56/2
f 17/57/1 19/58/1 23/59/1 21/60/1
f 15/61/2 16/62/2 20/63/2 19/64/2
f 13/65/1 15/66/1 19/67/1 17/68/1
f 21/69/1 25/70/1 49/71/1 47/72/1
f 1/73/1 9/74/1 41/75/1 39/76/1
f 9/77/1 13/78/1 43/79/1 41/80/1
f 20/81/4 18/82/4 22/83/4 24/84/4
f 19/85/2 20/86/2 24/87/2 23/88/2
f 28/89/4 26/90/4 30/91/4 32/92/4
f 24/93/4 22/94/4 26/95/4 28/96/4
f 23/97/2 24/98/2 28/99/2 27/100/2
f 21/101/1 23/102/1 27/103/1 25/104/1
f 29/105/1 31/106/1 35/107/1 33/108/1
f 27/109/2 28/110/2 32/111/2 31/112/2
f 25/113/1 27/114/1 31/115/1 29/116/1
f 5/117/1 1/118/1 39/119/1 40/120/1
f 34/121/5 33/122/5 35/123/5 36/124/5
f 18/125/4 14/126/4 44/127/4 46/128/4
f 32/129/4 30/130/4 34/131/4 36/132/4
f 31/133/2 32/134/2 36/135/2 35/136/2
f 40/137/1 39/138/1 57/139/1 58/140/1
f 47/141/1 49/142/1 67/143/1 65/144/1
f 38/145/3 40/146/3 58/147/3 56/148/3
f 54/149/4 52/150/4 70/151/4 72/152/4
f 44/153/4 42/154/4 60/155/4 62/156/4
f 51/157/1 53/158/1 71/159/1 69/160/1
f 41/161/1 43/162/1 61/163/1 59/164/1
f 48/165/4 46/166/4 64/167/4 66/168/4
f 10/169/4 2/170/4 37/171/4 42/172/4
f 26/173/4 22/174/4 48/175/4 50/176/4
f 6/177/3 5/178/3 40/179/3 38/180/3
f 22/181/4 18/182/4 46/183/4 48/184/4
f 13/185/1 17/186/1 45/187/1 43/188/1
f 29/189/1 33/190/1 53/191/1 51/192/1
f 34/193/4 30/194/4 52/195/4 54/196/4
f 25/197/1 29/198/1 51/199/1 49/200/1
f 33/201/5 34/202/5 54/203/5 53/204/5
f 2/205/4 6/206/4 38/207/4 37/208/4
f 61/209/1 63/210/1 81/211/1 79/212/1
f 64/213/4 62/214/4 80/215/4 82/216/4
f 68/217/4 66/218/4 84/219/4 86/220/4
f 58/221/1 57/222/1 75/223/1 76/224/1
f 65/225/1 67/226/1 85/227/1 83/228/1
f 56/229/3 58/230/3 76/231/3 74/232/3
f 72/233/4 70/234/4 88/235/4 90/236/4
f 62/237/4 60/238/4 78/239/4 80/240/4
f 50/241/4 48/242/4 66/243/4 68/244/4
f 46/245/4 44/246/4 62/247/4 64/248/4
f 43/249/1 45/250/1 63/251/1 61/252/1
f 39/253/1 41/254/1 59/255/1 57/256/1
f 52/257/4 50/258/4 68/259/4 70/260/4
f 42/261/4 37/262/4 55/263/4 60/264/4
f 49/265/1 51/266/1 69/267/1 67/268/1
f 45/269/1 47/270/1 65/271/1 63/272/1
f 53/273/5 54/274/5 72/275/5 71/276/5
f 37/277/4 38/278/4 56/279/4 55/280/4
f 78/281/4 73/282/4 91/283/4 96/284/4
f 88/285/4 86/286/4 104/287/4 106/288/4
f 75/289/1 77/290/1 95/291/1 93/292/1
f 79/293/1 81/294/1 99/295/1 97/296/1
f 82/297/4 80/298/4 98/299/4 100/300/4
f 86/301/4 84/302/4 102/303/4 104/304/4
f 76/305/1 75/306/1 93/307/1 94/308/1
f 83/309/1 85/310/1 103/311/1 101/312/1
f 57/313/1 59/314/1 77/315/1 75/316/1
f 70/317/4 68/318/4 86/319/4 88/320/4
f 60/321/4 55/322/4 73/323/4 78/324/4
f 67/325/1 69/326/1 87/327/1 85/328/1
f 63/329/1 65/330/1 83/331/1 81/332/1
f 71/333/5 72/334/5 90/335/5 89/336/5
f 55/337/4 56/338/4 74/339/4 73/340/4
f 66/341/4 64/342/4 82/343/4 84/344/4
f 59/345/1 61/346/1 79/347/1 77/348/1
f 69/349/1 71/350/1 89/351/1 87/352/1
f 99/353/1 101/354/1 119/355/1 117/356/1
f 103/357/1 105/358/1 123/359/1 121/360/1
f 96/361/4 91/362/4 109/363/4 114/364/4
f 106/365/4 104/366/4 122/367/4 124/368/4
f 93/369/1 95/370/1 113/371/1 111/372/1
f 97/373/1 99/374/1 117/375/1 115/376/1
f 100/377/4 98/378/4 116/379/4 118/380/4
f 104/381/4 102/382/4 120/383/4 122/384/4
f 85/385/1 87/386/1 105/387/1 103/388/1
f 81/389/1 83/390/1 101/391/1 99/392/1
f 89/393/5 90/394/5 108/395/5 107/396/5
f 73/397/4 74/398/4 92/399/4 91/400/4
f 84/401/4 82/402/4 100/403/4 102/404/4
f 77/405/1 79/406/1 97/407/1 95/408/1
f 87/409/1 89/410/1 107/411/1 105/412/1
f 80/413/4 78/414/4 96/415/4 98/416/4
f 90/417/4 88/418/4 106/419/4 108/420/4
f 74/421/3 76/422/3 94/423/3 92/424/3
f 109/425/4 110/426/4 128/427/4 127/428/4
f 125/429/5 126/430/5 144/431/5 143/432/5
f 117/433/1 119/434/1 137/435/1 135/436/1
f 121/437/1 123/438/1 141/439/1 139/440/1
f 114/441/4 109/442/4 127/443/4 132/444/4
f 124/445/4 122/446/4 140/447/4 142/448/4
f 111/449/1 113/450/1 131/451/1 129/452/1
f 115/453/1 117/454/1 135/455/1 133/456/1
f 107/457/5 108/458/5 126/459/5 125/460/5
f 91/461/4 92/462/4 110/463/4 109/464/4
f 102/465/4 100/466/4 118/467/4 120/468/4
f 95/469/1 97/470/1 115/471/1 113/472/1
f 105/473/1 107/474/1 125/475/1 123/476/1
f 98/477/4 96/478/4 114/479/4 116/480/4
f 108/481/4 106/482/4 124/483/4 126/484/4
f 92/485/3 94/486/3 112/487/3 110/488/3
f 101/489/1 103/490/1 121/491/1 119/492/1
f 94/493/1 93/494/1 111/495/1 112/496/1
f 131/497/1 133/498/1 151/499/1 149/500/1
f 138/501/4 136/502/4 154/503/4 156/504/4
f 127/505/4 128/506/4 146/507/4 145/508/4
f 143/509/5 144/510/5 162/511/5 161/512/5
f 135/513/1 137/514/1 155/515/1 153/516/1
f 139/517/1 141/518/1 159/519/1 157/520/1
f 132/521/4 127/522/4 145/523/4 150/524/4
f 142/525/4 140/526/4 158/527/4 160/528/4
f 120/529/4 118/530/4 136/531/4 138/532/4
f 113/533/1 115/534/1 133/535/1 131/536/1
f 123/537/1 125/538/1 143/539/1 141/540/1
f 116/541/4 114/542/4 132/543/4 134/544/4
f 126/545/4 124/546/4 142/547/4 144/548/4
f 110/549/3 112/550/3 130/551/3 128/552/3
f 119/553/1 121/554/1 139/555/1 137/556/1
f 112/557/1 111/558/1 129/559/1 130/560/1
f 122/561/4 120/562/4 138/563/4 140/564/4
f 118/565/4 116/566/4 134/567/4 136/568/4
f 146/569/6 148/570/6 147/571/6 145/572/6
f 145/573/6 147/574/6 149/575/6 150/576/6
f 150/577/6 149/578/6 151/579/6 152/580/6
f 152/581/6 151/582/6 153/583/6 154/584/6
f 156/585/6 155/586/6 157/587/6 158/588/6
f 154/589/6 153/590/6 155/591/6 156/592/6
f 158/593/6 157/594/6 159/595/6 160/596/6
f 160/597/6 159/598/6 161/599/6 162/600/6
f 141/601/1 143/602/1 161/603/1 159/604/1
f 134/605/4 132/606/4 150/607/4 152/608/4
f 144/609/4 142/610/4 160/611/4 162/612/4
f 128/613/3 130/614/3 148/615/3 146/616/3
f 137/617/1 139/618/1 157/619/1 155/620/1
f 130/621/1 129/622/1 147/623/1 148/624/1
f 140/625/4 138/626/4 156/627/4 158/628/4
f 136/629/4 134/630/4 152/631/4 154/632/4
f 133/633/1 135/634/1 153/635/1 151/636/1
f 129/637/1 131/638/1 149/639/1 147/640/1
