# Blender v2.83.4 OBJ File: 'fruit.blend'
# www.blender.org
mtllib fruit.mtl
o Cube
v 0.158676 0.754171 -0.158676
v 0.423336 -0.423336 -0.423336
v 0.158676 0.754171 0.158676
v 0.423336 -0.423336 0.423336
v -0.158676 0.754171 -0.158676
v -0.423336 -0.423336 -0.423336
v -0.158676 0.754171 0.158676
v -0.423336 -0.423336 0.423336
v 0.403756 0.491985 0.403756
v -0.403756 0.491985 0.403756
v 0.403756 0.491985 -0.403756
v -0.403756 0.491985 -0.403756
v 0.099936 0.888519 0.099936
v -0.099936 0.888519 0.099936
v 0.099936 0.888519 -0.099936
v -0.099936 0.888519 -0.099936
v -0.201043 1.202936 0.152897
v -0.400915 1.202936 0.152897
v -0.201043 1.202936 -0.046975
v -0.400915 1.202936 -0.046975
v -0.491985 -0.491985 0.000000
v 0.000000 -0.491985 -0.491985
v 0.491985 0.000000 -0.491985
v -0.491985 0.000000 0.491985
v 0.491985 0.000000 0.491985
v -0.491985 0.000000 -0.491985
v 0.000000 0.491985 0.609704
v 0.609704 0.491985 0.000000
v 0.000000 -0.491985 0.491985
v -0.609704 0.491985 0.000000
v 0.000000 0.491985 -0.609704
v 0.491985 -0.491985 0.000000
v 0.000000 0.697933 0.217575
v 0.217575 0.697933 0.000000
v -0.217575 0.697933 0.000000
v 0.000000 0.697933 -0.217575
v 0.281216 0.697933 0.281216
v -0.281216 0.697933 0.281216
v 0.281216 0.697933 -0.281216
v -0.281216 0.697933 -0.281216
v 0.000000 0.697933 -0.398934
v -0.398934 0.697933 0.000000
v 0.398934 0.697933 0.000000
v 0.000000 0.697933 0.398934
v 0.000000 0.000000 -0.697933
v 0.697933 0.000000 0.000000
v 0.000000 -0.697933 0.000000
v -0.697933 0.000000 0.000000
v 0.000000 0.000000 0.697933
vt 0.767899 0.607101
vt 0.767899 0.625000
vt 0.767899 0.642899
vt 0.767899 0.642899
vt 0.767899 0.607101
vt 0.500000 0.875000
vt 0.625000 0.875000
vt 0.625000 1.000000
vt 0.500000 1.000000
vt 0.500000 0.125000
vt 0.625000 0.125000
vt 0.625000 0.250000
vt 0.500000 0.250000
vt 0.250000 0.625000
vt 0.375000 0.625000
vt 0.375000 0.750000
vt 0.250000 0.750000
vt 0.500000 0.625000
vt 0.625000 0.625000
vt 0.625000 0.750000
vt 0.500000 0.750000
vt 0.500000 0.375000
vt 0.625000 0.375000
vt 0.625000 0.500000
vt 0.500000 0.500000
vt 0.750000 0.696449
vt 0.821449 0.696449
vt 0.875000 0.750000
vt 0.750000 0.750000
vt 0.678551 0.625000
vt 0.678551 0.696449
vt 0.821449 0.625000
vt 0.821449 0.553551
vt 0.875000 0.500000
vt 0.875000 0.625000
vt 0.750000 0.553551
vt 0.678551 0.553551
vt 0.750000 0.500000
vt 0.732101 0.607101
vt 0.767899 0.607101
vt 0.732101 0.607101
vt 0.750000 0.642899
vt 0.732101 0.642899
vt 0.732101 0.642899
vt 0.732101 0.607101
vt 0.750000 0.607101
vt 0.732101 0.625000
vt 0.767899 0.642899
vt 0.732101 0.642899
vt 0.375000 0.375000
vt 0.375000 0.500000
vt 0.375000 0.250000
vt 0.125000 0.625000
vt 0.125000 0.750000
vt 0.125000 0.500000
vt 0.250000 0.500000
vt 0.375000 0.125000
vt 0.375000 0.000000
vt 0.500000 0.000000
vt 0.625000 0.000000
vt 0.375000 0.875000
vt 0.375000 1.000000
vn -0.8718 0.4899 -0.0000
vn -0.4096 0.1965 0.8908
vn -0.8908 0.1965 -0.4096
vn 0.2948 -0.9090 0.2948
vn 0.8908 0.1965 0.4096
vn 0.4096 0.1965 -0.8908
vn -0.3241 0.6515 0.6859
vn 0.6859 0.6515 0.3241
vn -0.6859 0.6515 -0.3241
vn 0.3241 0.6515 -0.6859
vn 0.0000 0.1661 -0.9861
vn 0.0000 0.4899 0.8718
vn -0.0000 0.4899 -0.8718
vn 0.8718 0.4899 0.0000
vn 0.0000 1.0000 0.0000
vn 0.7224 0.6915 0.0000
vn -0.7224 -0.6915 0.0000
vn 0.0000 -0.1661 0.9861
vn -0.3241 0.6515 -0.6859
vn 0.0451 0.9789 -0.1993
vn -0.0451 0.9789 -0.1993
vn -0.6859 0.6515 0.3241
vn -0.1993 0.9789 -0.0451
vn -0.1993 0.9789 0.0451
vn 0.6859 0.6515 -0.3241
vn 0.1993 0.9789 0.0451
vn 0.1993 0.9789 -0.0451
vn 0.3241 0.6515 0.6859
vn -0.0451 0.9789 0.1993
vn 0.0451 0.9789 0.1993
vn 0.2948 -0.2948 -0.9090
vn -0.2948 -0.2948 -0.9090
vn -0.4096 0.1965 -0.8908
vn 0.9090 -0.2948 0.2948
vn 0.9090 -0.2948 -0.2948
vn 0.8908 0.1965 -0.4096
vn -0.2948 -0.9090 0.2948
vn -0.2948 -0.9090 -0.2948
vn 0.2948 -0.9090 -0.2948
vn -0.9090 -0.2948 -0.2948
vn -0.9090 -0.2948 0.2948
vn -0.8908 0.1965 0.4096
vn -0.2948 -0.2948 0.9090
vn 0.2948 -0.2948 0.9090
vn 0.4096 0.1965 0.8908
usemtl Material
s off
f 5/1/1 35/2/1 7/3/1 14/4/1 16/5/1
f 49/6/2 27/7/2 10/8/2 24/9/2
f 48/10/3 30/11/3 12/12/3 26/13/3
f 47/14/4 32/15/4 4/16/4 29/17/4
f 46/18/5 28/19/5 9/20/5 25/21/5
f 45/22/6 31/23/6 11/24/6 23/25/6
f 44/26/7 38/27/7 10/28/7 27/29/7
f 43/30/8 37/31/8 9/20/8 28/19/8
f 42/32/9 40/33/9 12/34/9 30/35/9
f 41/36/10 39/37/10 11/24/10 31/38/10
f 15/39/11 16/5/11 20/40/11 19/41/11
f 7/3/12 33/42/12 3/43/12 13/44/12 14/4/12
f 1/45/13 36/46/13 5/1/13 16/5/13 15/39/13
f 3/43/14 34/47/14 1/45/14 15/39/14 13/44/14
f 19/41/15 20/40/15 18/48/15 17/49/15
f 13/44/16 15/39/16 19/41/16 17/49/16
f 16/5/17 14/4/17 18/48/17 20/40/17
f 14/4/18 13/44/18 17/49/18 18/48/18
f 40/33/19 41/36/19 31/38/19 12/34/19
f 5/1/20 36/46/20 41/36/20 40/33/20
f 36/46/21 1/45/21 39/37/21 41/36/21
f 38/27/22 42/32/22 30/35/22 10/28/22
f 7/3/23 35/2/23 42/32/23 38/27/23
f 35/2/24 5/1/24 40/33/24 42/32/24
f 39/37/25 43/30/25 28/19/25 11/24/25
f 1/45/26 34/47/26 43/30/26 39/37/26
f 34/47/27 3/43/27 37/31/27 43/30/27
f 37/31/28 44/26/28 27/29/28 9/20/28
f 3/43/29 33/42/29 44/26/29 37/31/29
f 33/42/30 7/3/30 38/27/30 44/26/30
f 22/50/31 45/22/31 23/25/31 2/51/31
f 6/52/32 26/13/32 45/22/32 22/50/32
f 26/13/33 12/12/33 31/23/33 45/22/33
f 32/15/34 46/18/34 25/21/34 4/16/34
f 2/51/35 23/25/35 46/18/35 32/15/35
f 23/25/36 11/24/36 28/19/36 46/18/36
f 21/53/37 47/14/37 29/17/37 8/54/37
f 6/55/38 22/56/38 47/14/38 21/53/38
f 22/56/39 2/51/39 32/15/39 47/14/39
f 21/57/40 48/10/40 26/13/40 6/52/40
f 8/58/41 24/59/41 48/10/41 21/57/41
f 24/59/42 10/60/42 30/11/42 48/10/42
f 29/61/43 49/6/43 24/9/43 8/62/43
f 4/16/44 25/21/44 49/6/44 29/61/44
f 25/21/45 9/20/45 27/7/45 49/6/45
