# Blender v2.83.4 OBJ File: 'roof_top_objects.blend'
# www.blender.org
mtllib slanted_roof.mtl
o slanted_roof_Cube.004
v -1.000000 -1.000000 1.000000
v -1.000000 1.000000 1.000000
v -1.000000 -1.000000 -1.000000
v -1.000000 1.000000 -1.000000
v 15.000000 -1.000000 1.000000
v 15.000000 1.000000 1.000000
v 15.000000 -1.000000 -1.000000
v 15.000000 1.000000 -1.000000
v -1.000000 -1.000000 3.000000
v -1.000000 1.000000 3.000000
v 15.000000 1.000000 3.000000
v 15.000000 -1.000000 3.000000
v -1.000000 -1.000000 5.000000
v -1.000000 1.000000 5.000000
v 15.000000 1.000000 5.000000
v 15.000000 -1.000000 5.000000
v -1.000000 -1.000000 7.000000
v -1.000000 1.000000 7.000000
v 15.000000 1.000000 7.000000
v 15.000000 -1.000000 7.000000
v -1.000000 -1.000000 9.000000
v -1.000000 1.000000 9.000000
v 15.000000 1.000000 9.000000
v 15.000000 -1.000000 9.000000
v -1.000000 -1.000000 11.000000
v -1.000000 1.000000 11.000000
v 15.000000 1.000000 11.000000
v 15.000000 -1.000000 11.000000
v -1.000000 -1.000000 13.000000
v -1.000000 1.000000 13.000000
v 15.000000 1.000000 13.000000
v 15.000000 -1.000000 13.000000
v -1.000000 -1.000000 15.000000
v -1.000000 1.000000 15.000000
v 15.000000 1.000000 15.000000
v 15.000000 -1.000000 15.000000
v -1.000000 3.000000 -1.000000
v 15.000000 3.000000 -1.000000
vt 0.015438 0.739227
vt 0.007779 0.677952
vt 0.069054 0.670293
vt 0.130329 0.662634
vt 0.191603 0.654974
vt 0.252878 0.647315
vt 0.314153 0.639655
vt 0.375427 0.631996
vt 0.436701 0.624337
vt 0.497973 0.616678
vt 0.505633 0.677950
vt 0.444361 0.685610
vt 0.383087 0.693270
vt 0.321813 0.700930
vt 0.260538 0.708589
vt 0.199263 0.716249
vt 0.137988 0.723909
vt 0.076713 0.731568
vt 0.000119 0.616677
vt 0.000119 0.122668
vt 0.497974 0.122668
vt 0.069053 0.069053
vt 0.130327 0.076712
vt 0.191602 0.084371
vt 0.252876 0.092031
vt 0.314150 0.099690
vt 0.375425 0.107349
vt 0.436699 0.115009
vt 0.007779 0.061393
vt 0.505871 0.061870
vt 0.505871 0.000119
vt 0.999881 0.000119
vt 0.999881 0.061870
vt 0.015438 0.000119
vt 0.076712 0.007778
vt 0.137987 0.015438
vt 0.199261 0.023097
vt 0.260535 0.030756
vt 0.321810 0.038415
vt 0.383084 0.046075
vt 0.444359 0.053734
vt 0.505633 0.061394
vt 0.999881 0.555880
vt 0.505871 0.555880
vt 0.505871 0.494129
vt 0.505871 0.432378
vt 0.505871 0.370627
vt 0.505871 0.308875
vt 0.505871 0.247124
vt 0.505871 0.185373
vt 0.505871 0.123622
vt 0.999881 0.123622
vt 0.999881 0.185373
vt 0.999881 0.247124
vt 0.999881 0.308875
vt 0.999881 0.370627
vt 0.999881 0.432378
vt 0.999881 0.494129
vt 0.999881 0.617632
vt 0.999881 0.679383
vt 0.505871 0.679383
vt 0.505871 0.617632
vn 1.0000 0.0000 0.0000
vn 0.0000 0.9923 0.1240
vn -1.0000 0.0000 0.0000
vn 0.0000 0.0000 1.0000
vn 0.0000 -1.0000 0.0000
vn 0.0000 0.0000 -1.0000
usemtl Material
s off
f 7/1/1 8/2/1 6/3/1 11/4/1 15/5/1 19/6/1 23/7/1 27/8/1 31/9/1 35/10/1 36/11/1 32/12/1 28/13/1 24/14/1 20/15/1 16/16/1 12/17/1 5/18/1
f 38/19/2 37/20/2 34/21/2 35/10/2
f 6/3/1 8/2/1 38/19/1 35/10/1 31/9/1 27/8/1 23/7/1 19/6/1 15/5/1 11/4/1
f 2/22/3 10/23/3 14/24/3 18/25/3 22/26/3 26/27/3 30/28/3 34/21/3 37/20/3 4/29/3
f 36/30/4 35/31/4 34/32/4 33/33/4
f 2/22/3 4/29/3 3/34/3 1/35/3 9/36/3 13/37/3 17/38/3 21/39/3 25/40/3 29/41/3 33/42/3 34/21/3 30/28/3 26/27/3 22/26/3 18/25/3 14/24/3 10/23/3
f 3/43/5 7/44/5 5/45/5 12/46/5 16/47/5 20/48/5 24/49/5 28/50/5 32/51/5 36/30/5 33/33/5 29/52/5 25/53/5 21/54/5 17/55/5 13/56/5 9/57/5 1/58/5
f 3/43/6 4/59/6 37/60/6 38/61/6 8/62/6 7/44/6
