# Blender v2.83.4 OBJ File: 'robot_parts.blend'
# www.blender.org
mtllib robot_head1.mtl
o head_1_Cube.002
v -1.000000 3.000000 1.000000
v -1.000000 3.000000 -1.000000
v 1.000000 3.000000 1.000000
v 1.000000 3.000000 -1.000000
v 1.000000 4.000000 -1.000000
v 1.000000 3.000000 0.000000
v 1.000000 4.000000 1.000000
v 1.000000 4.000000 0.000000
v 1.000000 3.500000 -1.000000
v 1.000000 3.000000 -0.500000
v 1.000000 3.500000 1.000000
v 1.000000 4.500000 -1.000000
v 1.000000 3.000000 0.500000
v 1.000000 4.500000 1.000000
v 1.000000 4.000000 0.500000
v 1.000000 4.000000 -0.500000
v 1.000000 4.500000 -0.500000
v 1.000000 4.500000 0.500000
v 1.000000 3.250000 -1.000000
v 1.000000 3.000000 -0.750000
v 1.000000 3.250000 1.000000
v 1.000000 4.250000 -1.000000
v 1.000000 3.000000 0.250000
v 1.000000 4.250000 1.000000
v 1.000000 4.000000 -0.250000
v 1.000000 3.750000 -1.000000
v 1.000000 3.000000 -0.250000
v 1.000000 3.750000 1.000000
v 1.000000 4.750000 -1.000000
v 1.000000 3.000000 0.750000
v 1.000000 4.750000 1.000000
v 1.000000 4.000000 0.250000
v 1.000000 4.750000 0.000000
v 1.000000 4.250000 -0.500000
v 1.000000 4.750000 -0.500000
v 1.000000 4.250000 0.500000
v 1.000000 4.750000 0.500000
v 1.000000 4.750000 0.250000
v 1.000000 4.750000 -0.750000
v 1.000000 4.750000 -0.250000
v 1.000000 4.750000 0.750000
v 1.000000 4.375000 0.500000
v 1.000000 4.375000 -0.500000
v 1.000000 4.177500 -0.250000
v 1.000000 4.572500 -0.250000
v 1.000000 4.572500 0.250000
v 1.000000 4.177500 0.250000
v 1.188404 4.473750 0.375000
v 1.188404 4.177500 -0.250000
v 1.188404 4.375000 -0.500000
v 1.188404 4.572500 -0.250000
v 1.188404 4.750000 0.000000
v 1.188404 4.572500 0.250000
v 1.188404 4.375000 0.500000
v 1.188404 4.177500 0.250000
v 1.188404 4.000000 0.000000
v 1.254519 4.375000 0.000000
v 1.188404 4.276250 0.375000
v 1.221462 4.473750 0.125000
v 1.221462 4.276250 0.125000
v 1.291667 4.375000 0.388142
v 1.299914 4.473825 0.263202
v 1.213589 4.473750 0.378323
v 1.213589 4.375000 0.503323
v 1.299914 4.276175 0.263202
v 1.213589 4.276250 0.378323
v 1.213590 4.177500 0.253323
v 1.324692 4.375000 0.138268
v 1.246648 4.473750 0.128323
v 1.213590 4.572500 0.253323
v 1.246648 4.276250 0.128323
v 1.279706 4.375000 0.003323
v -0.644232 5.000000 0.644232
v -1.000000 4.826338 1.000000
v -0.644232 5.000000 -0.644232
v -1.000000 4.826338 -1.000000
v 0.826338 5.000000 0.826338
v 1.000000 4.826338 1.000000
v 0.826338 5.000000 -0.826338
v 1.000000 4.826338 -1.000000
v 0.826338 5.000000 0.000000
v 1.000000 4.826338 0.000000
v 0.826338 5.000000 0.500000
v 1.000000 4.826338 0.500000
v 0.826338 5.000000 -0.500000
v 1.000000 4.826338 -0.500000
v 1.000000 4.826338 0.750000
v 0.826338 5.000000 0.750000
v 1.000000 4.826338 -0.250000
v 0.826338 5.000000 -0.250000
v 1.000000 4.826338 0.250000
v 0.826338 5.000000 0.250000
v 1.000000 4.826338 -0.750000
v 0.826338 5.000000 -0.750000
v 0.000000 4.826338 1.000000
v 0.000000 4.826338 -1.000000
v -0.826338 5.000000 0.826338
v -0.826338 5.000000 -0.826338
v 0.000000 5.000000 0.826338
v 0.000000 5.000000 -0.826338
v -0.644232 5.000000 0.000000
v -0.494504 5.000000 0.080529
v -0.644232 5.000000 -0.322116
v -0.644232 5.000000 0.322116
v -0.528700 5.000000 0.000000
v -0.297637 5.000000 0.000000
v -0.644232 5.000000 0.161058
v -0.413169 5.000000 0.161058
v -0.297637 5.000000 0.161058
v -0.528700 5.000000 0.161058
v -0.413169 5.000000 -0.161058
v -0.644232 5.000000 -0.161058
v -0.297637 5.000000 -0.161058
v -0.528700 5.000000 -0.161058
v -0.494504 5.000000 -0.080529
v -0.337671 5.000000 -0.080529
v -0.337671 5.000000 0.080529
v -0.465622 5.000000 0.120793
v -0.523387 5.000000 -0.040264
v -0.366554 5.000000 -0.120793
v -0.308788 5.000000 0.040264
v -0.523387 5.000000 0.040264
v -0.465622 5.000000 -0.120793
v -0.308788 5.000000 -0.040264
v -0.366554 5.000000 0.120793
v -0.465621 5.039421 0.120793
v -0.413169 5.039421 0.161058
v -0.523387 5.039421 -0.040264
v -0.528700 5.039421 0.000000
v -0.366554 5.039421 -0.120793
v -0.413169 5.039421 -0.161058
v -0.308788 5.039421 0.040264
v -0.297637 5.039421 0.000000
v -0.523387 5.039421 0.040264
v -0.494504 5.039421 0.080529
v -0.465621 5.039421 -0.120793
v -0.494504 5.039421 -0.080529
v -0.308788 5.039421 -0.040264
v -0.337671 5.039421 -0.080529
v -0.366554 5.039421 0.120793
v -0.337671 5.039421 0.080529
v -0.465621 5.658571 0.120793
v -0.413169 5.658571 0.161058
v -0.523387 5.658571 -0.040264
v -0.528700 5.658571 0.000000
v -0.366554 5.658571 -0.120793
v -0.413169 5.658571 -0.161058
v -0.308788 5.658571 0.040264
v -0.297637 5.658571 0.000000
v -0.523387 5.658571 0.040264
v -0.494504 5.658571 0.080529
v -0.465621 5.658571 -0.120793
v -0.494504 5.658571 -0.080529
v -0.308788 5.658571 -0.040264
v -0.337671 5.658571 -0.080529
v -0.366554 5.658571 0.120793
v -0.337671 5.658571 0.080529
v 0.000000 3.000000 -1.000000
v 1.000000 3.125000 -1.000000
v 1.000000 4.125000 -1.000000
v 1.000000 3.625000 -1.000000
v 1.000000 4.625000 -1.000000
v 1.000000 3.375000 -1.000000
v 1.000000 4.375000 -1.000000
v 1.000000 3.875000 -1.000000
v -0.500000 4.826338 -1.000000
v -1.000000 3.913169 -1.000000
v 1.000000 4.788169 -1.000000
v 0.500000 4.826338 -1.000000
v -1.000000 3.000000 0.000000
v -1.000000 4.826338 0.000000
v -1.000000 3.913169 1.000000
v -1.000000 3.456584 -1.000000
v -1.000000 4.369753 -1.000000
v 0.413169 5.000000 0.826338
v -0.413169 5.000000 0.826338
v -0.638945 5.000000 0.826338
v -0.401756 5.000000 -0.826338
v -0.639827 5.000000 -0.826338
vt 0.319858 0.322007
vt 0.332406 0.320899
vt 0.373089 0.352911
vt 0.326315 0.364299
vt 0.280553 0.368898
vt 0.235080 0.370879
vt 0.190096 0.371759
vt 0.145154 0.371956
vt 0.099768 0.371324
vt 0.054143 0.368582
vt 0.007881 0.361283
vt 0.045061 0.325007
vt 0.058056 0.325634
vt 0.101336 0.327209
vt 0.145522 0.327952
vt 0.189539 0.327837
vt 0.233542 0.326854
vt 0.277463 0.325012
vt 0.716155 0.686396
vt 0.716155 0.842791
vt 0.716155 0.999187
vt 0.544888 0.999187
vt 0.373621 0.999187
vt 0.373621 0.920989
vt 0.373621 0.842792
vt 0.373621 0.764594
vt 0.373621 0.686396
vt 0.544888 0.686396
vt 0.000266 0.372488
vt 0.171533 0.372488
vt 0.342799 0.372488
vt 0.342799 0.415304
vt 0.342799 0.458121
vt 0.342799 0.500938
vt 0.342799 0.543754
vt 0.342799 0.586571
vt 0.342799 0.629388
vt 0.342799 0.672205
vt 0.342799 0.715021
vt 0.000266 0.715021
vt 0.000266 0.543754
vt 0.686412 0.342800
vt 0.608214 0.342800
vt 0.530016 0.342800
vt 0.451818 0.342800
vt 0.373621 0.342800
vt 0.373621 0.257166
vt 0.373621 0.171533
vt 0.373621 0.085899
vt 0.373621 0.000266
vt 0.380158 0.000266
vt 0.386695 0.000266
vt 0.408103 0.000266
vt 0.429512 0.000266
vt 0.450920 0.000266
vt 0.472328 0.000266
vt 0.493737 0.000266
vt 0.515145 0.000266
vt 0.536553 0.000266
vt 0.557962 0.000266
vt 0.579370 0.000266
vt 0.600778 0.000266
vt 0.622187 0.000266
vt 0.643595 0.000266
vt 0.665004 0.000266
vt 0.686412 0.000266
vt 0.686412 0.171533
vt 0.686943 0.043082
vt 0.686943 0.000266
vt 0.700017 0.000266
vt 0.700017 0.043082
vt 0.700017 0.085899
vt 0.700017 0.128716
vt 0.700017 0.171533
vt 0.700017 0.214349
vt 0.700017 0.257166
vt 0.700017 0.299983
vt 0.700017 0.342799
vt 0.693480 0.342799
vt 0.686943 0.342799
vt 0.686943 0.299983
vt 0.686943 0.257166
vt 0.686943 0.214349
vt 0.686943 0.171533
vt 0.686943 0.128716
vt 0.686943 0.085899
vt 0.785651 0.257166
vt 0.764242 0.257166
vt 0.798068 0.214349
vt 0.828467 0.171533
vt 0.828467 0.214349
vt 0.828467 0.257166
vt 0.168154 0.715553
vt 0.220665 0.715553
vt 0.220665 0.747820
vt 0.168154 0.747820
vt 0.789099 0.522436
vt 0.789099 0.574947
vt 0.756831 0.574947
vt 0.756831 0.522436
vt 0.764242 0.085899
vt 0.730417 0.128716
vt 0.742834 0.085899
vt 0.785651 0.085899
vt 0.828467 0.085899
vt 0.828467 0.128716
vt 0.798068 0.128716
vt 0.730417 0.214349
vt 0.742834 0.257166
vt 0.113588 0.715553
vt 0.113588 0.747820
vt 0.789099 0.467871
vt 0.756831 0.495153
vt 0.756831 0.467871
vt 0.741736 0.411681
vt 0.795732 0.397897
vt 0.794224 0.450386
vt 0.744524 0.467339
vt 0.743130 0.439510
vt 0.691933 0.369577
vt 0.742648 0.355960
vt 0.714339 0.416765
vt 0.686943 0.421850
vt 0.795732 0.343331
vt 0.273176 0.715553
vt 0.273176 0.747820
vt 0.789099 0.627459
vt 0.756831 0.627459
vt 0.327742 0.715553
vt 0.327742 0.747820
vt 0.300459 0.747820
vt 0.789099 0.682024
vt 0.756831 0.682024
vt 0.346137 0.455072
vt 0.343331 0.427934
vt 0.347682 0.427933
vt 0.350488 0.455071
vt 0.356632 0.399626
vt 0.359439 0.372488
vt 0.363790 0.372489
vt 0.360983 0.399627
vt 0.348944 0.482210
vt 0.353295 0.482209
vt 0.346137 0.400211
vt 0.350488 0.400210
vt 0.348943 0.372489
vt 0.353295 0.372488
vt 0.356632 0.454486
vt 0.353826 0.426764
vt 0.358177 0.426765
vt 0.360983 0.454487
vt 0.359439 0.482209
vt 0.363790 0.482210
vt 0.704836 0.627691
vt 0.730296 0.625042
vt 0.716852 0.646032
vt 0.708407 0.602344
vt 0.686943 0.615018
vt 0.734147 0.599425
vt 0.751923 0.612301
vt 0.721924 0.581193
vt 0.687461 0.644447
vt 0.692387 0.586148
vt 0.745901 0.641638
vt 0.751923 0.582282
vt 0.320857 0.045146
vt 0.052966 0.042899
vt 0.019212 0.004269
vt 0.189637 0.000266
vt 0.358148 0.010332
vt 0.044704 0.182638
vt 0.000266 0.272508
vt 0.000724 0.181632
vt 0.005173 0.091600
vt 0.050272 0.072294
vt 0.047338 0.112575
vt 0.330080 0.181338
vt 0.326606 0.111495
vt 0.323575 0.073924
vt 0.373089 0.179709
vt 0.331375 0.252027
vt 0.686412 0.685865
vt 0.643595 0.685865
vt 0.600778 0.685865
vt 0.557962 0.685865
vt 0.515145 0.685865
vt 0.472328 0.685865
vt 0.429511 0.685865
vt 0.386695 0.685865
vt 0.373621 0.685865
vt 0.373621 0.514598
vt 0.373621 0.343331
vt 0.530016 0.343331
vt 0.686412 0.343331
vt 0.293957 0.074497
vt 0.241416 0.075097
vt 0.214657 0.075293
vt 0.187805 0.075402
vt 0.160826 0.074972
vt 0.133766 0.074459
vt 0.080398 0.073222
vt 0.214761 0.094613
vt 0.187702 0.094672
vt 0.214894 0.114043
vt 0.208059 0.105238
vt 0.201263 0.100397
vt 0.194476 0.095551
vt 0.745751 0.467871
vt 0.756300 0.467871
vt 0.756300 0.474622
vt 0.756300 0.580662
vt 0.745751 0.580662
vt 0.745751 0.474622
vt 0.160552 0.094421
vt 0.180899 0.095506
vt 0.174065 0.100321
vt 0.167225 0.105144
vt 0.160308 0.113975
vt 0.215090 0.133630
vt 0.187643 0.133801
vt 0.194492 0.131860
vt 0.201328 0.126909
vt 0.208140 0.121971
vt 0.167095 0.121963
vt 0.173932 0.126920
vt 0.180777 0.131872
vt 0.160102 0.133702
vt 0.737264 0.467871
vt 0.737264 0.580662
vt 0.737264 0.474622
vt 0.000266 0.757763
vt 0.000266 0.750807
vt 0.007017 0.750807
vt 0.113057 0.750807
vt 0.113057 0.757763
vt 0.007017 0.757763
vt 0.000266 0.766250
vt 0.113057 0.766249
vt 0.007017 0.766250
vt 0.000266 0.726878
vt 0.000266 0.715553
vt 0.007017 0.715553
vt 0.113057 0.715553
vt 0.113057 0.726878
vt 0.007017 0.726878
vt 0.697493 0.467871
vt 0.705979 0.467871
vt 0.705979 0.474622
vt 0.705979 0.580662
vt 0.697493 0.580662
vt 0.697493 0.474622
vt 0.000266 0.735365
vt 0.113057 0.735365
vt 0.007017 0.735365
vt 0.728777 0.467871
vt 0.728777 0.580662
vt 0.728777 0.474622
vt 0.000266 0.786061
vt 0.000266 0.774736
vt 0.007017 0.774736
vt 0.113057 0.774736
vt 0.113057 0.786061
vt 0.007017 0.786061
vt 0.721622 0.467871
vt 0.721622 0.580662
vt 0.721622 0.474622
vt 0.000266 0.743851
vt 0.007017 0.743851
vt 0.113057 0.743851
vt 0.714466 0.467871
vt 0.714466 0.580662
vt 0.714466 0.474622
vt 0.686943 0.467871
vt 0.686943 0.580662
vt 0.686943 0.474622
vt 0.828467 0.342799
vt 0.807059 0.342799
vt 0.785651 0.342799
vt 0.764242 0.342799
vt 0.742834 0.342799
vt 0.721426 0.342799
vt 0.351133 0.754675
vt 0.342681 0.753911
vt 0.336867 0.750092
vt 0.332244 0.744895
vt 0.330258 0.736644
vt 0.328273 0.728393
vt 0.328927 0.717087
vt 0.339364 0.715553
vt 0.347816 0.716317
vt 0.356269 0.717081
vt 0.362736 0.720144
vt 0.366706 0.726097
vt 0.368691 0.734348
vt 0.370676 0.742599
vt 0.370676 0.753149
vt 0.359585 0.755439
vt 0.828467 0.000266
vt 0.742834 0.000266
vt 0.785651 0.000266
vt 0.871284 0.000266
vt 0.914101 0.000266
vt 0.956918 0.000266
vt 0.999734 0.000266
vt 0.999734 0.043082
vt 0.999734 0.085899
vt 0.999734 0.128716
vt 0.999734 0.171533
vt 0.999734 0.214349
vt 0.999734 0.257166
vt 0.999734 0.299983
vt 0.999734 0.342799
vt 0.978326 0.342799
vt 0.956918 0.342799
vt 0.935509 0.342799
vt 0.914101 0.342800
vt 0.892693 0.342800
vt 0.871284 0.342799
vt 0.849876 0.342799
vn 0.7071 0.7071 0.0000
vn -1.0000 0.0000 0.0000
vn 0.0000 -1.0000 0.0000
vn 0.0000 0.0000 -1.0000
vn 1.0000 0.0000 0.0000
vn 0.0000 0.8154 -0.5789
vn 0.0000 -0.8154 0.5789
vn 0.0000 0.7847 -0.6199
vn 0.0000 -0.7847 0.6199
vn 0.9848 0.1736 0.0000
vn 0.9848 -0.1736 0.0000
vn 0.9914 0.0000 -0.1311
vn 0.0000 0.8154 0.5789
vn 0.0000 -0.8154 -0.5789
vn 0.0000 0.7847 0.6199
vn 0.0000 -0.7847 -0.6199
vn -0.0815 -0.7821 0.6178
vn -0.0815 0.7821 0.6178
vn 0.0798 -0.7923 -0.6048
vn 0.0798 0.7923 -0.6048
vn 0.6577 0.5691 0.4935
vn 0.6577 -0.5691 0.4935
vn 0.7626 0.5723 -0.3015
vn 0.7626 -0.5723 -0.3015
vn 0.9914 -0.0000 0.1310
vn 0.6748 0.5791 0.4575
vn 0.6368 -0.6050 0.4779
vn 0.7344 0.6134 -0.2904
vn 0.7344 -0.6134 -0.2904
vn 0.6368 0.6050 0.4779
vn 0.6748 -0.5791 0.4575
vn 0.7706 0.5832 -0.2569
vn 0.7706 -0.5832 -0.2569
vn -0.7071 0.7071 0.0000
vn 0.0000 0.7071 -0.7071
vn 0.0000 0.7071 0.7071
vn 0.0000 0.0000 1.0000
vn 0.0000 1.0000 0.0000
vn 0.6537 -0.0000 -0.7568
vn 0.8126 -0.0000 -0.5829
vn -0.9914 0.0000 -0.1308
vn -0.8126 0.0000 -0.5829
vn -0.6089 0.0000 0.7932
vn 0.8126 -0.0000 0.5829
vn -0.8126 0.0000 0.5829
vn -0.6089 0.0000 -0.7932
vn 0.9637 -0.0000 -0.2669
vn -0.9914 0.0000 0.1308
vn 0.9637 -0.0000 0.2669
vn 0.6537 -0.0000 0.7568
usemtl Material.001
s off
f 88/1/1 77/2/1 78/3/1 87/4/1 84/5/1 91/6/1 82/7/1 89/8/1 86/9/1 93/10/1 80/11/1 79/12/1 94/13/1 85/14/1 90/15/1 81/16/1 92/17/1 83/18/1
f 1/19/2 172/20/2 74/21/2 171/22/2 76/23/2 174/24/2 167/25/2 173/26/2 2/27/2 170/28/2
f 2/29/3 158/30/3 4/31/3 20/32/3 10/33/3 27/34/3 6/35/3 23/36/3 13/37/3 30/38/3 3/39/3 1/40/3 170/41/3
f 2/42/4 173/43/4 167/44/4 174/45/4 76/46/4 166/47/4 96/48/4 169/49/4 80/50/4 168/51/4 29/52/4 162/53/4 12/54/4 164/55/4 22/56/4 160/57/4 5/58/4 165/59/4 26/60/4 161/61/4 9/62/4 163/63/4 19/64/4 159/65/4 4/66/4 158/67/4
f 87/68/5 78/69/5 31/70/5 41/71/5 37/72/5 38/73/5 33/74/5 40/75/5 35/76/5 39/77/5 29/78/5 168/79/5 80/80/5 93/81/5 86/82/5 89/83/5 82/84/5 91/85/5 84/86/5
f 34/87/5 43/88/5 44/89/5 8/90/5 25/91/5 16/92/5
f 45/93/6 33/94/6 52/95/6 51/96/6
f 47/97/7 8/98/7 56/99/7 55/100/7
f 42/101/5 46/102/5 33/74/5 38/73/5 37/72/5 18/103/5
f 42/101/5 36/104/5 15/105/5 32/106/5 8/90/5 47/107/5
f 33/74/5 45/108/5 43/88/5 17/109/5 35/76/5 40/75/5
f 43/110/8 45/93/8 51/96/8 50/111/8
f 42/112/9 47/97/9 55/100/9 58/113/9 54/114/9
f 57/115/10 51/116/10 52/117/10 53/118/10 59/119/10
f 56/120/11 49/121/11 57/115/11 60/122/11 55/123/11
f 49/121/12 50/124/12 51/116/12 57/115/12
f 33/94/13 46/125/13 53/126/13 52/95/13
f 8/98/14 44/127/14 49/128/14 56/99/14
f 46/125/15 42/129/15 54/130/15 48/131/15 53/126/15
f 44/127/16 43/132/16 50/133/16 49/128/16
f 58/134/17 55/135/17 67/136/17 66/137/17
f 48/138/18 54/139/18 64/140/18 63/141/18
f 54/142/17 58/134/17 66/137/17 64/143/17
f 55/135/19 60/144/19 71/145/19 67/136/19
f 60/144/19 57/146/19 72/147/19 71/145/19
f 59/148/20 53/149/20 70/150/20 69/151/20
f 57/152/20 59/148/20 69/151/20 72/153/20
f 61/154/21 62/155/21 63/156/21
f 65/157/22 61/154/22 66/158/22
f 62/155/23 68/159/23 69/160/23
f 71/161/24 68/159/24 65/157/24
f 62/155/25 61/154/25 65/157/25 68/159/25
f 63/156/26 64/162/26 61/154/26
f 66/158/27 67/163/27 65/157/27
f 69/160/28 70/164/28 62/155/28
f 65/157/29 67/163/29 71/161/29
f 70/164/30 63/156/30 62/155/30
f 64/162/31 66/158/31 61/154/31
f 72/165/32 69/160/32 68/159/32
f 68/159/33 71/161/33 72/165/33
f 53/149/18 48/138/18 63/141/18 70/150/18
f 97/166/34 98/167/34 76/168/34 171/169/34 74/170/34
f 100/171/35 79/12/35 80/11/35 169/172/35 96/173/35 166/174/35 76/168/35 98/167/35 179/175/35 178/176/35
f 99/177/36 176/178/36 177/179/36 97/166/36 74/170/36 95/180/36 78/3/36 77/2/36 175/181/36
f 3/182/37 21/183/37 11/184/37 28/185/37 7/186/37 24/187/37 14/188/37 31/189/37 78/190/37 95/191/37 74/192/37 172/193/37 1/194/37
f 73/195/38 104/196/38 107/197/38 101/198/38 112/199/38 103/200/38 75/201/38 98/167/38 97/166/38
f 110/202/38 105/203/38 101/198/38 107/197/38
f 105/203/38 110/202/38 108/204/38 118/205/38 102/206/38 122/207/38
f 73/195/38 177/179/38 176/178/38 108/204/38 110/202/38 107/197/38 104/196/38
f 120/208/39 111/209/39 131/210/39 147/211/39 146/212/39 130/213/39
f 105/203/38 114/214/38 112/199/38 101/198/38
f 105/203/38 119/215/38 115/216/38 123/217/38 111/218/38 114/214/38
f 109/219/38 106/220/38 121/221/38 117/222/38 125/223/38 108/204/38
f 111/218/38 120/224/38 116/225/38 124/226/38 106/220/38 113/227/38
f 116/228/40 120/208/40 130/213/40 146/212/40 155/229/40 139/230/40
f 119/231/41 105/232/41 129/233/41 145/234/41 144/235/41 128/236/41
f 115/237/42 119/231/42 128/236/42 144/235/42 153/238/42 137/239/42
f 118/240/43 108/241/43 127/242/43 143/243/43 142/244/43 126/245/43
f 125/246/44 117/247/44 141/248/44 157/249/44 156/250/44 140/251/44
f 102/252/45 118/240/45 126/245/45 142/244/45 151/253/45 135/254/45
f 124/255/40 116/228/40 139/230/40 155/229/40 154/256/40 138/257/40
f 111/258/46 123/259/46 136/260/46 152/261/46 147/262/46 131/263/46
f 106/264/47 124/255/47 138/257/47 154/256/47 149/265/47 133/266/47
f 123/259/42 115/237/42 137/239/42 153/238/42 152/261/42 136/260/42
f 105/232/48 122/267/48 134/268/48 150/269/48 145/234/48 129/233/48
f 122/267/45 102/252/45 135/254/45 151/253/45 150/269/45 134/268/45
f 121/270/49 106/264/49 133/266/49 149/265/49 148/271/49 132/272/49
f 117/247/44 121/270/44 132/272/44 148/271/44 157/249/44 141/248/44
f 108/273/50 125/246/50 140/251/50 156/250/50 143/274/50 127/275/50
f 17/109/5 43/88/5 34/87/5 16/92/5 5/276/5 160/277/5 22/278/5 164/279/5 12/280/5 162/281/5 29/78/5 39/77/5 35/76/5
f 153/282/38 144/283/38 145/284/38 150/285/38 151/286/38 142/287/38 143/288/38 156/289/38 157/290/38 148/291/38 149/292/38 154/293/38 155/294/38 146/295/38 147/296/38 152/297/38
f 7/298/5 15/105/5 36/104/5 42/101/5 18/103/5 37/72/5 41/71/5 31/70/5 14/299/5 24/300/5
f 5/276/5 16/92/5 25/91/5 8/90/5 32/106/5 15/105/5 7/298/5 28/301/5 11/302/5 21/303/5 3/304/5 30/305/5 13/306/5 23/307/5 6/308/5 27/309/5 10/310/5 20/311/5 4/312/5 159/313/5 19/314/5 163/315/5 9/316/5 161/317/5 26/318/5 165/319/5
f 109/219/38 92/17/38 81/16/38 90/15/38 113/227/38 106/220/38
f 113/227/38 100/171/38 178/176/38 111/218/38
f 108/204/38 176/178/38 99/177/38 109/219/38
f 177/179/38 73/195/38 97/166/38
f 111/218/38 178/176/38 179/175/38 75/201/38 103/200/38 112/199/38 114/214/38
f 75/201/38 179/175/38 98/167/38
f 92/17/38 109/219/38 99/177/38 175/181/38 77/2/38 88/1/38 83/18/38
f 113/227/38 90/15/38 85/14/38 94/13/38 79/12/38 100/171/38
