# Blender v2.83.4 OBJ File: 'robot_parts.blend'
# www.blender.org
mtllib robot_body1.mtl
o body1_Cube
v 1.000000 1.000000 -1.000000
v 1.000000 -1.000000 -1.000000
v 1.000000 1.000000 1.000000
v 1.000000 -1.000000 1.000000
v -1.000000 1.000000 -1.000000
v -1.000000 -1.000000 -1.000000
v -1.000000 1.000000 1.000000
v -1.000000 -1.000000 1.000000
v 1.000000 2.000000 1.000000
v -1.000000 2.000000 1.000000
v 1.000000 2.000000 -1.000000
v -1.000000 2.000000 -1.000000
v 1.000000 3.000000 1.000000
v -1.000000 3.000000 1.000000
v 1.000000 3.000000 -1.000000
v -1.000000 3.000000 -1.000000
vt 0.749713 0.500000
vt 0.749713 0.749713
vt 0.624857 0.749713
vt 0.624857 0.500000
vt 0.499617 0.749713
vt 0.249904 0.749713
vt 0.249904 0.500000
vt 0.499618 0.500000
vt 0.500000 0.000191
vt 0.500000 0.249904
vt 0.250287 0.249904
vt 0.250287 0.000191
vt 0.500382 0.000191
vt 0.750096 0.000191
vt 0.750096 0.249904
vt 0.500382 0.249904
vt 0.999426 0.749713
vt 0.999426 0.500000
vt 0.249904 0.000191
vt 0.249904 0.249904
vt 0.000191 0.249904
vt 0.000191 0.000191
vt 0.250287 0.374761
vt 0.500000 0.374761
vt 0.500000 0.499618
vt 0.250287 0.499618
vt 0.249904 0.374761
vt 0.000191 0.374761
vt 0.125048 0.749713
vt 0.125048 0.500000
vt 0.000191 0.999809
vt 0.000191 0.750096
vt 0.249904 0.750096
vt 0.249904 0.999809
vt 0.000191 0.749713
vt 0.000191 0.500000
vt 0.249904 0.499618
vt 0.000191 0.499618
vt 0.500000 0.749713
vt 0.500000 0.500000
vn 1.0000 0.0000 0.0000
vn 0.0000 0.0000 1.0000
vn -1.0000 0.0000 0.0000
vn 0.0000 -1.0000 0.0000
vn 0.0000 0.0000 -1.0000
vn 0.0000 1.0000 0.0000
usemtl Material
s off
f 3/1/1 1/2/1 11/3/1 9/4/1
f 4/5/2 3/6/2 7/7/2 8/8/2
f 8/9/3 7/10/3 5/11/3 6/12/3
f 6/13/4 2/14/4 4/15/4 8/16/4
f 2/17/1 1/2/1 3/1/1 4/18/1
f 6/19/5 5/20/5 1/21/5 2/22/5
f 12/23/3 10/24/3 14/25/3 16/26/3
f 1/21/5 5/20/5 12/27/5 11/28/5
f 7/7/2 3/6/2 9/29/2 10/30/2
f 5/11/3 7/10/3 10/24/3 12/23/3
f 15/31/6 16/32/6 14/33/6 13/34/6
f 10/30/2 9/29/2 13/35/2 14/36/2
f 11/28/5 12/27/5 16/37/5 15/38/5
f 9/4/1 11/3/1 15/39/1 13/40/1
