# Blender v2.83.4 OBJ File: 'sky_rails.blend'
# www.blender.org
mtllib sky_rails_c.mtl
v -1.000000 1.000000 -1.000000
v -1.000000 0.771268 -1.000000
v -1.000000 1.000000 1.000000
v -1.000000 0.771268 1.000000
v -3.015037 1.000000 -3.100631
v -3.015037 0.771268 -3.100631
v -5.014925 1.000000 -3.121776
v -5.014925 0.771268 -3.121776
v -3.265023 1.000000 -3.103274
v -1.000000 0.771268 -0.750000
v -3.265023 0.771268 -3.103274
v -1.000000 1.000000 -0.750000
v -4.764938 0.771268 -3.119133
v -1.000000 1.000000 0.750000
v -4.764938 1.000000 -3.119133
v -1.000000 0.771268 0.750000
v -4.009306 -0.127975 -3.111143
v -4.258300 -0.127975 -3.113776
v -1.000000 -0.127975 -0.254682
v -3.760313 -0.127975 -3.108511
v -1.000000 -0.127975 0.243333
v -1.000000 -0.127975 -0.005674
v -2.000000 0.771268 -1.000000
v -2.000000 1.000000 1.000000
v -2.000000 0.771268 1.000000
v -2.000000 1.000000 -1.000000
v -2.000000 0.771268 -0.750000
v -2.000000 1.000000 -0.750000
v -2.000000 0.771268 0.750000
v -2.000000 1.000000 0.750000
v -1.500000 0.771268 1.000000
v -1.500000 1.000000 -1.000000
v -1.500000 1.000000 -0.750000
v -1.500000 1.000000 0.750000
v -1.500000 0.771268 -1.000000
v -1.500000 1.000000 1.000000
v -1.500000 0.771536 -0.750000
v -1.500000 0.771268 0.750000
v -3.020323 0.771268 -2.600658
v -5.020211 1.000000 -2.621804
v -3.270309 0.771268 -2.603302
v -4.770226 0.771268 -2.619161
v -5.020211 0.771268 -2.621804
v -3.020323 1.000000 -2.600658
v -3.270309 1.000000 -2.603302
v -4.770226 1.000000 -2.619161
v -1.250000 0.771268 1.000000
v -1.250000 1.000000 -1.000000
v -1.250000 1.000000 -0.750000
v -1.250000 1.000000 0.750000
v -1.250000 -0.127975 0.243333
v -1.250000 0.771268 -1.000000
v -1.250000 1.000000 1.000000
v -1.250000 0.771268 -0.750000
v -1.250000 0.771268 0.750000
v -1.250000 -0.127975 -0.254682
v -1.250000 -0.127975 -0.005674
v -3.017680 0.771268 -2.850645
v -5.017568 1.000000 -2.871790
v -3.267666 0.771268 -2.853288
v -4.767582 0.771268 -2.869147
v -3.762956 -0.127975 -2.858525
v -4.011950 -0.127975 -2.861157
v -5.017568 0.771268 -2.871790
v -3.017680 1.000000 -2.850645
v -3.267666 1.000000 -2.853288
v -4.767582 1.000000 -2.869147
v -4.260943 -0.127975 -2.863790
v -1.250000 0.771268 -0.750000
v -2.839610 1.000000 -1.180980
v -3.052377 1.000000 -1.049716
v -2.839610 0.771268 -1.180980
v -3.052377 0.771268 -1.049716
v -4.541512 0.771268 -0.130488
v -4.328744 1.000000 -0.261752
v -4.541512 1.000000 -0.130488
v -2.624775 0.771268 1.000000
v -2.624775 1.000000 0.750000
v -2.624775 1.000000 1.000000
v -2.625000 1.000000 -1.000000
v -2.625000 1.000000 -0.750000
v -2.625000 0.771268 -1.000000
v -2.625000 0.771268 -0.750000
v -3.038359 0.771268 -1.712898
v -3.251126 0.771268 -1.581634
v -3.038359 1.000000 -1.712898
v -3.251126 1.000000 -1.581634
v -4.869788 1.000000 -0.662597
v -4.869788 0.771268 -0.662597
v -4.657022 1.000000 -0.793861
v -4.328980 0.771268 -0.262134
v -4.657139 0.771268 -0.794052
v -4.889932 0.771268 -3.120455
v -1.000000 1.000000 0.875000
v -4.889932 1.000000 -3.120455
v -1.000000 0.771268 0.875000
v -4.133803 -0.127975 -3.112460
v -1.250000 -0.127975 0.118829
v -2.000000 1.000000 0.875000
v -4.892575 0.771268 -2.870469
v -1.500000 1.000000 0.875000
v -1.250000 0.771268 0.875000
v -4.895218 1.000000 -2.620482
v -1.250000 1.000000 0.875000
v -1.000000 -0.127975 0.118829
v -4.892575 1.000000 -2.870469
v -4.136446 -0.127975 -2.862473
v -4.435128 1.000000 -0.196120
v -2.624775 1.000000 0.875000
v -4.763405 1.000000 -0.728229
v -1.993547 0.771268 0.750000
v -2.621064 0.771268 0.750000
vt 0.105205 0.686403
vt 0.105205 0.746229
vt 0.075292 0.746229
vt 0.075292 0.686403
vt 0.939321 0.055589
vt 0.939321 0.000853
vt 0.999147 0.000853
vt 0.999147 0.055589
vt 0.060792 0.925819
vt 0.060792 0.980556
vt 0.000966 0.980556
vt 0.000966 0.925819
vt 0.229721 0.537473
vt 0.229721 0.477647
vt 0.510961 0.477647
vt 0.510961 0.537473
vt 0.946563 0.414076
vt 0.946563 0.359340
vt 0.976476 0.359340
vt 0.976476 0.414076
vt 0.999147 0.057295
vt 0.999147 0.112032
vt 0.939321 0.112032
vt 0.939321 0.057295
vt 0.994057 0.173563
vt 0.939321 0.173563
vt 0.939321 0.113737
vt 0.994057 0.113737
vt 0.705004 0.561253
vt 0.645178 0.561253
vt 0.645178 0.281906
vt 0.705004 0.281906
vt 0.163327 0.973198
vt 0.163327 0.913372
vt 0.223153 0.913372
vt 0.223153 0.973198
vt 0.946563 0.357634
vt 0.946563 0.302898
vt 0.976476 0.302898
vt 0.976476 0.357634
vt 0.939321 0.263211
vt 0.999147 0.263211
vt 0.999147 0.293006
vt 0.939321 0.293006
vt 0.406385 0.981005
vt 0.346559 0.981005
vt 0.346559 0.921416
vt 0.406385 0.921416
vt 0.522114 0.283645
vt 0.581940 0.283645
vt 0.581940 0.564732
vt 0.522114 0.564732
vt 0.937615 0.301192
vt 0.914721 0.281940
vt 0.914812 0.000853
vt 0.937615 0.020028
vt 0.752771 0.637607
vt 0.706710 0.599430
vt 0.706892 0.320083
vt 0.752771 0.358109
vt 0.754477 0.039030
vt 0.800538 0.000853
vt 0.800538 0.280351
vt 0.754659 0.318377
vt 0.876026 0.554334
vt 0.898914 0.535075
vt 0.898914 0.816314
vt 0.876116 0.835497
vt 0.583646 0.282057
vt 0.643472 0.282057
vt 0.643472 0.561556
vt 0.583646 0.561556
vt 0.399050 0.451201
vt 0.399050 0.331549
vt 0.458876 0.331549
vt 0.458876 0.451201
vt 0.625525 0.718685
vt 0.625525 0.773421
vt 0.475960 0.773421
vt 0.475960 0.718685
vt 0.944857 0.422550
vt 0.890121 0.422550
vt 0.890121 0.302898
vt 0.944857 0.302898
vt 0.754477 0.911668
vt 0.754477 0.792015
vt 0.784390 0.792015
vt 0.784390 0.911668
vt 0.765306 0.958561
vt 0.825132 0.958561
vt 0.825132 0.988474
vt 0.765306 0.988474
vt 0.344853 0.991098
vt 0.290117 0.991098
vt 0.290117 0.931272
vt 0.344853 0.931272
vt 0.923514 0.835414
vt 0.900619 0.816162
vt 0.900711 0.535075
vt 0.923514 0.554250
vt 0.535786 0.979456
vt 0.475960 0.979456
vt 0.475960 0.919630
vt 0.535786 0.919630
vt 0.595612 0.831569
vt 0.595612 0.886306
vt 0.475960 0.886306
vt 0.475960 0.831569
vt 0.000853 0.060679
vt 0.055589 0.060679
vt 0.055589 0.120505
vt 0.000853 0.120505
vt 0.115214 0.749160
vt 0.106910 0.536833
vt 0.166711 0.535078
vt 0.166711 0.779611
vt 0.286166 0.000853
vt 0.340902 0.000853
vt 0.340902 0.471080
vt 0.286166 0.471080
vt 0.757690 0.776599
vt 0.754477 0.322688
vt 0.784276 0.320083
vt 0.784276 0.790310
vt 0.688762 0.906838
vt 0.748589 0.906838
vt 0.748589 0.966665
vt 0.688762 0.966665
vt 0.705004 0.280200
vt 0.645178 0.280200
vt 0.645178 0.000853
vt 0.705004 0.000853
vt 0.460582 0.000853
vt 0.520408 0.000853
vt 0.520408 0.282093
vt 0.460582 0.282093
vt 0.999147 0.175269
vt 0.999147 0.230006
vt 0.939321 0.230006
vt 0.939321 0.175269
vt 0.460582 0.435177
vt 0.520408 0.435177
vt 0.520408 0.465090
vt 0.460582 0.465090
vt 0.752771 0.000853
vt 0.752771 0.280352
vt 0.706892 0.318377
vt 0.706710 0.039030
vt 0.948114 0.535075
vt 0.948114 0.816239
vt 0.925310 0.835414
vt 0.925220 0.554327
vt 0.949947 0.484082
vt 0.890121 0.484082
vt 0.890121 0.424256
vt 0.949947 0.424256
vt 0.288411 0.931272
vt 0.288411 0.986009
vt 0.228585 0.986009
vt 0.228585 0.931272
vt 0.583646 0.000853
vt 0.643472 0.000853
vt 0.643472 0.280351
vt 0.583646 0.280352
vt 0.522114 0.000853
vt 0.581940 0.000853
vt 0.581940 0.281940
vt 0.522114 0.281940
vt 0.408091 0.921416
vt 0.467917 0.921416
vt 0.467917 0.981005
vt 0.408091 0.981005
vt 0.939321 0.231711
vt 0.999147 0.231711
vt 0.999147 0.261506
vt 0.939321 0.261505
vt 0.000853 0.000853
vt 0.055589 0.000853
vt 0.000853 0.748863
vt 0.000853 0.689037
vt 0.060679 0.689037
vt 0.060679 0.748864
vt 0.122324 0.925819
vt 0.122324 0.980556
vt 0.062498 0.980556
vt 0.062498 0.925819
vt 0.736623 0.639313
vt 0.736623 0.699139
vt 0.706710 0.699139
vt 0.706710 0.639313
vt 0.168417 0.792014
vt 0.223153 0.792014
vt 0.223153 0.851840
vt 0.223153 0.911667
vt 0.168417 0.911667
vt 0.168417 0.851840
vt 0.229721 0.655447
vt 0.229721 0.600711
vt 0.474254 0.600711
vt 0.474254 0.655447
vt 0.520408 0.466796
vt 0.520408 0.526833
vt 0.519361 0.526815
vt 0.746883 0.778511
vt 0.627231 0.778511
vt 0.627231 0.718685
vt 0.746883 0.718685
vt 0.000853 0.687332
vt 0.000853 0.537766
vt 0.060679 0.537766
vt 0.060679 0.687332
vt 0.627231 0.966665
vt 0.627231 0.906838
vt 0.687057 0.906839
vt 0.687057 0.966665
vt 0.214478 0.510810
vt 0.214478 0.790309
vt 0.168417 0.752131
vt 0.168599 0.472785
vt 0.645178 0.710448
vt 0.645178 0.574562
vt 0.703868 0.562959
vt 0.703868 0.698844
vt 0.471475 0.808532
vt 0.471475 0.863268
vt 0.346559 0.863268
vt 0.346559 0.808532
vt 0.633202 0.870782
vt 0.627231 0.803867
vt 0.682183 0.780217
vt 0.682183 0.905133
vt 0.000853 0.332994
vt 0.055589 0.332994
vt 0.055589 0.468880
vt 0.000853 0.468880
vt 0.802939 0.518173
vt 0.802244 0.014802
vt 0.828705 0.000853
vt 0.828705 0.533369
vt 0.112032 0.533371
vt 0.057296 0.533371
vt 0.057295 0.000853
vt 0.112032 0.000853
vt 0.625471 0.775127
vt 0.625471 0.829863
vt 0.475960 0.829863
vt 0.475960 0.775127
vt 0.000966 0.894201
vt 0.150477 0.894201
vt 0.150477 0.924114
vt 0.000966 0.924114
vt 0.475960 0.600711
vt 0.625525 0.600711
vt 0.625525 0.660537
vt 0.475960 0.660537
vt 0.150477 0.837758
vt 0.150477 0.892495
vt 0.090651 0.892495
vt 0.030825 0.892495
vt 0.030825 0.837822
vt 0.090651 0.837758
vt 0.683889 0.881482
vt 0.689860 0.814567
vt 0.738842 0.780217
vt 0.738842 0.905133
vt 0.055589 0.536061
vt 0.000853 0.536061
vt 0.474149 0.599005
vt 0.261670 0.596935
vt 0.229721 0.546354
vt 0.474149 0.539179
vt 0.166711 0.781316
vt 0.166711 0.836053
vt 0.030825 0.836053
vt 0.030825 0.781316
vt 0.288411 0.668757
vt 0.288411 0.804642
vt 0.229721 0.793039
vt 0.229721 0.657153
vt 0.105205 0.535078
vt 0.105205 0.684697
vt 0.075292 0.684697
vt 0.075292 0.535078
vt 0.457738 0.806772
vt 0.403001 0.806772
vt 0.403001 0.657153
vt 0.457738 0.657153
vt 0.625473 0.599005
vt 0.475854 0.599005
vt 0.475854 0.569092
vt 0.625473 0.569092
vt 0.475960 0.888011
vt 0.625471 0.888011
vt 0.625471 0.917924
vt 0.475960 0.917924
vt 0.862671 0.488997
vt 0.861934 0.014766
vt 0.888415 0.000853
vt 0.888415 0.504228
vt 0.851432 0.958561
vt 0.851432 0.898735
vt 0.881345 0.898735
vt 0.881345 0.958561
vt 0.687057 0.998165
vt 0.627231 0.998165
vt 0.627231 0.968370
vt 0.687057 0.968370
vt 0.825132 0.535075
vt 0.825132 0.816314
vt 0.802335 0.835497
vt 0.802244 0.554334
vt 0.900619 0.958478
vt 0.960446 0.958478
vt 0.960446 0.988391
vt 0.900619 0.988391
vt 0.833740 0.440876
vt 0.830411 0.003247
vt 0.860228 0.000853
vt 0.860228 0.454775
vt 0.874320 0.835497
vt 0.851432 0.816238
vt 0.851522 0.535075
vt 0.874320 0.554258
vt 0.890121 0.485787
vt 0.949947 0.485787
vt 0.949947 0.515701
vt 0.890121 0.515701
vt 0.795219 0.956855
vt 0.795219 0.837203
vt 0.825132 0.837203
vt 0.825132 0.956855
vt 0.890121 0.020105
vt 0.913015 0.000853
vt 0.913015 0.282017
vt 0.890212 0.301192
vt 0.849726 0.835497
vt 0.826838 0.816238
vt 0.826929 0.535075
vt 0.849726 0.554258
vt 0.860205 0.456481
vt 0.860205 0.516307
vt 0.830411 0.516307
vt 0.830411 0.456481
vt 0.397345 0.470114
vt 0.342608 0.470114
vt 0.342608 0.440201
vt 0.397345 0.440201
vt 0.949820 0.589811
vt 0.949820 0.535075
vt 0.979733 0.535075
vt 0.979733 0.589811
vt 0.881345 0.837203
vt 0.881345 0.897029
vt 0.851432 0.897029
vt 0.851432 0.837203
vt 0.466211 0.865038
vt 0.466211 0.919710
vt 0.346559 0.919710
vt 0.346559 0.864974
vt 0.475960 0.716979
vt 0.475960 0.662242
vt 0.625525 0.662243
vt 0.625525 0.716979
vt 0.229721 0.806348
vt 0.284458 0.806348
vt 0.284458 0.866174
vt 0.284458 0.926000
vt 0.229721 0.926000
vt 0.229721 0.866174
vt 0.290117 0.809914
vt 0.344853 0.809914
vt 0.344853 0.869740
vt 0.344853 0.929566
vt 0.290117 0.929566
vt 0.290117 0.869740
vt 0.955356 0.955228
vt 0.900619 0.956772
vt 0.900619 0.837120
vt 0.955356 0.837120
vt 0.344854 0.807321
vt 0.290117 0.808208
vt 0.290117 0.658697
vt 0.344853 0.657153
vt 0.344853 0.658697
vt 0.284460 0.475941
vt 0.229724 0.475846
vt 0.229721 0.001617
vt 0.284460 0.000853
vt 0.401296 0.806826
vt 0.346559 0.806772
vt 0.346559 0.657153
vt 0.401296 0.657261
vt 0.397345 0.438495
vt 0.342608 0.438495
vt 0.342608 0.000853
vt 0.397345 0.000900
vt 0.537492 0.949543
vt 0.537492 0.919630
vt 0.597318 0.919630
vt 0.597318 0.979456
vt 0.537492 0.979456
vt 0.174869 0.028323
vt 0.228016 0.000853
vt 0.228016 0.471079
vt 0.168417 0.465869
vt 0.520408 0.433417
vt 0.460582 0.433471
vt 0.460582 0.283906
vt 0.520408 0.283798
vt 0.166711 0.533372
vt 0.113738 0.505569
vt 0.114729 0.030481
vt 0.166711 0.000853
vt 0.399050 0.329843
vt 0.399050 0.000853
vt 0.458876 0.001741
vt 0.458876 0.329843
vn 0.0000 1.0000 0.0000
vn -0.9999 0.0000 -0.0106
vn 0.0106 0.0000 -0.9999
vn -0.7651 -0.6438 -0.0081
vn 1.0000 0.0000 0.0000
vn 0.0000 0.0000 -1.0000
vn -0.7703 0.6376 -0.0081
vn 0.0000 -1.0000 0.0000
vn 0.0000 0.6433 -0.7656
vn 0.0000 -0.6381 -0.7699
vn 0.0000 0.0000 1.0000
vn -1.0000 0.0000 0.0000
vn 0.9999 0.0000 0.0106
vn -0.9971 0.0000 0.0766
vn 0.0000 0.6376 0.7703
vn 0.0000 -0.6438 0.7652
vn -0.0106 -0.0000 0.9999
vn -0.0005 -1.0000 0.0005
vn 0.7699 -0.6381 0.0081
vn 0.7655 0.6433 0.0081
vn -0.9998 0.0000 0.0188
vn 0.0003 -1.0000 0.0005
vn -0.5742 0.0000 0.8187
vn 0.9367 0.0000 -0.3500
vn -0.5080 0.0000 0.8613
vn 0.6447 0.0000 -0.7645
vn 0.9998 0.0000 0.0203
vn -0.9367 0.0000 0.3500
vn -0.8511 0.0000 0.5251
vn 0.5102 0.0046 -0.8601
vn 0.8511 -0.0000 -0.5251
vn 0.9981 -0.0002 -0.0619
usemtl Material.003
s off
f 106/1/1 95/2/1 7/3/1 59/4/1
f 64/5/2 59/6/2 7/7/2 8/8/2
f 11/9/3 9/10/3 5/11/3 6/12/3
f 64/13/4 8/14/4 18/15/4 68/16/4
f 96/17/5 94/18/5 3/19/5 4/20/5
f 52/21/6 48/22/6 1/23/6 2/24/6
f 2/25/5 1/26/5 12/27/5 10/28/5
f 60/29/7 11/30/7 17/31/7 63/32/7
f 65/33/1 5/34/1 9/35/1 66/36/1
f 93/37/3 95/38/3 15/39/3 13/40/3
f 98/41/8 105/42/8 21/43/8 51/44/8
f 56/45/8 19/46/8 22/47/8 57/48/8
f 55/49/9 16/50/9 22/51/9 57/52/9
f 93/53/3 13/54/3 17/55/3 97/56/3
f 2/57/5 10/58/5 22/59/5 19/60/5
f 11/61/3 6/62/3 20/63/3 17/64/3
f 96/65/5 4/66/5 21/67/5 105/68/5
f 52/69/10 2/70/10 19/71/10 56/72/10
f 32/73/1 26/74/1 28/75/1 33/76/1
f 82/77/6 80/78/6 26/79/6 23/80/6
f 31/81/11 36/82/11 24/83/11 25/84/11
f 101/85/1 99/86/1 24/87/1 36/88/1
f 104/89/1 101/90/1 36/91/1 53/92/1
f 47/93/11 53/94/11 36/95/11 31/96/11
f 102/97/12 55/98/12 57/99/12 98/100/12
f 48/101/1 32/102/1 33/103/1 49/104/1
f 23/105/6 26/106/6 32/107/6 35/108/6
f 58/109/13 65/110/13 44/111/13 39/112/13
f 86/113/1 44/114/1 45/115/1 87/116/1
f 89/117/14 88/118/14 40/119/14 43/120/14
f 110/121/1 103/122/1 40/123/1 88/124/1
f 1/125/1 48/126/1 49/127/1 12/128/1
f 10/129/15 54/130/15 57/131/15 22/132/15
f 4/133/16 47/134/16 51/135/16 21/136/16
f 4/137/11 3/138/11 53/139/11 47/140/11
f 94/141/1 104/142/1 53/143/1 3/144/1
f 52/145/12 56/146/12 57/147/12 69/148/12
f 100/149/17 107/150/17 63/151/17 61/152/17
f 52/153/18 69/154/18 37/155/18 35/156/18
f 35/157/6 32/158/6 48/159/6 52/160/6
f 6/161/19 58/162/19 62/163/19 20/164/19
f 13/165/20 61/166/20 63/167/20 17/168/20
f 20/169/8 62/170/8 63/171/8 17/172/8
f 97/173/8 107/174/8 68/175/8 18/176/8
f 6/177/13 5/178/13 65/110/13 58/109/13
f 44/179/1 65/180/1 66/181/1 45/182/1
f 43/183/2 40/184/2 59/185/2 64/186/2
f 103/187/1 106/188/1 59/189/1 40/190/1
f 13/191/13 15/192/13 67/193/13 46/194/13 42/195/13 61/196/13
f 85/197/21 87/198/21 45/199/21 41/200/21
f 37/201/11 54/202/11 69/203/11
f 23/204/22 35/205/22 37/206/22 27/207/22
f 82/208/8 23/209/8 27/210/8 83/211/8
f 58/212/8 39/213/8 41/214/8 60/215/8
f 62/216/17 58/217/17 60/218/17 63/219/17
f 84/220/8 72/221/8 73/222/8 85/223/8
f 83/224/23 81/225/23 71/226/23 73/227/23
f 80/228/1 70/229/1 71/230/1 81/231/1
f 84/232/24 86/233/24 70/234/24 72/235/24
f 109/236/1 108/237/1 76/238/1 79/239/1
f 77/240/25 79/241/25 76/242/25 74/243/25
f 25/244/11 24/245/11 79/246/11 77/247/11
f 99/248/1 109/249/1 79/250/1 24/251/1
f 26/252/1 80/253/1 81/254/1 28/255/1
f 10/256/11 12/257/11 49/258/11 33/259/11 37/260/11 54/261/11
f 72/262/8 82/263/8 83/264/8 73/265/8
f 72/235/26 70/234/26 80/266/26 82/267/26
f 39/112/27 44/111/27 86/233/27 84/232/27
f 39/268/8 84/269/8 85/270/8 41/271/8
f 73/272/28 71/273/28 87/274/28 85/275/28
f 70/276/1 86/277/1 87/278/1 71/279/1
f 108/280/1 110/281/1 88/282/1 76/283/1
f 74/284/29 76/285/29 88/286/29 89/287/29
f 75/288/1 90/289/1 110/290/1 108/291/1
f 30/292/1 78/293/1 109/294/1 99/295/1
f 78/296/1 75/297/1 108/298/1 109/299/1
f 46/300/1 67/301/1 106/302/1 103/303/1
f 17/304/8 63/305/8 107/306/8 97/307/8
f 64/308/17 68/309/17 107/310/17 100/311/17
f 14/312/1 50/313/1 104/314/1 94/315/1
f 90/316/1 46/317/1 103/318/1 110/319/1
f 47/320/12 102/321/12 98/322/12 51/323/12
f 50/324/1 34/325/1 101/326/1 104/327/1
f 34/328/1 30/329/1 99/330/1 101/331/1
f 16/332/5 96/333/5 105/334/5 22/335/5
f 8/336/3 93/337/3 97/338/3 18/339/3
f 57/340/8 22/341/8 105/342/8 98/343/8
f 8/344/3 7/345/3 95/346/3 93/347/3
f 16/348/5 14/349/5 94/350/5 96/351/5
f 67/352/1 15/353/1 95/354/1 106/355/1
f 37/356/11 33/357/11 28/358/11 27/359/11
f 27/360/11 28/361/11 81/362/11 83/363/11
f 41/364/2 45/365/2 66/366/2 9/367/2 11/368/2 60/369/2
f 38/370/6 34/371/6 50/372/6 14/373/6 16/374/6 55/375/6
f 111/376/6 30/377/6 34/378/6 38/379/6
f 112/380/6 78/381/6 30/382/6 111/383/6 29/384/6
f 91/385/30 75/386/30 78/387/30 112/388/30
f 92/389/31 90/390/31 75/391/31 91/392/31
f 42/393/32 46/394/32 90/395/32 92/396/32
f 100/397/8 61/398/8 42/399/8 43/400/8 64/401/8
f 92/402/8 89/403/8 43/404/8 42/405/8
f 89/406/8 92/407/8 91/408/8 74/409/8
f 74/410/8 91/411/8 112/412/8 77/413/8
f 47/414/8 77/415/8 112/416/8 55/417/8
